<?xml version="1.0" encoding="utf-8"?>
<!-- Generator: Adobe Illustrator 26.5.0, SVG Export Plug-In . SVG Version: 6.00 Build 0)  -->
<svg version="1.1" id="Layer_1" xmlns="http://www.w3.org/2000/svg" xmlns:xlink="http://www.w3.org/1999/xlink" x="0px" y="0px"
	 viewBox="0 0 1080 1080" style="enable-background:new 0 0 1080 1080;" xml:space="preserve">
<g>
	<path d="M927,958.6c-1.8,2-3.3,3.4-4.2,4.2c-26.5,24.4-38.8,32.6-38.8,32.6c-10.7,6.9-22.1,12.9-34.2,17.9
		c-15.1,6.2-31,7.3-47.1,7.3c-29.1-0.1-57.8-4-86.4-9c-62.7-10.9-124.3-26.8-185.8-43c-4.3-1.1-7.7-0.2-11.5,1.2
		c-60.7,22.2-121.7,43.4-184.3,59.6c-28.6,7.4-57.3,14-87,14.9c-25.5,0.8-49.5-6.1-69.7-19c0,0-34.2-22-49.7-63.1
		c-1.7-4.6-2.9-9-2.9-9c-4.2-15.5-3.7-29.2-2.4-40.1c4.7-40.9,16.5-69.2,16.5-69.2c21.4-55.9,50-108.1,80.9-159.2
		c28.1-46.5,57.8-92,90.1-135.6c24.4-32.9,49.5-65.4,75.7-96.8c22.2-26.7,48.4-49.5,77.5-68.8c5.4-3.6,9.2-9.4,13.7-14.3
		c0.5-0.5,0.6-1.6,0.6-2.4c0-11.8,0.3-23.6-0.2-35.4c-0.2-4.1-2.3-8.2-3.9-12.1c-1.3-3.2-3.4-6.1-4.8-9.3c-1.8-4.4-4.1-6.6-9.5-7.4
		c-6.3-1-12.9-4.2-17.8-8.3c-16.4-13.9-26.7-31.7-30.7-52.9c-2-10.4,1.6-16.3,11.4-21c-3-6.3-6.1-12.5-8.9-18.8
		c-8.1-18.3-14.1-37.1-12.4-57.5c1.1-12.7,5.4-23.9,15.1-32.7c1.2-1.1,2.3-2.6,2.7-4.1c5.6-22.8,19.7-39.2,39.5-50.5
		c38.4-22,79.3-27.5,121.2-12.3c36,13,56.3,39.6,59.7,78.2c0.8,8.8,1.9,17.7,1,26.4c-1.4,14.3,2.8,27.3,6.2,40.7
		c3.2,12.6,5.4,25.4,9,37.9c3.9,13.4,9.7,26.3,13.1,39.8c5,19.3,10,38.8,12.6,58.5c3.8,28.6-2.1,55.1-23.7,76.6
		c4.5,3.3,9,6.4,13.2,9.8c25.9,20.8,48.1,45.2,68.7,71c64,80.4,122,165,170.4,255.9c17.8,33.4,33.6,67.7,42.9,104.7
		c5.4,21.7,7.4,43.7,1.7,65.7c-3.5,13.4-9.8,25.4-17.8,36.6c-1.5,2.1-3.1,4.3-4.9,6.9C930.7,954.2,929.2,956.3,927,958.6z
		 M599.2,260.9c0.3,0,0.6-0.2,0.9-0.3c17.6-7.7,30.3,1.9,43.2,12.5c1.4-2.2,2.9-4.2,4-6.4c5.7-11.6,6.7-24,4.5-36.6
		c-6-33.5-15.7-66-28.8-97.5c-4.4-10.5-10-20.5-14.7-30.1c-8.2,4.8-15.2,9.6-22.8,13.2c-15.9,7.5-33.1,9.9-50.4,11.1
		c-14.1,1-28.3,1.3-42.4,1.8c-6.6,0.2-10.3,3.7-12.1,9.9c-2.9,10-2.4,19.9,0.8,29.5c2.3,7,1.8,13.1-1.2,19.6
		c-5.4,11.6-7.3,23.8-4.9,36.5c3.3,17.6,10.8,33.5,19.8,48.8c7.7,13,19.8,19.3,33.9,22.5c3.8,0.9,6.4-0.1,8.8-3.7
		c7.1-10.5,16.2-18.9,27.7-24.5c6.9-3.4,14.4-5.3,21.8-3.1C592.6,265.9,596,264.8,599.2,260.9z M716.9,733.2
		c-6.2-8.8-13.3-14.7-23.1-15.9c-10.4-1.2-20.9-2.1-31.4-1.8c-43.3,1.3-85.3,9.3-126.2,23.6c-7.6,2.7-15.3,5.3-23.1,8
		c1.6,2.8,2.8,4.9,4.1,7.1c23.3,39.2,46.6,78.4,69.7,117.8c2.1,3.7,4.4,4.7,8.3,4.1c12.2-1.9,24-5.3,35.3-10.4
		c25.1-11.5,45.7-29.2,65.6-47.7c4.8-4.5,10-7.3,16.5-7c12.9,0.7,26,1,38.8,2.8c16.5,2.3,32.7,6,49.1,8.9c2.4,0.4,6.3,0.4,7.2-1
		c1.1-1.6,0.3-5.2-0.7-7.5c-3.6-9-10.3-15.2-19.7-17.8c-9.1-2.5-18.5-4.3-27.7-6.3c-7.9-1.7-15.8-3.2-23.7-4.7
		c17.7-0.4,35.2,0.6,52.6,7.3c-3-8.3-7.2-14.7-13.3-19.8c-8.6-7.1-18.9-8.7-29.4-9.7c-13.2-1.3-26.5-2-39.8-3c0-0.1,0-0.1,0-0.2
		c16.5,0,33,0,49.5,0c-5.4-11.6-14.6-20.1-28.2-21.7c-12.5-1.5-25.3-1.5-37.9-1.5c-10.5,0-20.9,0.9-31.4,1.4
		C676.8,731.7,696.2,730.9,716.9,733.2z M438.4,749.7c-0.3,0.4-0.5,0.8-0.8,1.2c-1.9-1.1-3.9-2.2-5.8-3.4
		c-25.6-16.2-52-30.4-81.6-38c-18.7-4.8-37.4-10.1-57-5.5c-7.2,1.7-14.4,3.1-19.6,9c-4.4,4.9-4.8,10.3-0.3,14.8
		c8,8,18.3,12.1,29.1,14.2c10.4,2,21.2,2.4,31.5,4.8c23.6,5.6,44.1,17.5,63.4,31.8c2.3,1.7,4.1,2.3,7.1,1.2
		c33.9-12.3,67.9-24.4,101.9-36.6c1.1-0.4,2.9-1.1,3.3-0.6c2.6,2.8,5,0.6,7.3-0.3c5.6-2,11.2-4.3,16.8-6.4c5.5-2.1,11.1-4,17.8-6.5
		c-12.4-11.6-23.8-22.8-35.8-33.4c-17-15-35-28.8-55.2-39.3c-29-15-60.2-22.1-92.5-24.8c-10.5-0.9-21.2,0.2-31.8,1
		c-4.3,0.3-7.1,3.5-7.8,8c-0.7,4.4,1.1,7.8,4.8,10.2c6.4,4,13,7.1,20.8,7.8c34.6,2.8,65.3,15.2,91.9,37.6c6.5,5.5,13,11,19.5,16.5
		c-0.3,0.3-0.5,0.7-0.8,1c-2.9-2-5.9-4.1-8.8-6.1c-21.2-14.8-42.5-29.4-67.4-37.5c-20.8-6.7-41.4-14.1-63.8-11.5
		c-8.1,1-16.2,2-23.3,6.6c-7.6,4.9-9.8,12.8-4.6,19.7c6.7,8.7,15.6,14.8,26.7,15.8c31.1,2.7,60.3,10.8,86.4,28.3
		C419.4,735.9,428.8,742.9,438.4,749.7z M477.6,375.7c-4.6,6.5-9.2,13.3-14.2,19.7c-2.4,3.1-2.1,5.1,0,8.2
		c28.8,41.9,57.4,83.8,86,125.8c1.4,2,2.7,4.1,4.5,6.7c9.3-21.4,18.2-42.1,27.1-62.7C546.4,440.6,512.1,408.2,477.6,375.7z
		 M397.7,782c-26.2-17.3-59.4-31.2-88.9-37.5c-10.2-2.2-20.2-2-29.7,2.7c-12.9,6.5-14,19.7-2,27.7c5.3,3.5,11.4,6.2,17.6,8.1
		c19.4,5.9,38.9,11.3,58.4,16.8c0.9,0.2,2,0.2,2.8-0.1C369.7,793.9,383.4,788,397.7,782z M475.2,290.4c-2.3-11.5-4.1-23.3-7.2-34.6
		c-4.9-18-19.1-26.7-35.8-31.2c-11.5-3.1-18.8,3.6-16.7,15.3c4.2,22.8,15.5,41.7,35.1,54.7c5.6,3.7,12.1,4.6,18.7,2.8
		C473.1,296.5,475.1,294.7,475.2,290.4z M581.1,465.5c5-13.5,9.7-26.4,14.4-39.2c-51.7-6.2-92.8-26.5-110.8-79.4
		c-0.7,7.6-1.2,14.9-1.2,22.2c0,2.2,1.1,4.9,2.6,6.5c7.8,7.9,15.9,15.6,24.1,23.3C533.5,420.9,557,442.9,581.1,465.5z M625.9,509.9
		c-3.1-29.6-6-57.7-9-86.1c-4.2,0.5-7.6,1.2-11.1,1.2c-3.3,0-4.6,1.5-5.6,4.4c-4.7,13.2-9.6,26.3-14.6,39.3c-1,2.7-0.5,4.2,1.5,6
		c6.9,6.1,13.6,12.3,20.4,18.4C613.3,498.4,619,503.6,625.9,509.9z M598.7,281.9c-4.5,3.9-8.1,8.1-12.6,10.6
		c-6.4,3.5-13.3,5.9-20.2,8.3c-3.8,1.4-5.8,3.4-5.8,7.6c-0.1,9.3,5.9,15.8,15.2,16.2c8.1,0.3,14.1-5.9,14.1-15.3c0-1-1.6-2.4-2.7-3
		c-1.9-1.1-4-1.8-6-2.6c6-1.6,11.6-1.4,16.7-2.7c5.2-1.4,9.9-4.4,15.4-6.9c-0.3,1.4-0.3,2.1-0.6,2.6c-3.6,6-3.3,7.8,1.8,13
		c4.8,4.9,10,4.5,13.7-1.2c3.5-5.4,4.3-11.4,2.9-17.7c-0.7-2.9-2-3.7-4.9-3.3C615.8,289,606.5,287.4,598.7,281.9z"/>
	<path d="M602.2,255.9c-2.8,1.7-5.8,1.3-11.9,0.9c-4.4-0.3-8.8-1.3-13-3c-2-0.8-3.9-2.1-5.8-3.1c0.1-0.5,0.3-0.9,0.4-1.4
		c2.7,0.3,5.3,0.9,8,1c5.5,0.3,11,0.9,16.4,0.4c1.3-0.1,2.2-0.4,2.9-0.8c0.7-0.4,1.2-0.9,1.4-1.1c1.4-1.5,0.6-4.9-0.6-7.5
		c-3-6.6-8.9-8.3-8.3-9.9c0.5-1.3,4.6-1.3,7.8,0.2c0.7,0.3,2,1,3.4,2.7c1.1,1.2,6.5,7.6,4.2,14.9
		C606.8,250.3,605.6,253.8,602.2,255.9z"/>
	<path d="M549.6,214.5c0,6-2.2,9.7-6.3,10.7c-4.4,1.1-8.3-1.2-11.1-6.5c-2.5-4.7-3.5-9.7-1.8-15c2.1-6.5,8.2-8.2,13.3-3.6
		C547.4,203.4,549.6,208.7,549.6,214.5z"/>
	<path d="M539.6,171.6c-0.3,0.8-0.6,2.8-1.7,3.7c-5.3,4.5-10.7,8.8-16.3,13c-1.1,0.8-3.2,0.9-4.8,0.6c-4.7-0.6-7-4.6-4.9-8.8
		c3.9-7.8,10.4-12.9,18.9-15C535.6,163.9,539.4,166.7,539.6,171.6z"/>
	<path d="M601.4,200.1c-0.7-2.2-1.5-4.3-2.2-6.5c0.1-3.4-0.4-7,0.4-10.2c1.4-5.9,7.1-7.6,12-3.9c5.6,4.2,8.2,15.4,5,21.8
		c-2.2,4.3-6.8,5.6-10.9,2.9C604,203.1,602.8,201.4,601.4,200.1z"/>
	<path d="M599.2,161.6c-3.6-0.5-7.6-0.5-11.1-1.7c-2.1-0.7-4.7-3.3-4.9-5.3c-0.2-2,1.7-5,3.5-6.4c5.3-4.1,19.6-3.8,24.7,0.5
		c1.5,1.3,3.1,4.1,2.7,5.8c-0.5,2.2-2.5,4.9-4.5,5.7C606.5,161.4,602.9,161.2,599.2,161.6z"/>
	<path d="M468,284.2c-3.1-3.5-5.7-7.9-9.5-10.2c-4-2.5-9.2-2.9-13.9-5.2c4.7,0,9.4,0,15.9,0c-4.3-5.8-7.5-11.2-11.8-15.5
		c-4.4-4.4-9.8-7.7-14.8-11.6C448.7,239.4,473.2,270,468,284.2z"/>
</g>
</svg>
