<?xml version="1.0" encoding="utf-8"?>
<!-- Generator: Adobe Illustrator 26.5.0, SVG Export Plug-In . SVG Version: 6.00 Build 0)  -->
<svg version="1.1" id="Layer_1" xmlns="http://www.w3.org/2000/svg" xmlns:xlink="http://www.w3.org/1999/xlink" x="0px" y="0px"
	 viewBox="0 0 1080 1080" style="enable-background:new 0 0 1080 1080;" xml:space="preserve">
<style type="text/css">
	.st0{fill:#394147;}
	.st1{fill:#48BD9D;}
	.st2{fill:#D3D8DE;}
	.st3{fill:#BCC3C9;}
	.st4{fill:#E7EBEE;}
	.st5{fill:#FDFEFD;}
	.st6{fill:#D1D6DC;}
	.st7{fill:#AEB5BC;}
	.st8{fill:#8BD4C0;}
	.st9{fill:#555A5F;}
	.st10{fill:#66B29C;}
	.st11{fill:#BAC2C9;}
	.st12{fill:#9BA3AA;}
	.st13{fill:#292929;}
	.st14{fill:#010202;}
	.st15{fill:#BABEC2;}
	.st16{fill:#FBFCFC;}
	.st17{fill:#151515;}
	.st18{fill:#4E5861;}
	.st19{fill:#343539;}
	.st20{fill:#4A525B;}
	.st21{fill:#7C7E81;}
	.st22{fill:#424C55;}
	.st23{fill:#AEB5BC;stroke:#AEB5BC;stroke-width:2;stroke-miterlimit:10;}
	.st24{fill:none;stroke:#394147;stroke-width:2;stroke-miterlimit:10;}
</style>
<path class="st0" d="M984.8,1067.5c-0.7,2.2-9.3,2.3-10.3-0.2c-0.4-1.1,0.7-2.6,1.7-3.7c-16.8-167.6-33.6-335.2-50.4-502.9
	c-0.1-0.2-0.2-0.4-0.4-0.6c-0.6-0.8-1.4-1-1.8-1.1c3-0.1,5.9-0.2,8.9-0.3c-0.3,0.1-1,0.4-1.4,1.1c-0.1,0.1-0.1,0.2-0.2,0.4
	c16.8,167.7,33.6,335.4,50.4,503.1C984.4,1065.5,985,1066.7,984.8,1067.5z"/>
<path class="st1" d="M86.5,863.3c-5.7-3.5-7.9-9.3-9.7-15.3c-0.2-0.7-0.6-1.3-0.9-2c0-4.2,0-8.4,0-12.6c0.9-3.9,1.9-7.8,2.8-11.6
	c0.1-0.3,0.2-0.5,0.2-0.8c1.9-3.9,3.8-7.8,5.7-11.7l0,0c0.7-1,1.3-1.9,2-2.9c0,0,0,0,0,0c0.7-1,1.3-1.9,2-2.9c0,0,0,0,0,0
	c0.3-0.3,0.6-0.7,0.9-1c0,0,0,0,0,0c0.3-0.3,0.6-0.7,0.9-1c2.6-2.6,5.2-5.2,7.8-7.8c0.3-0.3,0.7-0.6,1-0.9c0,0,0,0,0,0
	c1.3-1,2.6-1.9,3.9-2.9l0,0c0.4-0.3,0.8-0.6,1.2-0.9c0.3,0,0.5-0.1,0.7-0.2c0.4-0.3,0.7-0.5,1.1-0.8c4.8-1.8,9.5-3.9,14.3-5.4
	c3.5-1.1,6.9-1.5,10.4-1.3c3.2,0.2,8.3,0.3,12.9,3.7c1.2,0.9,2.1,1.7,2.6,2.4c-0.3,0.4-0.8,1-1.4,1.7c-7.9,9.4-13.3,16.9-15.2,19.2
	c-7.8,9.8-15.6,19.5-23.3,29.3C99.6,846,93.1,854.7,86.5,863.3z"/>
<path class="st2" d="M831.3,12c0,2.1,0.1,4.2,0,6.3c-0.1,2.8-0.6,3.2-3.5,3.4c-1,0.1-1.9,0-2.9,0c-76.1,0-152.2,0-228.3,0
	c-6.1,0-5.4,0.8-5.5-5.3c0-1.5,0-2.9,0-4.4C671.2,12,751.2,12,831.3,12z"/>
<path class="st2" d="M583.4,12c0,2.4-0.1,4.8,0,7.2c0.1,1.9-0.8,2.6-2.6,2.4c-0.6-0.1-1.3,0-1.9,0c-31.1,0-62.2,0-93.3,0
	c0-3.2,0-6.4,0-9.7C518.1,12,550.7,12,583.4,12z"/>
<path class="st2" d="M926.3,21.7c-12.4,0-24.8,0.1-37.2,0c-4.1,0-4.4-0.3-4.5-4.4c0-1.8,0-3.5,0-5.3c13.9,0,27.8,0,41.6,0
	C926.2,15.2,926.3,18.4,926.3,21.7z"/>
<path class="st2" d="M878.8,12c-0.3,2.7-0.6,5.4-1.1,8c-0.1,0.6-1.1,1.4-1.8,1.6c-1.1,0.3-2.2,0.1-3.4,0.1c-10.5,0-20.9-0.1-31.4,0
	c-2.2,0-3.3-0.5-3.1-3c0.2-2.2,0-4.5,0-6.8C851.7,12,865.2,12,878.8,12z"/>
<path class="st3" d="M926.3,21.7c0-3.2,0-6.4,0-9.6c1.9,0,3.9,0,5.8,0c0.3,3.2,0.6,6.4,0.9,9.6C930.7,21.6,928.5,21.6,926.3,21.7z"
	/>
<path class="st4" d="M78.6,821.8c-0.9,3.9-1.9,7.8-2.8,11.6c0-2.9,0-5.8,0-8.7c1-0.3,1-0.6,0-1c0-0.6,0-1.3,0-1.9
	C76.8,821.8,77.7,821.8,78.6,821.8z"/>
<path class="st5" d="M75.8,823.7c1,0.3,1,0.6,0,1C75.8,824.4,75.8,824.1,75.8,823.7z"/>
<path class="st6" d="M515.6,454.7c-0.9-2.3-2-4.6-2.8-7c-7.9-24.9-15.6-49.8-23.6-74.6c-1.1-3.3-3-6.3-4.5-9.5
	c0.3-1.6,0.8-3.3,0.8-4.9c0-38.5,0-77,0-115.6c0-1.5,0-2.9,0-4.4c31.1,0,62.2,0,93.3,0c0.5,0,1,0.1,1.4,0c2.3-0.3,3.2,0.6,3.1,2.9
	c-0.2,5,0,10,0,15c0,4.4,0,8.7,0,13.1c-5.5,0-4.8-0.4-4.8,5c0,0.8,0,1.6,0,2.4c0,35.3,0,70.6,0,105.9c0,5.4,0.5,4.8-5,4.8
	c-17.7,0-35.5,0-53.2,0c-5.2,0-4.7-0.5-4.7,4.6c0,19,0,38.1,0,57.1c0,1.6,0.2,3.2,0.3,4.8L515.6,454.7z"/>
<path class="st7" d="M216.4,1066.6c-5.2,0.1-10.3,0.2-15.5,0.2c-13.9,0-27.7,0-41.6,0c-1.8,0-3.5-0.2-5.3-0.2
	c-0.5-8.6-1.1-17.2-1.6-25.8c0-0.5,0-1-0.1-1.4c-0.4-9.1-0.7-18.3-1.1-27.4c-0.3-8.7-0.7-17.3-1-26c-0.3-6.1-0.6-12.2-0.9-18.2
	c-0.7-13-1.3-25.9-1.9-38.9c-0.3-6.2-0.6-12.5-1-18.7c-0.5-8-1.3-15.9-1.7-23.9c-0.2-3.9,0-7.7-0.2-11.6c-0.1-2,0.8-2.4,2.6-2.4
	c6,0.1,11.9,0.1,17.9,0.1c1.4,0,2.8,0,4.2-0.1c3.4,0,6.8,0,10.2,0c1.4,0,2.8,0,4.1,0c1.4,0,2.8,0,4.3,0c1.1,0,2.3,0,3.4,0
	c2.8,0,5.7,0,8.5,0c1.4,0,2.7,0,4.1,0c5.6,0,11.3,0,16.9,0c1.2,0,2.3,0,3.5,0c1.3-0.1,2.7-0.2,2.7,1.8c0,1.1,0,2.3,0,3.4
	c-0.6,8.5-1.3,16.9-1.8,25.4c-0.5,9.3-0.7,18.6-1.1,27.9c0,0.3,0,0.6,0,1c-0.6,7.8-1.4,15.6-1.8,23.5c-0.5,9.6-0.8,19.3-1.1,28.9
	c0,0.3,0,0.6,0,1c-0.6,8-1.3,15.9-1.8,23.9c-0.5,9.5-0.8,19-1.1,28.4c0,0.5,0,1-0.1,1.5C217.5,1048,217,1057.3,216.4,1066.6z"/>
<path class="st6" d="M485.6,113.8c31.3,0,62.5,0,93.8,0c3.9,0,4,0,4,3.9c0,36.8,0,73.5,0,110.3c0,3.9,0,3.9-4,3.9
	c-31.3,0-62.5,0-93.8,0C485.6,192.5,485.6,153.1,485.6,113.8z"/>
<path class="st1" d="M193,693c-0.1-0.2-0.2-0.4-0.1-0.7c0.3-1.8,0.3-3.5-1.8-4.2c-0.1-0.2-0.2-0.5-0.1-0.7c-0.3-3.3-0.8-6.6-0.8-9.9
	c0-4.6,0.5-9.1,0.8-13.7c0,0,0,0,0,0c0.3-0.7,0.6-1.5,0.9-2.2c-0.1-0.2,0-0.4,0.1-0.6c0.3-0.4,0.6-0.9,0.8-1.3c0-0.2,0-0.4,0.2-0.6
	c0.3-0.4,0.6-0.7,0.9-1.1c0,0,0,0,0,0c0.4-0.6,0.7-1.2,1.1-1.9c1.6-1.6,3.2-3.2,4.8-4.8c0.6-0.4,1.3-0.7,1.9-1.1l0,0
	c1.1,0,2.1,0,3.2,0c4.8,5.7,9.7,11.4,14.5,17.2c5.7,6.9,11.3,13.9,17,20.8c4.7,5.7,9.3,11.4,14,17c4.7,5.6,9.5,11.2,14.3,16.8
	c-0.1,0.3-0.2,0.6-0.3,0.9c-0.6,0.3-1.2,0.7-1.7,1c-1.3,0.6-2.7,1.3-4,1.9c-0.3,0-0.6,0-0.8,0.2c-6.3,1.4-12.8,2.1-19.3,1.9
	c-1.3,0-2.6,0-3.9,0c-1.2-0.7-2.2-1.6-3.5-2c-8.5-2.9-16.5-6.8-22.9-13.3c-0.3-0.4-0.7-0.7-1-1.1c0,0,0,0,0,0
	c-0.3-0.3-0.7-0.6-1-0.9c0,0-0.1,0.1-0.1,0.1c-0.2-0.4-0.4-1.1-0.6-1.1c-2.4,0.3-3.7-1.1-4.7-3c-0.1-0.9-0.3-1.7-0.4-2.6
	c-0.3-0.4-0.6-0.8-1-1.2c0,0,0,0,0,0c-0.3-0.3-0.6-0.7-1-1c0,0,0,0,0,0c-0.3-0.3-0.6-0.7-0.9-1l0,0c-0.3-0.4-0.6-0.7-0.9-1.1l0,0
	c-0.4-0.6-0.7-1.2-1.1-1.9l0,0C196.1,695.6,195.8,693.6,193,693z"/>
<path class="st8" d="M92.3,755c-1.2-0.8-2.7-1.2-3.4-2.3c-2.5-3.8-4.1-7.9-4.4-12.5c-1-13.2,3.8-24,12.7-33.5
	c10.1-10.7,22.5-17.1,36.8-19.2c11-1.6,22.2-1,31.7,6.4c1.5,1.1,2.7,2.6,4.1,3.9c-7.8,5.4-15.8,10.8-23.5,16.4
	c-14.7,10.7-29.2,21.5-43.8,32.3C98.9,749.2,95.7,752.2,92.3,755z"/>
<path class="st8" d="M164.7,747.4c-3,0.2-4.5,2.7-6.6,4.3c-9.5,7.4-19.8,12.4-32,14.1c-8.9,1.3-17-0.5-25.2-3.4
	c-3.8-1.3-6.6-3.2-8.7-6.5c0.7-0.3,1.6-0.4,2.2-0.9c6.4-4.7,12.8-9.6,19.3-14.2c19-13.8,38-27.5,57-41.3c4.4,3.3,5.2,8.3,5.7,13.2
	c1.1,10.3-1.6,19.7-8.2,27.8c-0.4,0.5-0.4,1.2-0.6,1.8C164.7,742.8,165.2,745.4,164.7,747.4z"/>
<path class="st1" d="M147.5,846c-0.3,0.3-0.6,0.7-0.8,1c-0.6,0.7-1.3,1.4-1.9,2c0,0,0,0,0,0c-0.4,0.6-0.8,1.2-1.1,1.8
	c-1.6,1.6-3.2,3.2-4.8,4.9c-0.6,0.4-1.2,0.8-1.8,1.1c0,0,0,0,0,0c-1,0.9-2,1.8-3,2.8l0,0c-0.6,0.4-1.2,0.7-1.9,1.1c0,0,0,0,0,0
	c-0.3,0.3-0.7,0.7-1,1c-0.6,0.3-1.1,0.6-1.7,1c-0.4,0.3-0.8,0.6-1.3,0.9l0,0c-4.2,2.1-7.9,3.4-10.5,4.1c-6.4,1.8-15.4,4.4-24,0.4
	c-2.4-1.1-4.1-2.5-5.2-3.4c1.5-1.9,3.7-4.7,6.4-8.2c12-15.3,20.1-25.9,25.8-32.6c6.7-8,16.1-19.6,27.5-35.1c1.4,1.3,2.8,2.6,4.2,4
	c0,0,0,0,0,0c0.4,0.6,0.7,1.3,1.1,1.9l0,0c0.3,0.4,0.6,0.7,0.9,1.1c0.1,0.2,0.2,0.4,0.1,0.6c0.1,1.1,0,2.2,0.3,3.2
	c1.6,4.8,2.4,9.6,2.5,14.5c0.1,4.5-0.5,7.7-1.8,13.5c-1.2,5-2.6,9.1-3.8,12c-0.7,1.2-1.5,2.4-2.2,3.6c-0.1,0.3-0.3,0.6-0.4,0.9
	C148.5,844.7,148,845.3,147.5,846z"/>
<path class="st1" d="M206.3,648.4c2.9-3.8,7.4-3.4,11.3-3.7c7.1-0.6,13.9,1,20.5,3.6c1.6,0.6,3.3,1.3,4.9,1.9
	c1.1,0.4,2.2,0.7,3.3,1.1c1.5,1.2,2.8,2.6,4.4,3.6c9,5.5,16,12.8,20.7,22.2c4.4,8.9,7.3,18.1,4.8,28.2c-1.6,6.5-4.5,12.3-10.7,15.8
	c-0.2-0.6-0.2-1.3-0.5-1.8c-6.2-7.6-12.4-15.1-18.6-22.6c-5.1-6.2-10.2-12.3-15.4-18.4C222.9,668.3,214.6,658.3,206.3,648.4z"/>
<path class="st2" d="M485.6,32.4c31.1,0,62.2,0,93.3,0c0.5,0,1,0.1,1.4,0c2.2-0.3,3.2,0.5,3.1,2.9c-0.2,8.3,0.8,6.7-6.5,6.7
	c-30.5,0.1-60.9,0-91.4,0C485.6,38.8,485.6,35.6,485.6,32.4z"/>
<path class="st2" d="M485.6,52.7c31.1,0,62.2,0,93.3,0c0.5,0,1,0.1,1.4,0c2.2-0.3,3.2,0.5,3.1,2.9c-0.2,8.3,0.8,6.7-6.5,6.7
	c-30.4,0.1-60.9,0-91.3,0C485.6,59.2,485.6,55.9,485.6,52.7z"/>
<path class="st2" d="M485.6,93.4c31.1,0,62.2,0,93.3,0c0.5,0,1,0.1,1.4,0c2.2-0.3,3.2,0.5,3.1,2.9c-0.2,8.3,0.8,6.7-6.5,6.7
	c-30.4,0.1-60.9,0-91.3,0C485.6,99.8,485.6,96.6,485.6,93.4z"/>
<path class="st2" d="M485.6,73.1c31.1,0,62.2,0,93.3,0c0.5,0,1,0.1,1.4,0c2.2-0.3,3.2,0.5,3.1,2.9c-0.2,8.3,0.8,6.7-6.5,6.7
	c-30.5,0.1-60.9,0-91.4,0C485.6,79.5,485.6,76.3,485.6,73.1z"/>
<path class="st9" d="M201,706.6c1,1.9,2.3,3.3,4.7,3c0.1,0,0.4,0.7,0.6,1.1c-1.3-0.2-1.6,0.4-1.7,1.6c-0.9,10.2-1.9,20.4-2.7,30.6
	c-0.8,10.2-1.4,20.5-2.2,30.7c-0.3,4-0.7,8-1,12c-0.9,9.9-1.9,19.8-2.7,29.6c-0.5,5.8-0.8,11.5-1.2,17.3c-0.3,4.5-0.6,9-1,13.4
	c-0.8,8.8-1.7,17.5-2.6,26.2c-1.1,0-2.3,0-3.4,0c0.5-7.9,0.8-15.7,1.4-23.6c0.7-9.3,1.8-18.5,2.6-27.8c0.4-4.8,0.7-9.6,1.1-14.4
	c0.7-9.8,1.3-19.5,2.1-29.3c0.8-9.4,1.8-18.8,2.6-28.2c0.4-5,0.7-9.9,1.1-14.9C199.5,724.8,200.2,715.7,201,706.6z"/>
<path class="st9" d="M164.7,747.4c0.5-2,0-4.6,3.1-5c1,8.3,1.9,16.5,3,24.8c1.5,11.1,3.1,22.2,4.5,33.3c0.9,6.7,1.4,13.4,2.2,20.1
	c0.8,6.8,1.8,13.6,2.6,20.5c0.8,6.7,1.5,13.4,2.2,20.1c0.4,3.7,0.8,7.3,1.2,11c-1.4,0-2.8,0-4.1,0c-0.3-4-0.6-8-1-11.9
	c-1.6-13.3-3.2-26.6-4.8-40c-1.6-13.2-3.2-26.3-4.8-39.5C167.4,769.7,166,758.6,164.7,747.4z"/>
<path class="st9" d="M246.3,651.3c-1.1-0.4-2.2-0.7-3.3-1.1c1.8-18.6,3.5-37.2,5.4-55.8c1.1-11.2,2.4-22.4,3.6-33.6
	c0.1-0.8,0-1.6-0.1-2.4c1.4,0,2.8,0,4.2,0c-0.8,7.5-1.7,15-2.4,22.5c-1.6,15.3-3.1,30.7-4.7,46C248.2,635.1,247.2,643.2,246.3,651.3
	z"/>
<path class="st9" d="M153,835.8c0.6-1.9,1.2-3.8,1.8-5.7c4.6,11,8.9,22.9,12.6,35.6c0.6,2.2,1.2,4.3,1.8,6.5c-1.4,0-2.8,0-4.2,0.1
	c-1.3-4.1-2.6-8.2-3.9-12.2c-2.4-7.2-4.5-11.7-6.9-19.8C153.7,838.3,153.3,836.8,153,835.8z"/>
<path class="st10" d="M191,663.8c-0.3,4.6-0.8,9.1-0.8,13.7c0,3.3,0.5,6.6,0.8,9.9C187.4,679.5,186.8,671.7,191,663.8z"/>
<path class="st4" d="M84.5,809.2c-1.9,3.9-3.8,7.8-5.7,11.7c-0.3-4.5,2-8,4.4-11.5C83.4,809.2,84.1,809.3,84.5,809.2z"/>
<path class="st10" d="M193,693c2.8,0.6,3.1,2.6,2.8,4.9C194.9,696.3,193.9,694.6,193,693z"/>
<path class="st4" d="M103,789.9c-1.3,1-2.6,1.9-3.9,2.9C99,790,100.8,789.7,103,789.9z"/>
<path class="st10" d="M191.1,688.1c2.1,0.7,2.1,2.4,1.8,4.2C192.3,690.9,191.7,689.5,191.1,688.1z"/>
<path class="st10" d="M204.5,648.6c0.1,0.6,0.2,1.1,0.3,1.7c-1.1,0-2.1,0-3.2,0C202.6,649.7,203.5,649.1,204.5,648.6z"/>
<path class="st4" d="M88.5,803.5c-0.7,1-1.3,1.9-2,2.9C86.5,804.9,86.1,803.2,88.5,803.5z"/>
<path class="st4" d="M86.5,806.3c-0.7,1-1.3,1.9-2,2.9C84.6,807.8,84.2,806.1,86.5,806.3z"/>
<path class="st10" d="M153.5,794.6c-0.4-0.6-0.7-1.3-1.1-1.9C152.7,793.3,153.1,793.9,153.5,794.6z"/>
<path class="st10" d="M195.8,697.9c0.4,0.6,0.7,1.2,1.1,1.9C196.5,699.1,196.2,698.5,195.8,697.9z"/>
<path class="st10" d="M201.7,650.2c-0.6,0.4-1.3,0.7-1.9,1.1C200.4,650.9,201,650.6,201.7,650.2z"/>
<path class="st10" d="M194.9,656.2c-0.4,0.6-0.7,1.2-1.1,1.9C194.2,657.4,194.6,656.8,194.9,656.2z"/>
<path class="st10" d="M191.9,661.6c-0.3,0.7-0.6,1.5-0.9,2.2C191.3,663.1,191.6,662.4,191.9,661.6z"/>
<path class="st10" d="M154.3,795.6c-0.3-0.4-0.6-0.7-0.9-1.1C153.7,794.9,154,795.3,154.3,795.6z"/>
<path class="st4" d="M90.3,801.4c-0.3,0.3-0.6,0.7-0.9,1C89.7,802.1,90,801.8,90.3,801.4z"/>
<path class="st4" d="M89.4,802.4c-0.3,0.3-0.6,0.7-0.9,1C88.8,803.1,89.1,802.8,89.4,802.4z"/>
<path class="st10" d="M193.9,658c-0.3,0.4-0.6,0.7-0.9,1.1C193.3,658.7,193.6,658.3,193.9,658z"/>
<path class="st10" d="M192.9,659.7c-0.3,0.4-0.6,0.9-0.8,1.3C192.3,660.6,192.6,660.1,192.9,659.7z"/>
<path class="st10" d="M196.9,699.8c0.3,0.4,0.6,0.7,0.9,1.1C197.5,700.5,197.2,700.1,196.9,699.8z"/>
<path class="st10" d="M198.7,701.8c0.3,0.3,0.6,0.7,1,1C199.3,702.5,199,702.1,198.7,701.8z"/>
<path class="st10" d="M199.6,702.8c0.3,0.4,0.6,0.8,1,1.2C200.3,703.6,200,703.2,199.6,702.8z"/>
<path class="st4" d="M106,788c-0.4,0.3-0.7,0.5-1.1,0.8C105.2,788.5,105.6,788.2,106,788z"/>
<path class="st4" d="M104.1,789c-0.4,0.3-0.8,0.6-1.2,0.9C103.4,789.6,103.7,789.3,104.1,789z"/>
<path class="st4" d="M99.1,792.8c-0.3,0.3-0.7,0.6-1,0.9C98.4,793.4,98.8,793.1,99.1,792.8z"/>
<path class="st10" d="M197.8,700.8c0.3,0.3,0.6,0.7,0.9,1C198.4,701.5,198.1,701.1,197.8,700.8z"/>
<path class="st11" d="M923.2,519.5c-0.6,4.8-1.1,9.5-1.7,14.3c-1.8,0.1-3.5,0.2-5.3,0.2c-15.9,0-31.8,0.1-47.8,0.1
	c0-1.3-0.1-2.6,0-3.9c1.5-23.6,3-47.3,4.4-70.9c0.8-11.9,1.4-23.8,2.3-35.7c1.8-22.6,3.8-45.3,5.7-67.9c0.4-4.5,0.9-9,1.3-13.4
	c1.2-0.1,2.4-0.3,3.6-0.3c2.1,0,4.1,0.2,6.2,0.4c1.6,0.1,2.4-0.5,2.3-2.2c-0.1-2.6-0.1-5.2,0-7.7c0.1-2.2-1-2.7-2.9-2.7
	c-2.9,0.1-5.8,0-8.7,0c-0.3-4.2-0.6-8.4-0.9-12.6c6.6,0,13.2,0,19.7,0c6,0,5.2-0.7,5.3,5.5c0,10.4,0,20.9,0,31.3
	c0,3.8,0.1,3.8,4,3.9c3.2,0,6.4,0,9.6,0.1c-0.2,2,1.3,1.7,2.6,1.9c8.5,1.3,14.9,8.7,14.8,17.3c-0.1,4.1-0.5,8.3-0.9,12.4
	c-0.6,6.2-1.2,12.3-2,18.5c-0.8,6-1.9,11.9-2.8,17.8c-1.1,7.5-2,15.1-2.9,22.6c-0.4,2.8-0.7,5.7-1,8.5c-0.4,4-0.3,8-1.1,11.9
	c-1.9,9.7-2.6,19.5-3.8,29.2c-0.8,6.1-2.4,11.9-7.5,16c-1.7,1.4-3.8,2.4-5.7,3.5c-0.3,0.2-0.5,0.4-0.7,0.5c0.3,0.2,0.6,0.5,1,0.5
	C914.6,518.9,918.9,519.2,923.2,519.5z"/>
<path class="st0" d="M868.4,534.1c15.9,0,31.8,0,47.8-0.1c1.8,0,3.5-0.1,5.3-0.2c14.7,0.1,29.3,0.1,44,0.2c2.3,0,4.5-0.1,6.8,0.1
	c6.6,0.3,11.7,5.6,11.8,12.3c0.1,6.5-5,12-11.9,12.1c-12.9,0.1-25.8,0-38.7,0c-0.3,0-1.4,0.3-2.9,0.4c-1.7,0.2-2.8,0.1-5,0.1
	c-2.3,0-2.1,0-4.7,0c-4.6,0-8.4-0.2-9.4-0.3c-7-0.3-18.2-0.2-42.3-0.3c-10.8,0-6.9,0-15,0c-34.8,0-69.6,0-104.4-0.1
	c0.5-0.7,0.9-1.5,1.6-2.1c1.5-1.2,2.6-2.6,3.3-4.1c2-4.2,0.8-9,0.7-9.3c-0.4-1.3-1.1-3-2.7-4.3c-2.2-1.7-4.5-1.2-6.6-3.5
	c-0.6-0.7-1-1.3-1.2-1.8c5.2,0.3,10.5,0.7,15.7,0.8c8,0.1,16,0.4,23.9-1c1.7,0.3,3.3,0.7,5,1C816,534.1,842.2,534.1,868.4,534.1z"/>
<path class="st12" d="M923.2,519.5c-4.3-0.3-8.6-0.6-12.9-0.9c-0.3,0-0.6-0.3-1-0.5c0.2-0.2,0.5-0.4,0.7-0.5
	c1.9-1.2,3.9-2.1,5.7-3.5c5.1-4.1,6.7-9.9,7.5-16c1.2-9.7,1.9-19.6,3.8-29.2c0.8-3.9,0.7-7.9,1.1-11.9c0.3-2.8,0.6-5.7,1-8.5
	c1-7.5,1.8-15.1,2.9-22.6c0.8-6,2-11.9,2.8-17.8c0.8-6.1,1.4-12.3,2-18.5c0.4-4.1,0.9-8.2,0.9-12.4c0.1-8.6-6.2-16-14.8-17.3
	c-1.3-0.2-2.7,0.1-2.6-1.9c1.9,0,3.8,0,5.7,0c1.8,1.8,4,0.6,6.1,0.7c1.3,0,2.6,0.3,3.9,0.1c9.1-1.2,20.5,9.3,19.2,19.5
	c-0.9,7-1.5,14-2.3,20.9c-0.5,4.1-1,8.2-1.6,12.3c-0.9,6.6-1.9,13.2-2.7,19.9c-0.9,7.5-1.5,14.9-2.3,22.4c-0.2,0.2-0.6,0.4-0.6,0.6
	c-0.4,5.2-0.8,10.4-1.2,15.6c-0.6,2.4-1.4,4.8-1.7,7.3c-0.8,6.5-1.4,13-2.2,19.5c-0.3,2.7-0.6,5.4-1.3,8c-2,7.6-6.6,12.6-14.6,13.9
	C924.2,518.8,923.7,519.2,923.2,519.5z"/>
<path class="st11" d="M932.3,358.6c-2-0.1-4.2,1.1-6.1-0.7c0-39.7,0-79.4,0-119.2c1.9-2.1,0.5-4.5,0.9-6.8c-0.3-1.5-0.9-3.1-0.9-4.6
	c0-37.8,0-75.7,0-113.5c1.9,0,3.9,0,5.8-0.1c0.3,14.9,0.6,29.9,0.9,44.8c0.1,3.9,0.3,7.8-0.1,11.6c-0.4,4.9,0.1,9.8,0,14.7
	c-0.3,29.8-0.6,59.6-0.8,89.3c0,2.9,0.7,5.7,0.7,8.6c0,3.5-0.7,7-0.7,10.5c-0.1,21.3,0,42.6,0,63.9
	C932.1,357.6,932.2,358.1,932.3,358.6z"/>
<path class="st3" d="M944.5,470c0.4-5.2,0.8-10.4,1.2-15.6c0-0.2,0.4-0.4,0.6-0.6c0.8,0,1.6,0.1,2.4,0c2.2-0.3,2.7,0.9,2.7,2.9
	c-0.1,3.5-0.2,7.1,0,10.6c0.1,2.4-0.9,3.2-3.1,2.9C947.1,470,945.8,470,944.5,470z"/>
<path class="st3" d="M932.9,41.9c-2.2,0-4.4,0-6.6,0.1c0-3.2,0-6.4,0-9.6c2.2,0,4.4,0,6.6,0.1C932.9,35.6,932.9,38.8,932.9,41.9z"/>
<path class="st3" d="M926.3,52.8c2.2,0,4.4,0,6.6,0.1c-0.3,3.2-0.6,6.4-0.9,9.6c-1.9,0-3.8,0-5.8-0.1
	C926.3,59.1,926.3,55.9,926.3,52.8z"/>
<path class="st3" d="M926.3,73.1c1.9,0,3.9,0,5.8,0c1.2,3.2-0.4,6.5-0.1,9.7c-1.9,0-3.8,0-5.7-0.1C926.3,79.5,926.3,76.3,926.3,73.1
	z"/>
<path class="st3" d="M932.1,103.1c-1.9,0-3.9,0-5.8,0c0-3.2,0-6.4,0-9.6c2.2,0,4.4,0,6.6,0.1C932.6,96.7,932.3,99.9,932.1,103.1z"/>
<path class="st6" d="M683.8,231.9c-3.7,0-6.4-0.1-8.3-0.1c-1.2,0-3-0.1-5.3,0c-1.5,0-2.6,0.1-2.9,0.1c-23.9,0-47.8,0-71.6,0
	c-0.8,0-1.6,0-2.4,0c-1.4,0.1-2.1-0.6-2-2c0-1.1,0-2.3,0-3.4c0-35.8,0-71.6,0-107.5c0-6.1-0.7-5.3,5.5-5.3c33.4,0,66.8,0,100.2,0
	c1.9,0,3.7,0.6,5.6,0.9c-1.2,1-2.4,2.1-3.7,3.1c-10.3,7.8-15,18.2-14.6,31c0.2,7.6,1.5,15,3.4,22.3c-0.2,9.5-0.4,19-0.6,28.5
	c-0.1,2.1-0.3,4.2-0.5,6.2C685.5,214.5,684.6,223.2,683.8,231.9z"/>
<path class="st6" d="M926.3,113.8c0,37.8,0,75.7,0,113.5c0,1.5,0.6,3.1,0.9,4.6c-27.7,0-55.5,0-83.2,0c-1.3,0-2.6,0-3.9,0
	c-1.4,0-2-0.7-2-2c0-1,0-1.9,0-2.9c0-35.8,0-71.6,0-107.4c0-1,0-1.9,0-2.9c0-2,1.1-2.9,3-2.9c0.3,0,0.6,0,1,0c10.8,0,21.6,0,32.4,0
	c3.2,0,3.2,0.1,3.3,3.2c0,0.8-0.1,1.6,0,2.4c0.4,3.1-0.5,5.5-3,7.6c-3.3,2.9-2.3,6.8-1.1,10.2c1.3,3.8,4.9,5.9,8.6,5.6
	c4.3-0.4,6.9-3.3,8.5-6.9c1.4-3.2,0.7-6.6-2.1-8.7c-4.4-3.3-3-7.7-3-11.9c0-0.5,1.2-1.4,1.9-1.5c2.7-0.2,5.5-0.1,8.2-0.1
	C906,113.8,916.1,113.8,926.3,113.8z"/>
<path class="st6" d="M881.8,317.1c-2-12.1-7.6-22.1-17.5-29.5c-6.5-4.9-13.7-8.4-21.3-11.1c-1.7-0.6-3.3-1.3-4.9-1.9
	c0-10.7,0-21.3,0-32c0-3.9,0-4,3.9-4c28.1,0,56.2,0,84.2,0c0,39.7,0,79.4,0,119.2c-1.9,0-3.8,0-5.7,0c-3.2,0-6.4,0-9.6-0.1
	c-3.9,0-4,0-4-3.9c0-10.4,0-20.9,0-31.3c0-6.1,0.8-5.5-5.3-5.5C895,317.1,888.4,317.1,881.8,317.1z"/>
<path class="st3" d="M584.2,413.9c-3.2,8.6-6.4,17.1-9.4,25.7c-0.6,1.8-1.7,2.3-3.4,2.7c-12.9,2.8-25.7,5.7-38.5,8.5
	c-5.6,1.2-11.3,2.4-17,3.5c-0.1-1.6-0.3-3.2-0.3-4.8c0-19,0-38.1,0-57.1c0-5.1-0.4-4.6,4.7-4.6c17.7,0,35.5,0,53.2,0
	c5.5,0,5,0.6,5-4.8c0-35.3,0-70.6,0-105.9c0-0.8,0-1.6,0-2.4c0.1-5.4-0.6-5,4.8-5c0,46.4,0,92.9,0,139.3
	C583.4,410.6,583.9,412.3,584.2,413.9z"/>
<path class="st6" d="M795.6,201.9c0.8-3.6,1.7-7.2,2.2-10.8c0.8-5.6,0.2-10.8-6-13.2c-1.6-0.7-1-1.7-0.8-2.7c1-3.9,2-7.8,2.8-11.7
	c1.4-6.9,1.3-13.8-0.3-20.6c-1.3-5.7-4.1-10.4-9.1-13.8c-1.2-0.8-2.5-1.8-3.1-3c-1.9-4.4-5.1-7.7-8.3-11.1c0.9-0.4,1.9-1.1,2.8-1.1
	c17.1-0.1,34.2-0.1,51.3,0c3.5,0,3.9,0.5,4,3.8c0.1,3.2,0,6.5,0,9.7c0,32.8,0,65.5,0,98.3c0,1.1,0,2.3,0,3.4c0,2-1,3-3,3
	c-2.6,0-5.2,0-7.7-0.1c0-8.8,0.1-17.6,0-26.5c0-3.4-0.1-3.5-3.4-3.5C810,201.8,802.8,201.9,795.6,201.9z"/>
<path class="st3" d="M689.1,268.5c0.8,1.1,2.9,1.8,1.4,3.8c-10.9,1.2-21.6,3.5-32.2,6.1c-16.1,3.8-26.2,14.4-33.1,28.7
	c-3.1,6.5-5.3,13.4-7.9,20.2c-1.7,4.5-9,23.8-23.7,62.2c-0.3,0.8-1.1,2.9-1.4,3.7c-0.1-0.4-0.2-1.1-0.3-2c0,0-0.7-4.3-0.7-8.7
	c-0.1-4-0.1-49.9,0-112.7c13.1-0.3,23.3-0.6,32.3-0.9c9.3-0.3,12.5-0.1,17.9,0c4.1,0.1,8.3,0.7,12.4,0.9c3.1,0.1,6.2,0.4,9.2-0.1
	c8-1.3,15.9-1.3,23.8,0C687.5,269.6,688.3,268.8,689.1,268.5z"/>
<path class="st6" d="M689.1,268.5c-0.8,0.4-1.6,1.1-2.3,1c-8-1.3-15.9-1.2-23.8,0c-3,0.5-6.1,0.2-9.2,0.1c-4.1-0.2-8.3-0.8-12.4-0.9
	c-6-0.2-11.9-0.1-17.9,0c-3.3,0.1-5.2,0.6-7.1,0.8c-5.7,0.7-14,1.3-25.3,0.1c0-9.2,0-18.4,0-27.6c0-3.3,0.1-3.4,3.5-3.4
	c24.5,0,49-0.1,73.5,0c0.6,0,2.2,0,4.6,0c2.9,0.1,4.1,0.1,6.6,0.1c1.7,0,3.1,0,3.9-0.1c0,0.9,0,1.8,0,2.8c0.1,2.6,0.1,5.1,0.2,7.7
	c0.1,0.6,0.2,1.3,0.3,1.9C684.4,257.3,686.2,263,689.1,268.5z"/>
<path class="st2" d="M711.2,52.7c38.1,0,76.1,0,114.2,0c1,0,1.9,0.1,2.9,0c2.2-0.2,3.2,0.5,3.1,2.9c-0.2,8.3,0.9,6.7-6.5,6.8
	c-76,0-151.9,0-227.9,0c-1,0-1.9,0-2.9,0c-3.5-0.1-3.6-0.2-3.1-3.8c0.3-1.9-0.2-4.7,0.9-5.4c1.5-1,4-0.5,6.1-0.5
	C635.7,52.7,673.4,52.7,711.2,52.7z"/>
<path class="st2" d="M711.7,32.4c38.1,0,76.2,0,114.2,0c6,0,5.3-0.8,5.4,5.4c0,0.6,0,1.3,0,1.9c0.1,1.6-0.6,2.4-2.2,2.3
	c-1.1-0.1-2.3,0-3.4,0c-76.3,0-152.7,0-229,0c-6.3,0-5.5,1-5.6-5.7c0-3.9,0-4,4.4-4C634.2,32.4,673,32.4,711.7,32.4z"/>
<path class="st2" d="M711.2,93.4c38.2,0,76.5,0,114.7,0c6,0,5.3-0.8,5.4,5.4c0,0.6,0,1.3,0,1.9c0.1,1.6-0.5,2.4-2.2,2.3
	c-1.1-0.1-2.3,0-3.4,0c-76.3,0-152.7,0-229,0c-0.6,0-1.3,0-1.9,0c-3.6-0.1-3.7-0.1-3.7-3.7c0-7-0.8-5.9,5.8-5.9
	C635,93.4,673.1,93.4,711.2,93.4z"/>
<path class="st2" d="M711,82.7c-37.9,0-75.8,0-113.8,0c-1,0-1.9,0-2.9,0c-3.1-0.1-3.2-0.1-3.2-3.3c0.1-7.7-0.9-6.4,6.3-6.4
	c75.7,0,151.4,0,227.1,0c7,0,6.9-0.6,6.8,7.4c0,1.6-0.5,2.4-2.2,2.3c-1.3-0.1-2.6,0-3.9,0C787.1,82.7,749.1,82.7,711,82.7z"/>
<path class="st3" d="M778,240.6c-0.1-0.6-0.2-1.1-0.4-1.7c14.3-0.1,28.6-0.1,42.9-0.2c0,10.3,0,20.7,0,31c-6.7-1.4-13.4-2.9-20-4.3
	c-2.3-0.5-4.7-0.9-7-1.3c-2-1-4.2-2.3-6.6-4c-2.3-1.6-4.2-3.3-5.8-4.8c0.2-0.5,0.5-1.4,1.3-1.9c1-0.6,2.1-0.2,2.6-0.2
	c6.1,0,12.2-0.1,18.3,0c2,0,3-0.5,2.8-2.7c-0.1-1.8,0-3.5,0-5.3c-0.1-3.6-0.1-3.6-3.7-3.7C794.3,241.3,786.1,242.4,778,240.6z"/>
<path class="st3" d="M795.6,201.9c7.2,0,14.4,0,21.7,0c3.3,0,3.4,0.1,3.4,3.5c0,8.8,0,17.6,0,26.5c-14.6,0.2-29.3,0.3-43.9-1.1
	c0.1-0.9,0.2-1.8,0.3-2.7c2.7-0.3,5.3-0.9,8-0.9c5.3-0.1,10.6,0,16-0.1c5.3,0,5.9-0.5,6.1-6c0-1,0-1.9,0-2.9
	c-0.1-3.2-0.5-3.6-3.6-3.7c-3.4-0.1-6.8,0.1-10.2-0.1c-1.5-0.1-3.1-0.6-4.6-0.9C791,209.6,793.3,205.7,795.6,201.9z"/>
<path class="st6" d="M926.3,52.8c0,3.2,0,6.4,0,9.6c-12.7,0-25.4,0.1-38.1,0c-3.4,0-3.5-0.1-3.5-3.4c0-7.5-0.8-6.2,5.9-6.3
	C902.4,52.7,914.4,52.7,926.3,52.8z"/>
<path class="st2" d="M926.3,93.4c0,3.2,0,6.4,0,9.6c-12.2,0-24.4,0-36.6,0c-1,0-2,0.2-2.9-0.1c-1.3-0.3-2.4-1-1.8-2.7
	c0.3-0.9,0.6-1.8,0.5-2.8c0-1.2-0.4-2.4-0.6-3.7c1.6-0.2,3.1-0.5,4.7-0.5C901.8,93.4,914.1,93.4,926.3,93.4z"/>
<path class="st6" d="M926.3,32.4c0,3.2,0,6.4,0,9.6c-12.4,0-24.8,0-37.2,0c-3.4,0-3.5-0.1-3.5-3.4c0-7.5-0.8-6.2,5.9-6.3
	C903.1,32.3,914.7,32.4,926.3,32.4z"/>
<path class="st6" d="M926.3,73.1c0,3.2,0,6.4,0,9.6c-12.4,0-24.8,0.1-37.2,0c-3.5,0-3.5-0.1-3.5-3.4c0-7.5-0.8-6.2,5.9-6.3
	C903.1,73,914.7,73.1,926.3,73.1z"/>
<path class="st2" d="M858.1,103.1c-5.6,0-11.2-0.1-16.9,0c-2.1,0-3.2-0.4-3.2-2.9c0.2-8.4-0.8-6.7,6.4-6.8c10-0.1,19.9,0,29.9,0
	c3.3,0,3.3,0.1,3.5,3.4c0,0.2,0,0.3,0,0.5c0.1,1.7,0.8,4.4,0.1,4.7c-1.7,0.9-3.9,1-5.9,1C867.4,103.2,862.7,103.1,858.1,103.1z"/>
<path class="st2" d="M857.9,42c-5.6,0-11.3-0.1-16.9,0c-2,0-2.8-0.5-2.9-2.7c-0.3-7-0.4-7,6.7-7c9.7,0,19.3,0,29,0c4,0,4.1,0,4,3.8
	c0,6.9,0.8,5.7-5.9,5.8C867.2,42.1,862.5,42,857.9,42z"/>
<path class="st6" d="M857.4,82.7c-5.5,0-11-0.1-16.4,0c-2.4,0.1-3-0.8-3-3.1c0.2-8.1-0.9-6.5,6.6-6.6c9.8-0.1,19.7,0,29.5,0
	c3.6,0,3.7,0.1,3.6,3.8c0,6.9,0.8,5.8-5.8,5.9C867.1,82.8,862.3,82.7,857.4,82.7z"/>
<path class="st6" d="M858.4,52.7c5.5,0,11,0.1,16.4,0c2.4-0.1,3,0.8,3,3.1c-0.2,8.1,0.9,6.5-6.6,6.6c-9.8,0.1-19.7,0-29.5,0
	c-3.6,0-3.7-0.1-3.6-3.3c0.1-7.7-0.9-6.3,6.3-6.4C849.1,52.6,853.8,52.7,858.4,52.7z"/>
<path class="st6" d="M820.6,269.8c0-10.3,0-20.7,0-31c2.3,0,4.5-0.1,6.8,0c3.4,0.1,3.9,0.5,3.9,3.9c0.1,7.3,0,14.5,0,21.8
	c0,2.7,0,5.5,0,8.2C827.7,271.7,824.2,270.7,820.6,269.8z"/>
<path class="st10" d="M147.5,846c0.5-0.6,1-1.3,1.5-1.9C148.5,844.7,148,845.3,147.5,846z"/>
<path class="st10" d="M137,856.9c0.6-0.4,1.2-0.8,1.8-1.1C138.2,856.1,137.6,856.5,137,856.9z"/>
<path class="st10" d="M132.1,860.7c0.6-0.4,1.2-0.7,1.9-1.1C133.4,860,132.7,860.3,132.1,860.7z"/>
<path class="st10" d="M143.6,850.9c0.4-0.6,0.8-1.2,1.1-1.8C144.4,849.6,144,850.3,143.6,850.9z"/>
<path class="st10" d="M131.1,861.7c0.3-0.3,0.7-0.7,1-1C131.8,861,131.4,861.3,131.1,861.7z"/>
<path class="st10" d="M128.2,863.5c0.4-0.3,0.8-0.6,1.3-0.9C129,862.9,128.6,863.2,128.2,863.5z"/>
<path class="st13" d="M717.2,657.3c-0.4-3.3-0.8-6.7-1-10c-0.4-5.1-0.6-10.2-1.1-15.3c-0.4-3.8-1.2-7.5-1.6-11.3
	c-0.5-3.5-0.8-7-1.1-10.5c-0.4-4.3-0.6-8.6-1.1-12.9c-0.5-5.2-1.2-10.4-1.8-15.6c-0.4-3.3-0.7-6.7-1-10c-0.1-0.9-0.2-1.9-0.2-2.8
	c-0.3-3.2-0.6-6.5-0.8-9.7c-1.5-1.7-3.6-0.8-5.3-0.8c-69.3-0.1-138.6,0-207.9,0c-1.6,0-3.2,0.1-4.8,0.1c-0.6,1.1-1,2.3-1.8,3.2
	c-7.9,8-13.3,17.6-17.3,27.9c-4.6,12.1-8.1,24.6-12,37c-3.6,11.4-7.3,22.9-10.9,34.4c-1.2,3.8-2.3,7.6-3.6,11.3
	c-0.2,0.7-1.3,1-2,1.5c0.7,2.3,0,4.4-0.7,6.5c-18.9,60.5-37.7,121-56.5,181.4c-15,47.9-30,95.7-45,143.6c-0.9,2.7-1.5,5.5-2.3,8.3
	c2.8,1,5.6,1.9,8.4,2.9c13.7,3.7,27.4,7.5,41,11.2c6.7,1.8,13.4,3.5,20.1,5.4c1.6,0.5,3.2,1.2,4.8,1.9c0.3,0,0.6,0,1,0
	c2,0.3,4.3,1.4,5.8,0.8c1.3-0.6,1.7-3.2,2.5-4.9c0.8-1.7,1.7-3.4,2.6-5.1c0.7-2.8,2.4-5.7,4.5-7.3c0.8-2.8,1.3-5.7,2.4-8.3
	c15.3-35.2,30.6-70.4,45.9-105.7c1.7-4,3.6-7.9,5.4-11.8c2-4.2,3.9-8.4,5.9-12.7c2.6-6.5,5.2-13,8-19.5c3.1-7.4,6.2-14.7,9.5-22
	c0.6-1.4,1.7-2.5,2.6-3.8c-0.1-4.7,2.7-8.4,4.4-12.5c3.9-9.7,8.2-19.3,12.4-28.9c2.7-6.1,5.5-12.2,8.2-18.3c4.1-9.3,8-18.7,12-28
	c3.5-8.2,7.2-16.3,10.7-24.5c3.6-8.3,7-16.7,10.7-25c0.8-1.7,0.8-4.3,3.6-4.5c0.1-1.3-0.2-2.7,0.2-3.8c2-4.8,4.1-9.4,6.3-14.1
	c0.4-0.8,1.6-1.3,2.5-1.6c0.7-0.3,1.6-0.1,2.4-0.1c45.9,0,91.9,0,137.8,0C718.4,668,717.7,662.7,717.2,657.3z"/>
<path class="st14" d="M556.6,1065.5c-5.6-8.5-4.7-19.4,3.7-27c3.6-3.2,7.6-5.9,11.6-8.6c8-5.3,12.8-12.8,16.1-21.6
	c0.5-1.3,0.4-2.8,0.6-4.2c5.3-2.5,10.6-5,15.9-7.5c14.4-6.6,28.8-13.2,43.2-19.7c1.4-0.6,3-0.8,4.5-1.3c0.8,1.5,1.6,2.9,2.4,4.4
	c4.8,9.6,9.7,19.2,14.5,28.9c2.2,4.4,2,4.7-2.5,6.9c-16,8-32,15.9-47.9,23.8c-1.1,0.6-2.2,1.2-3.4,1.9c-1.3,0.7-2.6,1.3-3.9,2
	c-0.5,0-1-0.2-1.4,0c-14.3,7-28.6,14-42.9,21c-0.5,0.2-0.9,0.7-1.3,1.1l0,0c-0.6,0.4-1.2,0.7-1.8,1.1c-2.2,0-4.4,0-6.6,0
	C557.2,1066.4,556.9,1066,556.6,1065.5z"/>
<path class="st14" d="M345.7,1016.4c13.7,3.7,27.4,7.5,41,11.2c6.7,1.8,13.4,3.5,20.1,5.4c1.6,0.5,3.2,1.2,4.8,1.9
	c0,6.9,0,13.7,0,20.6c0,3.8,0.2,7.6,0.3,11.4c-42.2,0-84.3,0-126.5,0c-0.1-1.8-0.3-3.5-0.2-5.3c0.1-6.6,2.8-11.9,8.2-15.6
	c4.7-3.3,10-5,15.8-5.3c14.5-0.7,25.9-7.1,34-19C344.3,1020,344.9,1018.2,345.7,1016.4z"/>
<path class="st15" d="M894.3,700.7c0.3,1.1,0.8,2.1,0.9,3.2c0.4,5.4,0.6,10.9,1.1,16.3c0.8,7.8,1.8,15.5,2.7,23.3
	c0.4,3.5,0.7,7,1,10.5c0.7,8.1,1.2,16.3,2,24.4c0.8,7.8,1.8,15.5,2.7,23.3c0.4,3.7,0.7,7.3,1,11c0.7,8.1,1.3,16.3,2,24.4
	c0.9,9.9,1.9,19.7,2.9,29.5c1,9.5,1.9,19.1,2.9,28.6c0.8,7.8,1.9,15.5,2.8,23.3c0.5,4.8,0.6,9.6,1.1,14.4c0.4,4.3,1.1,8.5,1.7,12.8
	c0.4,3.5,0.8,7,1.1,10.5c0.4,4.5,0.6,8.9,1.1,13.4c0.5,5.1,1.2,10.1,1.8,15.2c0.4,3.7,0.8,7.3,1.1,11c0.4,4.8,0.6,9.6,1.1,14.4
	c0.8,7.4,1.8,14.9,2.7,22.3c0.4,3.5,0.7,7,1,10.5c0.7,8,1.4,15.9,2.1,23.9c-1.4,0-2.8,0-4.2,0.1c-0.3-5.1-0.5-10.2-1-15.3
	c-0.5-5.4-1.2-10.8-1.8-16.2c-0.6-4.9-1.2-9.8-1.8-14.7c-0.4-3.7-0.8-7.3-1.1-11c-0.4-4.8-0.6-9.6-1.1-14.4
	c-0.8-7.4-1.8-14.9-2.7-22.3c-0.4-3.5-0.8-7-1-10.5c-0.7-8.4-1.2-16.9-2.1-25.3c-0.7-7.1-1.8-14.2-2.7-21.3
	c-0.5-3.8-0.7-7.6-1.1-11.5c-0.7-8.1-1.2-16.3-2.1-24.4c-0.8-7.8-1.8-15.5-2.7-23.3c-0.4-3.5-0.7-7-1-10.5c-0.7-8.1-1.2-16.3-2-24.4
	c-0.8-7.8-1.8-15.5-2.7-23.3c-0.4-3.5-0.7-7-1-10.5c-0.7-8.1-1.2-16.3-2.1-24.4c-0.8-7.8-1.9-15.5-2.7-23.3
	c-0.4-3.8-0.7-7.6-1.1-11.5c-0.7-7.8-1.3-15.6-2-23.4c-0.1-1.6-0.5-3.1-0.8-4.7C891.8,700.7,893,700.7,894.3,700.7z"/>
<path class="st15" d="M783.7,1066.6c-0.5-5.9-1-11.8-1.5-17.6c-0.3-3.7-0.9-7.3-1.2-10.9c-0.4-4.8-0.6-9.6-1.1-14.4
	c-0.8-7.9-1.8-15.8-2.7-23.7c-0.4-3.5-0.7-7-1-10.5c-0.7-8.1-1.2-16.3-2.1-24.4c-0.8-7.8-1.9-15.5-2.7-23.3
	c-0.4-3.8-0.7-7.6-1.1-11.5c-0.7-7.8-1.2-15.6-2-23.4c-0.8-7.3-1.9-14.5-2.7-21.8c-0.5-4.9-0.6-9.9-1.1-14.8
	c-0.4-4.4-1.1-8.8-1.7-13.3c-0.4-3.5-0.8-7-1.1-10.5c-0.4-4.6-0.6-9.3-1.1-13.9c-0.4-4.4-1.1-8.8-1.6-13.3
	c-0.4-3.8-0.9-7.6-1.2-11.4c-0.7-8.4-1.2-16.9-2.1-25.3c-0.7-7.4-1.9-14.9-2.7-22.3c-0.5-4.6-0.7-9.3-1.1-13.9
	c-0.5-5.2-1.2-10.4-1.8-15.7c-0.4-3.2-0.8-6.3-1-9.5c-0.4-5.1-0.7-10.2-1.1-15.3c-0.1-1.7-0.6-3.4-0.9-5.2c1.3-0.4,2.7-2.2,3.9,0.1
	c0.6,4.9,1.2,9.8,1.8,14.7c0.4,4,0.7,8,1,11.9c0.4,4.8,0.6,9.6,1.1,14.4c0.4,4.1,1.2,8.2,1.7,12.3c0.4,3.5,0.8,7,1,10.5
	c0.7,8.1,1.2,16.3,2,24.4c0.8,7.8,1.8,15.5,2.7,23.3c0.4,3.3,0.7,6.7,1,10c0.4,4.6,0.6,9.3,1.1,13.9c0.5,4.6,1.2,9.1,1.7,13.7
	c0.4,3.5,0.8,7,1,10.5c0.4,4.8,0.6,9.6,1.1,14.4c0.8,7.9,1.8,15.8,2.7,23.7c0.4,3.5,0.7,7,1,10.5c0.7,7.8,1.2,15.6,2,23.4
	c0.8,7.4,1.9,14.9,2.7,22.3c0.5,4,0.8,8,1.1,11.9c0.4,4.8,0.6,9.6,1.1,14.4c0.8,7.4,1.9,14.9,2.7,22.3c0.5,4.1,0.7,8.3,1.1,12.4
	c0.7,8.1,1.2,16.3,2,24.4c0.9,8.9,2,17.8,3,26.6C786.5,1066.6,785.1,1066.6,783.7,1066.6z"/>
<path class="st15" d="M466,1066.4c0.7-9.2,1.4-18.5,2.2-27.7c0.6-6.7,1.2-13.3,1.9-20c0.9-7.7,1.9-15.5,2.8-23.2
	c0.5-4.8,0.6-9.6,1.1-14.3c0.8-7.9,1.8-15.8,2.7-23.7c0.4-3.5,0.7-7,1-10.5c0.7-8.1,1.3-16.2,2-24.3c0.6-6.8,1.3-13.7,1.9-20.5
	c0.3-2.5,0.7-5,0.9-7.6c0-0.6-0.5-1.3-0.8-2c2-4.2,3.9-8.4,5.9-12.7c0.2,0.7,0.8,1.4,0.7,2.1c-0.8,6.9-1.8,13.9-2.6,20.8
	c-0.4,3.6-0.8,7.3-1.1,10.9c-0.7,7.8-1.3,15.6-2,23.4c-0.9,9.5-1.9,19-2.9,28.5c-0.8,7.4-1.9,14.8-2.7,22.3
	c-0.5,4.8-0.6,9.6-1.1,14.3c-0.5,4.7-1.2,9.5-1.8,14.2c-0.4,4-0.7,7.9-1.1,11.9c-0.4,4.8-0.6,9.6-1.1,14.3
	c-0.5,4.9-1.3,9.8-1.7,14.7c-0.3,3,0,6.1,0,9.2C468.8,1066.5,467.4,1066.5,466,1066.4z"/>
<path class="st3" d="M608.4,1066.6c0.4-1.4,0.9-2.7,1-4.1c0.4-4.9,0.7-9.8,1.1-14.7c0.1-1.4,0.6-2.8,0.9-4.1c1.3-0.7,2.6-1.3,3.9-2
	c-0.6,5.5-1.3,10.9-1.8,16.4c-0.2,2.8,0,5.7,0,8.6C611.8,1066.6,610.1,1066.6,608.4,1066.6z"/>
<path class="st16" d="M564,1066.9c0.6-0.4,1.2-0.7,1.8-1.1C565.2,1066.1,564.6,1066.5,564,1066.9z"/>
<path class="st15" d="M556.6,1065.5c0.3,0.5,0.6,0.9,0.9,1.4c-0.4-0.1-0.9-0.1-1.3-0.2C556.3,1066.3,556.4,1065.9,556.6,1065.5z"/>
<path class="st9" d="M218.2,812.1c-1.8,7.1-3.6,14.2-5.3,21.3c-3.1,12.9-6,25.8-9.1,38.7c-1.4,0-2.7,0-4.1,0c2-8.5,3.9-17,5.9-25.5
	c2.9-12.2,5.9-24.5,8.9-36.7c0.1-0.6,0.5-1.2,0.8-1.8C216.9,809,218.2,810.1,218.2,812.1z"/>
<path class="st9" d="M220.7,872.2c1.5-15.7,2.9-31.4,4.4-47.1c0.1-1.4,0.5-2.9,0.7-4.3c1.1,1,2.1,2,3.2,3
	c-1.6,16.1-3.2,32.2-4.9,48.3C223.1,872.2,221.9,872.2,220.7,872.2z"/>
<path class="st13" d="M870.8,582.4c-0.1-6.6-1-13.1-1.5-19.7c-0.1-1.4-0.1-2.9-0.1-4.3c-5,0-10,0-15,0c-34.8,0-69.6,0-104.4-0.1
	c-11.4,0-22.9,0-34.3,0.1c-1.5,0-2.9,0.6-4.4,0.9c0,0,0,0.1,0,0.1c0.3,2.8,0.7,5.6,1,8.4c0.6,5.4,1.3,10.7,1.8,16.1
	c0.5,4.6,0.6,9.2,1.1,13.8c0.5,4.9,1.2,9.8,1.8,14.6c0.4,3.3,0.8,6.6,1.1,10c0.4,4.6,0.3,9.3,1.1,13.8c1.5,7.7,0.5,15.5,2.6,23.2
	c1.2,4.5,0.9,9.5,1.2,14.3c12,0,23.9,0,35.9,0c9.6-0.2,19.2-0.4,28.8-0.8c7.5-0.3,15-0.7,22.5-1.1c7-2.3,14.2-4.1,21-6.8
	c19.8-7.8,31.6-22.5,35.9-43.3C869.6,608.7,871.1,595.6,870.8,582.4z"/>
<path class="st17" d="M489.4,558.4c-0.6,1.1-1,2.3-1.8,3.2c-7.9,8-13.3,17.6-17.3,27.9c-4.6,12.1-8.1,24.6-12,37
	c-3.6,11.4-7.3,22.9-10.9,34.4c-1.2,3.8-2.3,7.6-3.6,11.3c-0.2,0.7-1.3,1-2,1.5c-6.7-15-14.2-29.6-18.8-45.4
	c-3-10.1-4.3-20.4-2.7-31.1c2.5-16.7,10.9-29.4,25.5-37.8c1.5-0.3,3-0.9,4.6-0.9C463.4,558.4,476.4,558.4,489.4,558.4z"/>
<path class="st18" d="M238.7,727.9c-0.1,1.6-0.1,3.2-0.2,4.7c-1.2,0.3-2.5,0.6-3.7,0.9c0-1.9,0-3.8,0-5.7
	C236.1,727.9,237.4,727.9,238.7,727.9z"/>
<path class="st4" d="M262.7,723.9c-0.1,3.2-2.5,1.6-4,1.9C260.1,725.2,261.4,724.5,262.7,723.9z"/>
<path class="st10" d="M207.4,711.5c-0.3-0.3-0.7-0.6-1-0.9C206.8,710.9,207.1,711.2,207.4,711.5z"/>
<path class="st10" d="M208.4,712.6c-0.3-0.4-0.7-0.7-1-1.1C207.7,711.9,208.1,712.2,208.4,712.6z"/>
<path class="st4" d="M265.7,722c-0.4,0.3-0.8,0.6-1.2,0.8c0.1-0.3,0.1-0.6,0.3-0.9C265,722,265.3,722,265.7,722z"/>
<path class="st6" d="M882.2,342.3c0.2-4.2,0.3-8.4,0.5-12.5c2.9,0,5.8,0.1,8.7,0c1.9-0.1,3,0.4,2.9,2.7c-0.1,2.6-0.1,5.2,0,7.7
	c0.1,1.7-0.7,2.3-2.3,2.2c-2.1-0.1-4.1-0.3-6.2-0.4C884.6,341.9,883.4,342.2,882.2,342.3z"/>
<path class="st11" d="M810,671.7c7-2.3,14.2-4.1,21-6.8c19.8-7.8,31.6-22.5,35.9-43.3c2.7-12.9,4.2-26,3.9-39.2
	c-0.1-6.6-1-13.1-1.5-19.7c-0.1-1.4-0.1-2.9-0.1-4.3c14.4,0,28.8,0,43.2,0.1c1.7,0,3.5,0.2,5.2,0.3c-1,7.6-2,15.1-2.9,22.7
	c-0.4,3.3-0.7,6.7-1.1,10c-0.9,6.6-1.8,13.2-2.7,19.8c-0.4,3-0.7,6-1.1,9c-0.9,7.2-2,14.5-2.8,21.7c-0.8,6.2-1.3,12.4-2.1,18.5
	c-0.6,5-1.4,10.1-2.2,15.1c-4.9-3-10.2-3.1-15.7-3.1c-24.2,0.1-48.4,0.1-72.5,0C813,672.6,811.5,672,810,671.7z"/>
<path class="st6" d="M788.7,213.5c1.5,0.3,3.1,0.9,4.6,0.9c3.4,0.1,6.8,0,10.2,0.1c3.1,0.1,3.5,0.5,3.6,3.7c0,1,0,1.9,0,2.9
	c-0.2,5.4-0.7,5.9-6.1,6c-5.3,0-10.6-0.1-16,0.1c-2.7,0.1-5.3,0.6-8,0.9c0.7-2.6,1.2-5.3,2.1-7.8c0.2-0.7,1.2-1.3,2-1.8
	C783.6,216.7,786.1,215.1,788.7,213.5z"/>
<path class="st6" d="M781.2,255.3c-0.3-0.4-0.8-1-1.2-1.8c-0.3-0.6-0.5-1.1-0.5-1.5c-0.3-2.8-1-5.6-1.5-8.4c0-1,0.1-1.9,0.1-2.9
	c8.1,1.8,16.2,0.7,24.4,1c3.7,0.1,3.7,0.1,3.7,3.7c0,1.8-0.1,3.5,0,5.3c0.2,2.2-0.8,2.7-2.8,2.7c-6.1-0.1-12.2-0.1-18.3,0
	c-0.4,0-1.6-0.4-2.6,0.2C781.7,253.9,781.3,254.8,781.2,255.3z"/>
<path class="st19" d="M755.6,144.9c-3.8-1.6-7.5-0.3-11.3,0.2c-8.2,1-16.4,2.3-24.6,3.2c-2.5,0.3-5-0.5-7.6-0.8
	c1.5-0.3,3-0.8,4.4-0.8c10.5,0.3,20.8-1.4,31-3.7c1.8-0.4,3.9-0.4,5.7-0.1C754.2,143,754.9,144.2,755.6,144.9z"/>
<path class="st19" d="M710.3,147.3c-4.2-0.4-8.2-1.1-11.8-3.4c3.8,0.7,7.5,1.4,11.3,2.2C710,146.1,710.1,146.9,710.3,147.3z"/>
<path class="st19" d="M694.7,218.4c0.4,0.6,0.9,1.2,1.3,1.8C695.6,219.6,695.2,219,694.7,218.4z"/>
<path class="st4" d="M683.6,251.2c0-0.4-0.1-0.7-0.1-1.1c0-0.3-0.1-0.6-0.1-0.9C683.4,249.9,683.5,250.5,683.6,251.2z"/>
<path class="st19" d="M697,143.9c-0.4,0.7-0.8,1.3-1.1,2C695.7,144.9,695.6,143.9,697,143.9z"/>
<path class="st19" d="M702.4,215.4c0.6-0.4,1.2-0.8,1.8-1.2C703.6,214.6,703,215,702.4,215.4z"/>
<path class="st19" d="M756.6,146c-0.3-0.4-0.7-0.7-1-1.1C755.9,145.2,756.3,145.6,756.6,146z"/>
<path class="st19" d="M698.5,143.9l-0.4,0l-0.4-0.1c0.2-0.2,0.4-0.4,0.7-0.6C698.4,143.5,698.4,143.7,698.5,143.9z"/>
<path class="st4" d="M683.1,241.6c-0.3-0.5-0.6-1-0.9-1.5C682.5,240.6,682.8,241.1,683.1,241.6z"/>
<path class="st19" d="M704.2,214.2c0.4-0.3,0.7-0.6,1.1-0.9C704.9,213.6,704.6,213.9,704.2,214.2z"/>
<path class="st19" d="M698.5,219.3c0.3-0.4,0.7-0.7,1-1.1C699.2,218.6,698.8,218.9,698.5,219.3z"/>
<path class="st8" d="M234.8,733.6c1.2-0.3,2.5-0.6,3.7-0.9c1,0,2-0.1,3-0.1c1.3,0,2.6,0.1,3.8,0.1c1,0.3,2,0.6,2.9,0.9
	c14,4.3,22.2,14.6,28,27.2c4.8,10.5,5.9,21.7,4.8,32.9c-1.3,12.9-6.2,24.2-17.5,31.6c-1.9,1.3-4.4,1.6-6.6,2.4
	c0-0.6,0.1-1.3-0.1-1.9c-3.7-13.6-7.5-27.3-11.1-40.9c-3.8-14.3-7.5-28.6-11.3-42.9c-0.6-2.2-1.7-4.3-2.6-6.5
	C231.7,733.2,233.4,733.7,234.8,733.6z"/>
<path class="st4" d="M248.3,733.5c-1-0.3-2-0.6-2.9-0.9C246.9,731,247.9,731.3,248.3,733.5z"/>
<path class="st17" d="M652.2,975.8c-1.5,0.4-3.1,0.6-4.5,1.3c-14.4,6.5-28.8,13.1-43.2,19.7c-5.3,2.4-10.6,5-15.9,7.5
	c-1.8,0.8-3.5,1.6-5.3,2.3c-4.7,1.7-4,2.7-6.4-2.9c-2.7-6.4-5.4-12.7-8-19.1c-20.3-49.3-40.5-98.6-60.7-148
	c-0.2-0.6-0.4-1.2-0.5-1.8c-0.1-4.7,2.7-8.4,4.4-12.5c3.9-9.7,8.2-19.3,12.4-28.9c2.7-6.1,5.5-12.2,8.2-18.3c4.1-9.3,8-18.7,12-28
	c3.5-8.2,7.2-16.3,10.7-24.5c3.6-8.3,7-16.7,10.7-25c0.8-1.7,0.8-4.3,3.6-4.5c1,2.6,2,5.2,3.1,7.8c0.5,1.8,1,3.7,1.6,5.5
	c12.7,40,25.4,80,38.1,119.9c4.9,15.3,9.7,30.6,14.6,45.9c1.2,3.6,2.4,7.2,3.6,10.7c1.5,5.2,3,10.4,4.7,15.6
	c7.2,22.7,14.4,45.3,21.5,68c0.4,1.2,0.7,2.5,1.1,3.7c0.5,1.7,0.1,2.7-1.6,3.4C654.9,974.1,653.6,975,652.2,975.8z"/>
<path class="st3" d="M572.8,700.8c-1-2.6-2-5.2-3.1-7.8c0.1-1.3-0.2-2.7,0.2-3.8c2-4.8,4.1-9.4,6.3-14.1c0.4-0.8,1.6-1.3,2.5-1.6
	c0.7-0.3,1.6-0.1,2.4-0.1c45.9,0,91.9,0,137.8,0c0.9,8.5,1.8,17,2.8,25.5c0.1,0.6,0,1.3,0,1.9c-24.1,0-48.3,0-72.4-0.1
	c-1.3,0-2.6,0-3.9,0C621.2,700.7,597,700.7,572.8,700.8z"/>
<path class="st12" d="M810,671.7c1.5,0.3,2.9,0.9,4.4,0.9c24.2,0.1,48.4,0.1,72.5,0c5.5,0,10.9,0.1,15.7,3.1
	c0.4,0.8,0.8,1.7,1.4,2.5c5.8,9,1.7,19-8.7,21.7c-0.4,0.1-0.7,0.6-1,0.9c-1.3,0-2.5-0.1-3.8-0.1c-42.4-0.3-84.7-0.5-127.1-0.7
	c-3.2,0-6.4,0.4-9.6,0.6c-0.1-2.8,2.4-1.3,3.5-2.1c7.5-5.4,9.8-13.4,3.7-21c-1-1.2-1.6-2.6-2.4-3.9c9.6-0.2,19.2-0.4,28.8-0.8
	C795,672.5,802.5,672.1,810,671.7z"/>
<path class="st3" d="M758.7,673.6c0.8,1.3,1.5,2.7,2.4,3.9c6.1,7.6,3.8,15.6-3.7,21c-1.1,0.8-3.6-0.7-3.5,2.1c-1,0.1-2,0.2-2.9,0.3
	c-1.3-2.3-2.6-0.5-3.9-0.1c-7.1,0-14.2,0-21.3,0c-1-9.1-1.9-18.1-2.9-27.2C734.8,673.5,746.7,673.6,758.7,673.6z"/>
<path class="st15" d="M645.4,700.7c1.3,0,2.6,0,3.9,0c-0.6,5.9-1.3,11.7-1.9,17.6c-0.4,3.7-0.7,7.3-1,11c-0.4,4.8-0.6,9.6-1.1,14.4
	c-0.4,4.1-1.2,8.2-1.7,12.3c-0.4,3.3-0.7,6.7-1,10c-0.4,4.3-0.6,8.6-1.1,12.9c-0.5,5.2-1.2,10.4-1.8,15.7c-0.4,3.5-0.8,7-1,10.5
	c-0.4,4.8-0.6,9.6-1.1,14.4c-0.8,7.9-1.8,15.8-2.7,23.8c-0.4,3.8-0.8,7.6-1.1,11.5c-0.7,8.9-1.4,17.9-2.1,26.8c0,0.5-0.7,1-1,1.4
	c-1.2-3.6-2.4-7.2-3.6-10.7c0.6-1.6,1.4-3.1,1.8-4.7c0.3-1.2,0-2.6,0.2-3.9c0.9-7.4,1.9-14.8,2.7-22.3c0.5-4.8,0.7-9.6,1.1-14.4
	c0.3-3.7,0.6-7.3,1-11c0.9-7.9,1.9-15.8,2.7-23.7c0.5-4.8,0.6-9.6,1.1-14.4c0.8-7.4,2-14.8,2.7-22.3c0.8-8.1,1.4-16.2,2.1-24.4
	c0.3-3.7,0.7-7.3,1-11C644.1,713.7,644.7,707.2,645.4,700.7z"/>
<path class="st20" d="M1001.2,1066.7c-5.2,0.1-13.8,0.2-16.7,0.1c-0.6,0-2-0.1-4-0.1c-1.9,0-3.5,0-4.5,0
	c-20.7-0.3-35.1-0.3-44.7-0.1c-1.2,0-2.2,0.1-4.2,0.1c-11.6,0-23.2,0.1-34.8,0.1c-33.4,0-66.7,0-100.1,0c-1.4,0-2.9-0.1-4.3-0.2
	c-1.4,0-2.8,0-4.2,0.1c-5.7,0.1-11.4,0-17.1,0.1c-0.4,0-1.1,0-1.8-0.4c-1.1-0.6-0.9-1.5-1.9-2.1c-0.4-0.2-1.1-0.3-2.5-0.4
	c-2.2-0.1-2.6,0.1-2.7,0.3c-0.3,0.3-0.1,0.5-0.7,1.4c-0.3,0.5-0.5,0.8-0.8,1c-0.5,0.3-1.1,0.3-1.5,0.2c-95.8,0.1-136.5,0.1-138.8,0
	c-0.1,0-1.1-0.1-2.4-0.1c-1.7,0-3.4,0-5.1,0c-13,0.1-26,0.1-39,0.1c-1.2,0-2.4-0.6-3.6-0.9l0,0c-0.6,0.4-1.2,0.7-1.8,1.1
	c-2.2,0-4.4,0-6.6,0c-0.4-0.1-0.9-0.1-1.3-0.2c-28.7,0-57.3,0-86-0.1c-1.4,0-2.8-0.1-4.2-0.1c-7.7,0.1-15.4,0.2-23.1,0.2
	c-5,0-10,0-15,0c-4.8,0-4.8,0.6-4.3-4.8c1-10.2,2.3-20.4,3.4-30.6c0.5-4.3,0.7-8.6,1.1-12.9c-2.1,1.7-3.9,4.5-4.5,7.3
	c-0.4,5.3-0.7,10.5-1.2,15.8c-0.6,6.4-1.3,12.7-1.9,19.1c-0.1,1.3-0.5,2.5-0.6,3.8c0,1.9-0.9,2.5-2.7,2.4c-1.7-0.1-3.5,0.1-5.3,0.1
	c-42.2,0-84.3,0-126.5,0c-19.8,0-39.6-0.1-59.4-0.1c-3.2,0-6.4-0.1-9.6-0.1c-5.2,0.1-10.3,0.2-15.5,0.2c-13.9,0-27.7,0-41.6,0
	c-1.8,0-3.5-0.2-5.3-0.2c-7.5,0.1-15,0.1-22.5,0.2c-1.8,0-3.5-0.1-5.3,0.1c-2.3,0.2-1.9,1.6-1.1,3h878.5
	C1004.6,1067.4,1003.5,1066.6,1001.2,1066.7z"/>
<path class="st14" d="M785.7,187.8c1.8-0.5,2.4,0.2,1.8,1.9c-4.4,2.3-6.7,6.2-7.8,10.9c-0.1,0.3-0.3,0.6-0.4,0.9
	c0.3-0.1,0.6-0.2,0.9-0.4c0.5-0.1,0.9-0.2,1.4-0.2c0.6,0,1.2,0.2,1.8,0.3c-0.3,0.5-0.5,1.1-0.9,1.4c-1.2,1-2.5,1.9-3.7,2.8
	c-0.4,0.8-0.8,1.6-1.1,2.5c-0.5,1-0.9,2.1-2.4,1.5C775,200.5,778.1,193.1,785.7,187.8z"/>
<path class="st9" d="M339.2,155h-3.8c-0.7,0-1.2-0.5-1.2-1.2l0,0c0-0.7,0.5-1.2,1.2-1.2h3.8c0.7,0,1.2,0.5,1.2,1.2l0,0
	C340.4,154.5,339.9,155,339.2,155z"/>
<path class="st21" d="M311.7,155h-11.8c-0.7,0-1.2-0.5-1.2-1.2l0,0c0-0.7,0.5-1.2,1.2-1.2h11.8c0.7,0,1.2,0.5,1.2,1.2l0,0
	C312.9,154.5,312.4,155,311.7,155z"/>
<path class="st9" d="M339.2,166.4h-3.8c-0.7,0-1.2-0.5-1.2-1.2l0,0c0-0.7,0.5-1.2,1.2-1.2h3.8c0.7,0,1.2,0.5,1.2,1.2l0,0
	C340.4,165.9,339.9,166.4,339.2,166.4z"/>
<path class="st21" d="M300.5,166.4h-72.8c-0.7,0-1.2-0.5-1.2-1.2l0,0c0-0.7,0.5-1.2,1.2-1.2h72.8c0.7,0,1.2,0.5,1.2,1.2l0,0
	C301.7,165.9,301.1,166.4,300.5,166.4z"/>
<path class="st10" d="M210.5,166.4h-49.9c-0.7,0-1.2-0.5-1.2-1.2l0,0c0-0.7,0.5-1.2,1.2-1.2h49.9c0.7,0,1.2,0.5,1.2,1.2l0,0
	C211.7,165.9,211.2,166.4,210.5,166.4z"/>
<path class="st21" d="M144,166.4h-13.7c-0.7,0-1.2-0.5-1.2-1.2l0,0c0-0.7,0.5-1.2,1.2-1.2H144c0.7,0,1.2,0.5,1.2,1.2l0,0
	C145.2,165.9,144.6,166.4,144,166.4z"/>
<path class="st9" d="M338.9,177.8h-3.8c-0.7,0-1.2-0.5-1.2-1.2l0,0c0-0.7,0.5-1.2,1.2-1.2h3.8c0.7,0,1.2,0.5,1.2,1.2l0,0
	C340.1,177.3,339.6,177.8,338.9,177.8z"/>
<path class="st10" d="M302,177.8h-11.8c-0.7,0-1.2-0.5-1.2-1.2l0,0c0-0.7,0.5-1.2,1.2-1.2H302c0.7,0,1.2,0.5,1.2,1.2l0,0
	C303.2,177.3,302.7,177.8,302,177.8z"/>
<path class="st22" d="M274.2,177.8h-75.9c-0.7,0-1.2-0.5-1.2-1.2l0,0c0-0.7,0.5-1.2,1.2-1.2h75.9c0.7,0,1.2,0.5,1.2,1.2l0,0
	C275.4,177.3,274.8,177.8,274.2,177.8z"/>
<path class="st0" d="M302,189.1H190c-0.7,0-1.2-0.5-1.2-1.2l0,0c0-0.7,0.5-1.2,1.2-1.2h112c0.7,0,1.2,0.5,1.2,1.2l0,0
	C303.2,188.6,302.7,189.1,302,189.1z"/>
<path class="st9" d="M302.4,200.6h-74.1c-0.7,0-1.2-0.5-1.2-1.2l0,0c0-0.7,0.5-1.2,1.2-1.2h74.1c0.7,0,1.2,0.5,1.2,1.2l0,0
	C303.6,200,303.1,200.6,302.4,200.6z"/>
<path class="st10" d="M211,200.6h-26.7c-0.7,0-1.2-0.5-1.2-1.2l0,0c0-0.7,0.5-1.2,1.2-1.2H211c0.7,0,1.2,0.5,1.2,1.2l0,0
	C212.2,200,211.6,200.6,211,200.6z"/>
<path class="st0" d="M170.2,200.6h-40c-0.7,0-1.2-0.5-1.2-1.2l0,0c0-0.7,0.5-1.2,1.2-1.2h40c0.7,0,1.2,0.5,1.2,1.2l0,0
	C171.4,200,170.9,200.6,170.2,200.6z"/>
<path class="st19" d="M173.3,189.1H160c-0.7,0-1.2-0.5-1.2-1.2l0,0c0-0.7,0.5-1.2,1.2-1.2h13.4c0.7,0,1.2,0.5,1.2,1.2l0,0
	C174.5,188.5,174,189.1,173.3,189.1z"/>
<path class="st10" d="M274.2,211.4h-75.9c-0.7,0-1.2-0.5-1.2-1.2l0,0c0-0.7,0.5-1.2,1.2-1.2h75.9c0.7,0,1.2,0.5,1.2,1.2l0,0
	C275.4,210.8,274.8,211.4,274.2,211.4z"/>
<path class="st21" d="M179.6,177.8h-49.4c-0.7,0-1.2-0.5-1.2-1.2l0,0c0-0.7,0.5-1.2,1.2-1.2h49.4c0.7,0,1.2,0.5,1.2,1.2l0,0
	C180.8,177.3,180.3,177.8,179.6,177.8z"/>
<path class="st9" d="M339.2,189.1h-3.8c-0.7,0-1.2-0.5-1.2-1.2v0c0-0.7,0.5-1.2,1.2-1.2h3.8c0.7,0,1.2,0.5,1.2,1.2v0
	C340.4,188.6,339.9,189.1,339.2,189.1z"/>
<path class="st9" d="M339.2,200.6h-3.8c-0.7,0-1.2-0.5-1.2-1.2l0,0c0-0.7,0.5-1.2,1.2-1.2h3.8c0.7,0,1.2,0.5,1.2,1.2l0,0
	C340.4,200,339.9,200.6,339.2,200.6z"/>
<path class="st9" d="M339.1,211.5h-3.8c-0.7,0-1.2-0.5-1.2-1.2l0,0c0-0.7,0.5-1.2,1.2-1.2h3.8c0.7,0,1.2,0.5,1.2,1.2l0,0
	C340.3,211,339.8,211.5,339.1,211.5z"/>
<path class="st0" d="M302.4,211.5h-12.1c-0.7,0-1.2-0.5-1.2-1.2v0c0-0.7,0.5-1.2,1.2-1.2h12.1c0.7,0,1.2,0.5,1.2,1.2v0
	C303.6,211,303.1,211.5,302.4,211.5z"/>
<path class="st9" d="M339.2,223.1h-3.8c-0.7,0-1.2-0.5-1.2-1.2l0,0c0-0.7,0.5-1.2,1.2-1.2h3.8c0.7,0,1.2,0.5,1.2,1.2l0,0
	C340.4,222.5,339.9,223.1,339.2,223.1z"/>
<path class="st21" d="M323.1,223.1h-11.3c-0.7,0-1.2-0.5-1.2-1.2l0,0c0-0.7,0.5-1.2,1.2-1.2h11.3c0.7,0,1.2,0.5,1.2,1.2l0,0
	C324.3,222.5,323.8,223.1,323.1,223.1z"/>
<path class="st0" d="M311.3,234.6h-11.3c-0.7,0-1.2-0.5-1.2-1.2l0,0c0-0.7,0.5-1.2,1.2-1.2h11.3c0.7,0,1.2,0.5,1.2,1.2l0,0
	C312.5,234.1,311.9,234.6,311.3,234.6z"/>
<path class="st10" d="M304.3,245.8h-36.8c-0.7,0-1.2-0.5-1.2-1.2v0c0-0.7,0.5-1.2,1.2-1.2h36.8c0.7,0,1.2,0.5,1.2,1.2v0
	C305.5,245.3,305,245.8,304.3,245.8z"/>
<path class="st21" d="M304.3,256.9h-73.6c-0.7,0-1.2-0.5-1.2-1.2l0,0c0-0.7,0.5-1.2,1.2-1.2h73.6c0.7,0,1.2,0.5,1.2,1.2l0,0
	C305.5,256.4,305,256.9,304.3,256.9z"/>
<path class="st0" d="M304.3,268.4H293c-0.7,0-1.2-0.5-1.2-1.2l0,0c0-0.7,0.5-1.2,1.2-1.2h11.3c0.7,0,1.2,0.5,1.2,1.2l0,0
	C305.5,267.9,305,268.4,304.3,268.4z"/>
<path class="st21" d="M276,268.4h-76.7c-0.7,0-1.2-0.5-1.2-1.2l0,0c0-0.7,0.5-1.2,1.2-1.2H276c0.7,0,1.2,0.5,1.2,1.2l0,0
	C277.2,267.9,276.7,268.4,276,268.4z"/>
<path class="st22" d="M251.4,245.8h-51.8c-0.7,0-1.2-0.5-1.2-1.2l0,0c0-0.7,0.5-1.2,1.2-1.2h51.8c0.7,0,1.2,0.5,1.2,1.2l0,0
	C252.6,245.3,252.1,245.8,251.4,245.8z"/>
<path class="st19" d="M214.2,256.9h-51.3c-0.7,0-1.2-0.5-1.2-1.2l0,0c0-0.7,0.5-1.2,1.2-1.2h51.3c0.7,0,1.2,0.5,1.2,1.2l0,0
	C215.4,256.4,214.8,256.9,214.2,256.9z"/>
<path class="st21" d="M181.9,245.8H133c-0.7,0-1.2-0.5-1.2-1.2l0,0c0-0.7,0.5-1.2,1.2-1.2h48.9c0.7,0,1.2,0.5,1.2,1.2l0,0
	C183.1,245.3,182.6,245.8,181.9,245.8z"/>
<path class="st10" d="M183.2,268.4h-49.6c-0.7,0-1.2-0.5-1.2-1.2l0,0c0-0.7,0.5-1.2,1.2-1.2h49.6c0.7,0,1.2,0.5,1.2,1.2l0,0
	C184.4,267.9,183.9,268.4,183.2,268.4z"/>
<path class="st21" d="M305,279.6H192.1c-0.7,0-1.2-0.5-1.2-1.2l0,0c0-0.7,0.5-1.2,1.2-1.2H305c0.7,0,1.2,0.5,1.2,1.2l0,0
	C306.2,279.1,305.7,279.6,305,279.6z"/>
<path class="st21" d="M176.3,279.6h-14.1c-0.7,0-1.2-0.5-1.2-1.2l0,0c0-0.7,0.5-1.2,1.2-1.2h14.1c0.7,0,1.2,0.5,1.2,1.2l0,0
	C177.5,279.1,176.9,279.6,176.3,279.6z"/>
<path class="st20" d="M172.7,291.2h-39.4c-0.7,0-1.2-0.5-1.2-1.2l0,0c0-0.7,0.5-1.2,1.2-1.2h39.4c0.7,0,1.2,0.5,1.2,1.2l0,0
	C173.9,290.7,173.3,291.2,172.7,291.2z"/>
<path class="st0" d="M214,291.2h-26.9c-0.7,0-1.2-0.5-1.2-1.2l0,0c0-0.7,0.5-1.2,1.2-1.2H214c0.7,0,1.2,0.5,1.2,1.2l0,0
	C215.2,290.7,214.6,291.2,214,291.2z"/>
<path class="st10" d="M304.3,291.2h-74.1c-0.7,0-1.2-0.5-1.2-1.2l0,0c0-0.7,0.5-1.2,1.2-1.2h74.1c0.7,0,1.2,0.5,1.2,1.2l0,0
	C305.5,290.7,305,291.2,304.3,291.2z"/>
<path class="st9" d="M339.2,234.6h-3.8c-0.7,0-1.2-0.5-1.2-1.2l0,0c0-0.7,0.5-1.2,1.2-1.2h3.8c0.7,0,1.2,0.5,1.2,1.2l0,0
	C340.4,234.1,339.9,234.6,339.2,234.6z"/>
<path class="st9" d="M339.2,245.7h-3.8c-0.7,0-1.2-0.5-1.2-1.2l0,0c0-0.7,0.5-1.2,1.2-1.2h3.8c0.7,0,1.2,0.5,1.2,1.2l0,0
	C340.4,245.2,339.9,245.7,339.2,245.7z"/>
<path class="st9" d="M339.2,256.9h-3.8c-0.7,0-1.2-0.5-1.2-1.2l0,0c0-0.7,0.5-1.2,1.2-1.2h3.8c0.7,0,1.2,0.5,1.2,1.2l0,0
	C340.4,256.4,339.9,256.9,339.2,256.9z"/>
<path class="st9" d="M338.9,268.4h-3.8c-0.7,0-1.2-0.5-1.2-1.2l0,0c0-0.7,0.5-1.2,1.2-1.2h3.8c0.7,0,1.2,0.5,1.2,1.2l0,0
	C340.1,267.9,339.6,268.4,338.9,268.4z"/>
<path class="st9" d="M338.9,279.6h-3.8c-0.7,0-1.2-0.5-1.2-1.2l0,0c0-0.7,0.5-1.2,1.2-1.2h3.8c0.7,0,1.2,0.5,1.2,1.2l0,0
	C340.1,279.1,339.6,279.6,338.9,279.6z"/>
<path class="st9" d="M338.9,291.2h-3.8c-0.7,0-1.2-0.5-1.2-1.2l0,0c0-0.7,0.5-1.2,1.2-1.2h3.8c0.7,0,1.2,0.5,1.2,1.2l0,0
	C340.1,290.6,339.6,291.2,338.9,291.2z"/>
<path class="st9" d="M338.9,144.1h-3.8c-0.7,0-1.2-0.5-1.2-1.2l0,0c0-0.7,0.5-1.2,1.2-1.2h3.8c0.7,0,1.2,0.5,1.2,1.2l0,0
	C340.1,143.6,339.6,144.1,338.9,144.1z"/>
<path class="st21" d="M323.3,144.1h-11.8c-0.7,0-1.2-0.5-1.2-1.2l0,0c0-0.7,0.5-1.2,1.2-1.2h11.8c0.7,0,1.2,0.5,1.2,1.2l0,0
	C324.5,143.6,324,144.1,323.3,144.1z"/>
<path class="st21" d="M399,132.3h-23c-0.7,0-1.2-0.5-1.2-1.2l0,0c0-0.7,0.5-1.2,1.2-1.2h23c0.7,0,1.2,0.5,1.2,1.2l0,0
	C400.3,131.7,399.7,132.3,399,132.3z"/>
<path class="st21" d="M400.6,144.1h-16.4c-0.7,0-1.2-0.5-1.2-1.2l0,0c0-0.7,0.5-1.2,1.2-1.2l16.4,0c0.7,0,1.2,0.5,1.2,1.2l0,0
	C401.8,143.5,401.2,144.1,400.6,144.1z"/>
<path class="st21" d="M400,156.6h-31.9c-0.7,0-1.2-0.5-1.2-1.2v0c0-0.7,0.5-1.2,1.2-1.2H400c0.7,0,1.2,0.5,1.2,1.2v0
	C401.2,156.1,400.7,156.6,400,156.6z"/>
<path class="st21" d="M388,169.2h-27.2c-0.7,0-1.2-0.5-1.2-1.2l0,0c0-0.7,0.5-1.2,1.2-1.2H388c0.7,0,1.2,0.5,1.2,1.2l0,0
	C389.3,168.6,388.7,169.2,388,169.2z"/>
<path class="st21" d="M387.8,181.3h-12.5c-0.7,0-1.2-0.5-1.2-1.2l0,0c0-0.7,0.5-1.2,1.2-1.2h12.5c0.7,0,1.2,0.5,1.2,1.2l0,0
	C389.1,180.8,388.5,181.3,387.8,181.3z"/>
<path class="st21" d="M387.4,193.9h-23.7c-0.7,0-1.2-0.5-1.2-1.2l0,0c0-0.7,0.5-1.2,1.2-1.2h23.7c0.7,0,1.2,0.5,1.2,1.2l0,0
	C388.6,193.3,388.1,193.9,387.4,193.9z"/>
<path class="st21" d="M399.6,206.4h-17.3c-0.7,0-1.2-0.5-1.2-1.2l0,0c0-0.7,0.5-1.2,1.2-1.2h17.3c0.7,0,1.2,0.5,1.2,1.2l0,0
	C400.8,205.9,400.2,206.4,399.6,206.4z"/>
<path class="st21" d="M400.6,219h-11.8c-0.7,0-1.2-0.5-1.2-1.2l0,0c0-0.7,0.5-1.2,1.2-1.2h11.8c0.7,0,1.2,0.5,1.2,1.2l0,0
	C401.9,218.4,401.3,219,400.6,219z"/>
<path class="st21" d="M346.9,125.5v174.7c0,0.7-0.5,1.2-1.2,1.2l0,0c-0.7,0-1.2-0.5-1.2-1.2V125.5c0-0.7,0.5-1.2,1.2-1.2l0,0
	C346.3,124.3,346.9,124.9,346.9,125.5z"/>
<path class="st22" d="M323.7,134.9l-4.4-11c-0.2-0.6,0.1-1.3,0.7-1.6l0,0c0.6-0.2,1.3,0.1,1.6,0.7l4.4,11c0.2,0.6-0.1,1.3-0.7,1.6
	l0,0C324.7,135.8,324,135.5,323.7,134.9z"/>
<path d="M708.6,184.8c-0.7,2.4-2.1,3.7-3.8,3.6c-1.9-0.1-3.2-1.5-3.7-4c-0.4-2.2-0.2-4.4,1.1-6.3c1.6-2.4,4.3-2.3,5.9,0.1
	C709.1,180.1,709.3,182.5,708.6,184.8z"/>
<path d="M741,186.7c-0.7,2.4-2.1,3.7-3.8,3.6c-1.9-0.1-3.2-1.5-3.7-4c-0.4-2.2-0.2-4.4,1.1-6.3c1.6-2.4,4.3-2.3,5.9,0.1
	C741.5,181.9,741.7,184.4,741,186.7z"/>
<path d="M712.4,164.5c-0.2,0.3-0.6,1.1-1.1,1.3c-2.7,1.2-5.4,2.3-8.2,3.3c-0.6,0.2-1.4,0-2-0.3c-1.8-0.8-2.3-2.7-0.9-4.2
	c2.6-2.7,5.8-4,9.5-3.8C711.8,160.9,713,162.5,712.4,164.5z"/>
<path d="M745.5,171.8c-0.4,0.1-1.1,0.4-1.7,0.3c-2.8-0.9-5.6-1.8-8.4-2.9c-0.6-0.2-1-1-1.3-1.6c-0.8-1.8,0-3.6,2-3.8
	c3.7-0.4,7,0.8,9.7,3.3C747.4,168.7,747.2,170.7,745.5,171.8z"/>
<path d="M713.9,208.8c1.3,0.5,2.6,0.2,5.1-0.4c1.8-0.4,3.6-1.1,5.3-2.1c0.8-0.5,1.5-1.1,2.2-1.7c-0.1-0.2-0.2-0.4-0.3-0.5
	c-1.1,0.3-2.2,0.7-3.3,1c-2.3,0.5-4.6,1.1-6.9,1.3c-0.6,0-1,0-1.3-0.1c-0.3-0.1-0.6-0.3-0.7-0.4c-0.7-0.6-0.6-2.1-0.3-3.2
	c0.8-3,3.2-4.1,2.9-4.7c-0.3-0.5-2-0.2-3.3,0.6c-0.3,0.2-0.8,0.6-1.3,1.4c-0.4,0.6-2.2,3.7-0.8,6.6
	C711.5,206.8,712.3,208.2,713.9,208.8z"/>
<path class="st19" d="M413.8,161.2c0-19.5-0.1-39.1,0-58.6c0-4.3-0.9-8.3-3.4-11.9c-4.4-6.4-10.4-9.1-18.1-9.1
	c-43.1,0.1-86.2,0.1-129.3,0.1c0,0,0,0,0,0c-43.3,0-86.5,0-129.8,0c-9.5,0-16.5,4.1-19.8,13.1c-1.3,3.3-1.5,7.2-1.5,10.8
	c-0.1,61.5-0.1,123-0.1,184.5c0,14.2,8.4,22.7,22.5,22.6c47.5,0,94.9,0,142.4,0c38.4,0,76.8,0,115.2,0c4.3,0,8.3-0.6,12-3
	c6.8-4.4,9.9-10.7,9.9-18.8C413.8,247.7,413.8,204.5,413.8,161.2z M135.7,90.9c5.9,0,10.7,4.8,10.7,10.7c0,5.9-4.8,10.7-10.7,10.7
	s-10.7-4.8-10.7-10.7C125,95.7,129.8,90.9,135.7,90.9z M404,306.4c-3.9,3.2-8.5,3.7-13.2,3.8c-9,0.1-18.1,0-27.1,0
	c-22.1,0-44.2,0-66.3,0c-32.3,0-64.5,0-96.8,0c-21.3,0-42.6,0-63.9,0c-1.5,0-2.9,0.1-4.4-0.1c-10.8-0.9-17.8-8.3-17.8-19.1
	c0-56.3,0-112.6,0-169c0-4.3-0.4-3.9,4.4-3.9c47.9,0,95.8,0,143.8,0c0,0,0,0,0,0c47.8,0,95.5,0,143.3,0c0.5,0,1,0,1.5,0
	c3.6,0.1,3.7,0.1,3.7,3.7c0,56.3,0,112.6,0.1,169C411.2,297.2,409,302.3,404,306.4z"/>
<path class="st18" d="M712.2,559c1.1-0.3,2.2-0.6,3.4-0.7c11.4-0.1,22.9-0.1,34.3-0.1c0.5-0.7,0.9-1.5,1.6-2.1
	c4.4-3.6,5.2-8.5,4-13.4c-0.3-1.1-0.8-2.7-2.2-4.3c-1.8-2.1-4-1.5-6.5-3.5c-0.4-0.3-0.9-0.8-1.6-1.5c-1.2,0.1-3,0.2-5.1,0.2
	c-2.6,0.1-6.8,0.3-11.3,0.3c-4,0-6.7,0-9-0.1c-7.2-0.2-9,0-22.5-0.1c-5,0-12,0-20.7-0.2c-7.4,0.1-18,0.3-30.7,0.3
	c-6.6,0-11.5,0-13.1,0c-32.3,0-64.7,0-97,0c-68.1,0-136.2,0-204.3,0c-3.3,0-6.6-0.5-10-0.8c-1.5,0.2-3,0.7-4.4,0.7
	c-35.6,0-71.2,0-106.8,0c-1.8,0-3.6-0.1-5.3,0.1c-7.6,0.9-12.4,8.2-10.3,15.5c1.7,5.7,5.8,8.8,12.2,8.9c15,0.1,30,0,44.9,0
	c1.4,0,2.8,0,4.2,0c61.5,0,122.9,0,184.4,0.1c1.8,0,3.6,0.5,5.4,0.8c1.5-0.3,3-0.9,4.6-0.9c13-0.1,25.9,0,38.9,0
	c1.6,0,3.2-0.1,4.8-0.1c69.3,0,138.6,0,207.8,0c1.6,0,3.5-0.8,5,0.5c17,169.3,33.9,338.6,50.9,507.9l5.1-0.5L712.2,559z"/>
<path d="M881.8,317.1c-0.9-4.7-2.4-11.9-7.6-19.4c-2.6-3.8-5.9-7.1-9.9-10.1c-6.5-4.9-13.7-8.4-21.3-11.1c-1.7-0.6-3.3-1.3-4.9-1.9
	c-2.3-0.7-4.5-1.3-6.8-2c-3.6-1-7.1-1.9-10.7-2.9c-6.7-1.4-13.4-2.9-20-4.3c-2.3-0.5-4.7-0.9-7-1.3c-2-1-4.2-2.3-6.6-4
	c-2.3-1.6-4.2-3.3-5.8-4.8c-0.3-0.4-0.8-1-1.2-1.8c-0.2-0.5-0.5-1-0.5-1.5c-0.1-1.4-0.6-4.3-1.4-8.3c0-1,0-2,0-3.1
	c-0.1-0.6-0.2-1.1-0.4-1.7c-0.3-2.7-0.6-5.4-1-8.2c0.1-0.9,0.2-1.8,0.3-2.7c0.7-2.6,1.2-5.3,2.1-7.8c0.2-0.7,1.2-1.3,2-1.8
	c2.5-1.7,5.1-3.3,7.6-4.9c2.3-3.9,4.6-7.8,6.9-11.6c0.8-3.6,1.7-7.2,2.2-10.8c0.8-5.6,0.2-10.8-6-13.2c-1.6-0.7-1-1.7-0.8-2.7
	c1-3.9,2-7.8,2.8-11.7c1.4-6.9,1.3-13.8-0.3-20.6c-1.3-5.7-4.1-10.4-9.1-13.8c-1.2-0.8-2.5-1.8-3.1-3c-1.9-4.4-5.1-7.7-8.3-11.1
	c-0.4-0.2-0.9-0.4-1.3-0.7c-14.4-9.4-30-11.6-46.7-8.4c-8.2,1.6-15.6,5-22.8,8.9c-1.2,1-2.4,2.1-3.7,3.1c-10.3,7.8-15,18.2-14.6,31
	c0.2,7.6,1.5,15,3.4,22.3c-0.2,9.5-0.4,19-0.6,28.5c-0.1,2.1-0.3,4.2-0.5,6.2c-1.3,14.5-1.9,21.7-2.6,26.1c-0.1,0.8-0.5,3.2-0.6,6.4
	c-0.1,1.4,0,2.6,0,3.3c0.1,2.6,0.1,5.1,0.2,7.7c0.1,0.6,0.2,1.3,0.3,1.9c0.8,6.1,2.6,11.9,5.5,17.3c0.8,1.1,2.9,1.8,1.4,3.8
	c-13.9,1-24.6,4.3-32.2,6.1c-16.1,3.8-26.2,14.4-33.1,28.7c-3.1,6.5-5.3,13.4-7.9,20.2c-2,5.4-9.2,24.3-23.7,62.2
	c-0.4,1-1.6,4.1-3.2,8.4c-3.9,10.3-5.9,15.4-6.1,16.1c-3.2,8.6-6.4,17.1-9.4,25.7c-0.6,1.8-1.7,2.3-3.4,2.7
	c-12.9,2.8-25.7,5.7-38.5,8.5c-5.6,1.2-11.3,2.4-17,3.5l-0.3,0.3c0.1,0.8,0,1.6,0.2,2.4c2.7,8.6,5.4,17.3,8.1,25.9
	c1.1,3.6,2.2,7.3,3.4,10.9c2.9,8.9,5.7,17.8,8.6,26.7c7.9,0,15.8,0.1,23.7,0.1c1.4,0.2,2.8,0.4,4.2,0.5c6,0,24.6,1.8,33.8,0.1
	c0,0,1.4-0.3,7.6,0.3c0.6,0.1,1.6,0.2,2.2,0.9c0.4,0.5,0.3,0.8,0.7,1.3c0.6,0.7,1.7,0.6,2.1,0.6c7.4,0.2,14.7,0.5,22.1,1
	c4.1,0.3,8.3,0.7,12.4,1.1c0,0,0,0,0,0c0.1,0.4,0.2,0.7,0.4,1.1c0.2,0.6,0.5,1.2,0.7,1.8c0.1,1.5,0.2,3.1,0.4,4.6
	c42.2-0.3,60.2-0.2,68,0c1.9,0,9.7,0.3,17.5,0c4-0.1,8.1-0.3,12.2-0.5c1.1-0.1,2.3-0.1,3.4-0.2c1.3,0.1,3.6,0.2,8.2,0.4
	c1.9,0.1,3.2,0.1,5.5,0.2c9.2,0.3,21.9,0.1,24.2,0.1c1.6,0,3.2,0,4.7,0c26.2,0,52.5,0,78.7,0c0-1.3-0.1-2.6,0-3.9
	c1.5-23.6,3-47.3,4.4-70.9c0.8-11.9,1.4-23.8,2.3-35.7c1.8-22.6,3.8-45.3,5.7-67.9c0.1-1.2,0.9-6.4,1.3-13.4
	C882.9,331.1,883.3,324.9,881.8,317.1z M606.8,478C606.8,478,606.8,478,606.8,478c-0.1,0-0.3,8.7-0.8,28.9h0
	c-0.2,1.4-0.4,2.7-0.5,4.1c-0.6,0.5-1.6,1.1-2.8,1.7c-2.5,1.4-4.7,2-8.5,2.9c-6.6,1.5-10,2.2-11.9,1.1c-0.4-0.2-2.6-1.5-2.9-4.1
	c-0.4-2.5,1.4-4.4,1.7-4.7c2.7-1.3,5.4-2.6,8.1-3.9c0.3-0.2,0.5-0.7,0.8-1c-0.5-0.1-1.1-0.5-1.5-0.3c-3,1.5-5.9,3.1-8.8,4.6
	c-0.7,0.3-1.4,0.7-2.2,1c-2.7,1.1-5.3,1.1-7.4-1.3c-0.5-0.6-1.3-1.4-1.4-2.7c-0.3-2.1,1.4-3.8,2-4.3c0.5-0.5,1-0.9,3.8-2.2
	c2.7-1.2,5.4-2.5,8.1-3.7c0.5-0.2,1.5-0.6,1.4-0.9c-0.1-0.3-1.2-0.2-2.2-0.2c-1,0.3-2,0.7-3.1,1c-1.7,0.8-3.4,1.6-5.1,2.4
	c-1.3,0.6-2.5,1.2-3.7,1.9v0c-0.5,0-0.9,0-1.4,0c-2.2,0-5.2-0.3-6.4-2c-1.1-1.6-0.7-4.2,0.8-6.6c2.9-1.2,5.2-2.1,6.8-2.6
	c4.6-1.6,6.9-2.3,7.3-2.4c1.2-0.4,2.4-0.8,3.5-1.2c0.3-0.1,0.5-0.7,0.7-1c-0.4-0.1-0.8-0.1-1.2-0.2c-9.5,2.4-14.8,4.5-18,5.9
	c-3.3,1.5-7,2.2-10.3,3.6c-0.3,0.1-1.6,0.6-3.3,0.7c-2.3,0.1-4-1-4.9-3.2c-0.9-2.1-0.1-3.8,1.2-5.3c0.6-0.7,1.5-1.2,2.4-1.6
	c10.1-3.6,20.2-7.1,30.4-10.6c3.8-0.9,7.6-1.8,11.4-2.8c0.4-0.1,0.6-0.8,0.9-1.3c-0.4-0.2-0.9-0.5-1.3-0.4c-3.7,1.2-7.3,2.5-11,3.7
	c-1.8-0.6-3.7-0.9-5.2-1.9c-2.7-1.9-3.2-4-2-6.7c1.1-2.6,3-3.8,6.1-3.4c10,1.1,20.1,2.3,30.1,3.4C606.8,472,606.9,478,606.8,478z
	 M773.4,208.7c0.2-4.7,0.1-9.5,0.8-14.1c0.8-5.1,3.8-8.9,8.5-11.3c0.6-0.4,1.2-0.8,1.8-1.1c6.4-3.6,11.1-1.3,10.7,5.8
	c-0.5,8.9-2.3,17.4-9.5,23.7c-1.7,1.3-3.3,3-5.3,3.9c-4.4,2.1-7.1,0.4-7.3-4.4C773.2,210.3,773.3,209.5,773.4,208.7z M773.2,246.1
	c0.3-1.1,0.6-2.2,0.9-3.2c0.2-0.4,0.6-0.8,0.9-1.1c0.8,4,1.4,7.3,1.9,9.9c0.2,0.9,0.5,2.6-0.2,4.4c-0.4,0.8-0.9,1.3-1,1.5
	c-6.9,7.1-13.4,14.8-20.4,21.9c-6.8,6.9-9.7,10.4-16.6,15.9c-1.1,0.9-2,1.6-2.6,2.1c-0.9-1.6-1.8-3.3-2.7-4.9
	c-0.6-1.1-1.2-2.2-1.8-3.3c0,0,0,0,0,0c-0.7-1.5-1.4-3.1-2.1-4.6c0.7-0.3,1.4-0.6,2.1-1c0.2-0.1,0.4-0.2,0.6-0.3
	c0.8-0.4,1.6-0.7,2.4-1c0.1,0,0.2-0.1,0.2-0.1c0.7-0.3,1.3-0.5,2-0.7c0.7-0.3,1.4-0.5,2-0.7c0.3-0.1,0.6-0.2,0.9-0.3
	c1-0.3,1.9-0.6,2.8-0.9C758,273.2,768.6,262.3,773.2,246.1z M715.2,284.2c4.3,0.8,7.9,0.6,10.4,0.3c2.3,4.4,4.6,8.9,7.1,13.3
	c1.2,2.1,1.1,3.9-0.3,5.7c-3.5,4.4-7.9,8.9-13.4,13.2c-0.9,0.7-1.9,1.4-2.8,2c0-1,0-2.1,0.1-3.1C716.3,304.8,716,294.4,715.2,284.2z
	 M713.1,229.6c1.6,3.4,1.3,6.2-0.8,7.1c-2.3,1-5.6-0.7-6.9-3.8c-0.4-1-0.6-2.1-0.9-3.2c-0.3-1.7,0.2-2.8,2-3
	c0.5-0.1,0.9-0.2,1.4-0.4c2.6-0.7,17.7-0.8,20.6-0.3c1.7,0.3,3.5,0.4,5.2,0.8c3.3,0.7,3.7,1.3,3.6,4.5c-0.1,3.3-1.1,4.9-3.9,6
	c-2.5,1-5,0.5-6.6-1.4c-1.7-1.9-1.6-3.2,0.3-5.2c0.4-0.4,0.7-1,1.1-1.5c-0.6-0.1-1.3-0.3-1.9-0.2c-4.3,0.8-8.6,1.3-12.7-0.9
	c-0.2-0.1-0.6,0.1-0.9,0.2C712.9,228.8,712.9,229.2,713.1,229.6z M689.7,196.5c0.3-4.9,0.3-9.9,0.4-14.9c0.8-5.8,1.7-11.6,2.5-17.5
	c1.1-6.1,2.2-12.1,3.3-18.2c0,0-0.1-0.1-0.1-0.1c-0.2-1-0.3-1.9,1.1-2c0.2,0.1,0.4,0.1,0.6,0c0.2-0.2,0.4-0.4,0.7-0.6
	c0.1,0.2,0.1,0.5,0.2,0.7l0,0c3.8,0.7,7.5,1.4,11.3,2.2c0.2,0,0.3,0.8,0.5,1.3c0.6,0.1,1.3,0.1,1.9,0.2c1.5-0.3,3-0.8,4.4-0.8
	c10.5,0.3,20.8-1.4,31-3.7c1.8-0.4,3.9-0.4,5.7-0.1c0.8,0.1,1.5,1.3,2.2,2l0,0c0.3,0.4,0.7,0.7,1,1.1c2.4,3.6,3.2,7.7,2.9,11.9
	c-0.5,5.3,1,9.9,4,14.3c3.9,5.8,3.6,12.4,2.9,19c-0.3,2.8-1.2,5.5-1.6,8.2c-1,6.8-3.2,12.9-8.8,17.3c-1.8,1.4-3.8,2.7-6,3.6
	c-1.9,0.7-3.8,0.3-5-1.7l0.1-0.1c-0.6-0.4-1.2-0.8-1.7-1.2c-0.4-0.3-0.7-0.6-1.1-0.9c-0.4-0.3-0.7-0.6-1.1-1l0.1,0.1
	c-0.6-0.4-1.3-0.7-1.9-1.1c-0.4-0.3-0.7-0.6-1.1-0.9l-0.1,0.1c-1.5-0.5-3-1-4.5-1.5c-4.3-1.4-8.5-2.5-12.9,0c-1.3,0.7-3.3,0.1-5-0.2
	c-3.7-0.7-7.2-1.1-10.4,1.3c-0.4,0.3-0.7,0.6-1.1,0.9l0,0c-0.6,0.4-1.2,0.8-1.8,1.2c-1,0.9-1.9,1.9-2.9,2.8c-0.3,0.4-0.7,0.7-1,1.1
	c-0.3,0.3-0.6,0.7-0.9,1c-0.3,0.1-0.6,0.1-1,0.2c-0.2-0.1-0.4-0.2-0.6-0.3c-0.4-0.6-0.9-1.2-1.3-1.8c-0.3-0.4-0.5-0.7-0.8-1.1
	C690.2,210.8,689.3,203.8,689.7,196.5z M699.4,278.1c0.3,0.2,0.6,0.3,1,0.5c-0.2-0.1-0.4-0.2-0.6-0.3
	C699.6,278.3,699.5,278.2,699.4,278.1z M652.6,527.3C652.6,527.3,652.6,527.3,652.6,527.3c0.1,0,0.2,0,0.3,0
	C652.8,527.3,652.7,527.3,652.6,527.3C652.6,527.3,652.6,527.3,652.6,527.3z M789.7,269.1c-15.4,22.1-19.1,34.4-34.7,56.7
	c-0.5,0.7-1.3,1.9-2.4,3.4c-0.2-0.3-1.8-3.1-2-3.3c-4.4-7.5-8.7-15-13.1-22.4h0c0.1-0.6,0.2-1.2,0.3-1.8c0.2-0.5,0.4-1.1,0.6-1.6
	c2.4-2.5,4.3-4.4,5.4-5.6c15.5-15.8,22.7-21.5,32.6-33.7c1.1-1.4,2-2.5,2.4-3c1.3,1,2.6,1.9,3.9,2.9c2.8,2.1,5.6,4.2,8.4,6.2
	C791,267.2,790.4,268.1,789.7,269.1z"/>
<path class="st22" d="M634.3,525.6c-0.4,0-1.1-0.1-2.1-0.2c-10.3-0.6-18.2-0.9-22.1-1c-0.4,0-1.5,0.1-2.1-0.6
	c-0.5-0.6-0.3-1.5-0.2-2.1c-3-0.2-6.6-0.4-10.6-0.6c-1.3,0-1.4,0-14.7-0.1c-5.6,0-8.3,0-10.7,0c-1,0-2,0-4,0c-2.7,0-3.1,0-3.5,0
	c-1.2,0-2.8-0.1-4.8-0.3c-7.9,0-15.8-0.1-23.7-0.1c-2.9-8.9-5.8-17.8-8.6-26.7c-1.2-3.6-2.2-7.3-3.4-10.9
	c-2.7-8.6-5.4-17.3-8.1-25.9c-0.2-0.7-0.2-1.6-0.2-2.4c-0.9-2.3-2-4.6-2.8-7c-7.9-24.9-15.6-49.8-23.6-74.6c-1.1-3.3-3-6.3-4.5-9.5
	c-4.1-3.7-8.9-4.7-14.3-4.7c-67.3,0.1-134.6,0-201.8,0.1c-1.1,0-2.3,0-3.4,0c-9.1,0.6-14.9,9.1-12.2,17.9c0.6,2,1.4,4,2.2,5.9
	c12,29.5,24,59,36.1,88.5c7.2,17.7,14.5,35.4,21.7,53.2c1.7,4.2,4.2,7.6,8.7,9c3.3,0.3,6.6,0.8,10,0.8c68.1,0,136.2,0,204.3,0v0
	c32.3,0,64.7,0,97,0c0.5-0.5,1.9-2,2.1-4.3c0.1-0.9,0-1.7-0.2-2.3C634.6,526.9,634.4,526.2,634.3,525.6z M403,471.5
	c-12,3-24.3-4.2-27.3-16.3c-3-12,4.2-24.3,16.3-27.3c12-3,24.3,4.2,27.3,16.3C422.4,456.2,415.1,468.4,403,471.5z"/>
<path class="st20" d="M762.7,1062.4"/>
<path class="st22" d="M742.8,534.7"/>
<path class="st8" d="M229.1,823.9c-1.1-1-2.1-2-3.2-3c-2.6-2.9-5.1-5.8-7.7-8.7c0-2.1-1.3-3.1-3-3.9c-1.2-3.4-2.6-6.8-3.7-10.3
	c-3-9-4.7-18-3.3-27.7c1.3-9.1,3.9-17.4,9-24.9c3-4.3,6.8-7.7,11.5-10.1c1.7-0.9,2,0,2.1,1.3c1.5,6.3,3,12.6,4.6,18.9
	c3.6,13.5,7.3,27,10.9,40.4c2.9,10.9,5.7,21.8,8.6,32.6c-4.3,2-8.9,1.4-13.2,0.5c-3.3-0.7-6.4-2.7-9.6-4.1
	C231.2,824.5,230.1,824.2,229.1,823.9z"/>
<line class="st23" x1="216.4" y1="1066.6" x2="226.9" y2="872.4"/>
<line class="st23" x1="153.1" y1="1066.5" x2="145.1" y2="872.2"/>
<path class="st24" d="M328.2,124.9c3,1.1,6,2.1,9,3.2c-3.1,1.2-6.3,2.4-9.4,3.6"/>
<path class="st24" d="M317.8,125.2c-3,1.1-6,2.1-9,3.2c3.1,1.2,6.3,2.4,9.4,3.6"/>
<path d="M418.2,439.7c-2.8-5.7-7.1-8.6-8.9-9.7c-2-1.2-6.5-3.4-12.3-3.2c-9.8,0.3-15.9,7-17.1,8.3c-1.3,1.6-4.5,5.9-5.2,12.5
	c-0.2,1.6-0.5,7.3,2.8,13.3c1.2,2.1,2.5,3.7,3.5,4.7c1.5,1.6,4.8,4.5,9.9,6.1c4.2,1.3,7.8,1,9.9,0.7c2-0.3,4.8-0.9,7.8-2.6
	c3.4-1.9,5.6-4.2,6.8-5.7c1.4-1.7,4.9-6.7,5.1-13.8C420.6,445.2,419,441.4,418.2,439.7z M409.4,447.9c-0.5,1.1-1.3,1.7-2.7,2.6
	c-1,0.7-1.8,1-3.4,1.7c-3.1,1.4-4.6,2.1-5.5,2.5c-2.5,1.1-3.8,1.7-4.4,2c-0.2,0.1-1.1,0.5-2.4,1c-0.3,0.1-0.5,0.2-0.8,0.4
	c-2.1,1-3.3,2.6-3.1,5c0,0-0.1,0-0.1,0c-0.3-1.1-0.7-2.2-0.9-3.3c-0.2-0.9-0.2-1.9,0.2-2.9c0.2-0.6,0.8-1.8,6-4.2
	c0.2-0.1,0.3-0.2,0.5-0.2c0.2-0.1,0.4-0.2,0.5-0.5c0.1-0.2,0-0.5-0.2-1.1c-0.4-1.5-0.8-3.1-1.1-4.7c-0.3-2.3,0.9-4.1,3.3-5.2
	c1.5-0.7,3.1-1.3,4.7-1.9c1.1-0.5,2.1-1,2.9-1.9c0.8-1,1.2-2.2,1.1-3.5c0.6,1.5,1.2,2.9,1.2,4.5c0,1.9-0.9,3.3-2.6,4.1
	c-1.6,0.8-3.3,1.5-5,2.2c-1.2,0.5-2.3,1-3.1,2c-1,1.1-1.4,2.4-1.1,3.9c0.1,0.3,0.2,0.5,0.4,0.8c0.3,0.5,0.7,0.6,1.2,0.3
	c2.4-1,4.8-2.1,7.2-3.2c1-0.5,2.1-0.9,3.1-1.4c1.2-0.5,2-1.3,2.5-2.2c0.3-0.5,0.4-1.2,0.6-2.8c0-0.1,0-0.2,0-0.2
	c0.1,0.4,0.4,1.1,0.6,1.9c0.3,0.9,0.4,1.3,0.5,1.6C409.8,446,409.7,447,409.4,447.9z"/>
<path d="M402.7,454.3"/>
</svg>
