<?xml version="1.0" encoding="utf-8"?>
<!-- Generator: Adobe Illustrator 26.5.0, SVG Export Plug-In . SVG Version: 6.00 Build 0)  -->
<svg version="1.1" id="Layer_1" xmlns="http://www.w3.org/2000/svg" xmlns:xlink="http://www.w3.org/1999/xlink" x="0px" y="0px"
	 viewBox="0 0 500 500" style="enable-background:new 0 0 500 500;" xml:space="preserve">
<style type="text/css">
	.st0{fill:#474AF0;}
	.st1{fill:#37474F;}
	.st2{fill:#263238;}
	.st3{fill:#455A64;}
	.st4{fill:#E0E0E0;}
	.st5{opacity:0.25;enable-background:new    ;}
	.st6{opacity:0.1;fill:#FFFFFF;enable-background:new    ;}
	.st7{opacity:0.3;fill:#FFFFFF;enable-background:new    ;}
	.st8{opacity:0.3;}
	.st9{fill:#FFFFFF;}
	.st10{opacity:0.3;enable-background:new    ;}
	.st11{fill:#FAFAFA;}
	.st12{opacity:0.2;fill:#FFFFFF;enable-background:new    ;}
	.st13{opacity:0.1;enable-background:new    ;}
	.st14{opacity:0.7;fill:#FFFFFF;enable-background:new    ;}
	.st15{opacity:0.55;fill:#FFFFFF;enable-background:new    ;}
	.st16{opacity:0.55;}
	.st17{opacity:0.2;enable-background:new    ;}
	.st18{opacity:0.2;}
	.st19{opacity:0.15;enable-background:new    ;}
	.st20{fill:#F5F5F5;}
	.st21{fill:#FFA8A7;}
	.st22{fill:#F28F8F;}
	.st23{fill:#B16668;}
</style>
<g id="freepik--frames-2--inject-73">
	<g id="freepik--Frame--inject-73">
		<path class="st0" d="M337,95.9h-1v-1.5c0-0.1,0-0.2,0-0.2V94v-0.1v-0.1c0,0,0-0.1-0.1-0.1l-0.2-0.2c-0.2-0.1-0.3-0.1-0.5-0.1
			l-0.2-1c0.3-0.1,0.7,0,1,0.1c0.1,0,0.2,0.1,0.3,0.2c0.1,0.1,0.1,0.1,0.2,0.2l0.1,0.1c0.1,0.1,0.1,0.1,0.1,0.2
			c0.1,0.1,0.1,0.2,0.2,0.4c0,0.1,0,0.1,0,0.2l0.1,0.2V94c0,0,0,0.1,0,0.1s0,0.2,0,0.3L337,95.9z"/>
		<path class="st0" d="M286.1,202.1c-0.1,0-0.3,0-0.4,0c-0.1,0-0.2-0.1-0.3-0.1c-0.1,0-0.1-0.1-0.2-0.1c-0.3-0.2-0.6-0.5-0.8-0.9
			c-0.2-0.4-0.3-0.8-0.3-1.3v-1.1h1v1.1c0,0.3,0.1,0.6,0.2,0.9c0.1,0.2,0.2,0.4,0.4,0.5c0,0,0.1,0,0.1,0.1h0.1c0.1,0,0.1,0,0.2,0
			l0.1,1L286.1,202.1z M289.8,200.3l-0.5-0.9l3.3-1.9l0.5,0.8L289.8,200.3z M296.4,196.4l-0.5-0.8l3.3-1.9l0.5,0.8L296.4,196.4z
			 M285.1,194.8h-1v-3.8h1V194.8z M303.1,192.6l-0.5-0.8l3.3-1.9l0.5,0.8L303.1,192.6z M309.7,188.7l-0.5-0.9l3.3-1.9l0.5,0.8
			L309.7,188.7z M285.1,187.1h-1v-3.9h1V187.1z M316.4,184.9l-0.5-0.8l3.3-1.9l0.5,0.8L316.4,184.9z M323,181.1l-0.5-0.8l3.3-1.9
			l0.5,0.8L323,181.1z M285.1,179.4h-1v-3.8h1V179.4z M329.7,177.2l-0.5-0.9l3.3-1.9l0.5,0.8L329.7,177.2z M336.2,172.8l-0.8-0.5
			c0.4-0.6,0.6-1.3,0.7-2.1v-1.4h1v1.4C337,171.2,336.7,172.1,336.2,172.8L336.2,172.8z M285.1,171.7h-1v-3.8h1V171.7z M337,165h-1
			v-3.8h1V165z M285.1,164h-1v-3.8h1V164z M337,157.3h-1v-3.8h1V157.3z M285.1,156.3h-1v-3.8h1V156.3z M337,149.6h-1v-3.8h1V149.6z
			 M285.1,148.6h-1v-3.8h1V148.6z M337,142h-1v-3.8h1V142z M285.1,141h-1v-3.8h1V141z M337,134.3h-1v-3.8h1V134.3z M285.1,133.3h-1
			v-3.8h1V133.3z M337,126.6h-1v-3.8h1V126.6z M285.1,125.6h-1v-1.3c0-1,0.3-1.9,0.9-2.7l0.8,0.5c-0.4,0.6-0.7,1.4-0.7,2.1
			L285.1,125.6z M288.7,120.1l-0.5-0.8l3.3-1.9l0.5,0.8L288.7,120.1z M337,118.9h-1v-3.8h1V118.9z M295.4,116.2l-0.5-0.8l3.3-1.9
			l0.5,0.8L295.4,116.2z M302,112.4l-0.5-0.8l3.3-1.9l0.5,0.8L302,112.4z M337,111.2h-1v-3.8h1V111.2z M308.7,108.6l-0.5-0.8
			l3.3-1.9l0.5,0.8L308.7,108.6z M315.3,104.7l-0.5-0.8l3.3-1.9l0.5,0.8L315.3,104.7z M337,103.6h-1v-3.8h1V103.6z M322,100.9
			l-0.5-0.8l3.3-1.9l0.5,0.8L322,100.9z M328.7,97l-0.5-0.8l3.3-1.9l0.5,0.8L328.7,97z"/>
	</g>
	<g id="freepik--frame--inject-73">
		<path class="st0" d="M89.8,288.1h-1v-1.5c0-0.1,0-0.1,0-0.2l-0.1-0.2v0v-0.1l-0.1-0.1l-0.2-0.2c-0.2-0.1-0.3-0.1-0.5-0.1l-0.2-1
			c0.3-0.1,0.7,0,1,0.1l0.3,0.1l0.2,0.2l0.1,0.1c0,0.1,0.1,0.1,0.1,0.2c0.1,0.1,0.1,0.2,0.2,0.4c0,0,0,0.1,0,0.1l0.1,0.1v0.1
			c0,0,0,0.1,0,0.1s0,0.2,0,0.3L89.8,288.1z"/>
		<path class="st0" d="M38.8,394.4c-0.1,0-0.2,0-0.4,0c-0.1,0-0.2-0.1-0.3-0.1c-0.1,0-0.1-0.1-0.2-0.1c-0.3-0.2-0.6-0.5-0.8-0.9
			c-0.2-0.4-0.3-0.8-0.3-1.3v-1.1h1v1.1c0,0.3,0.1,0.6,0.2,0.9c0.1,0.2,0.2,0.4,0.4,0.5l0.1,0.1h0.1h0.2l0.1,1L38.8,394.4
			L38.8,394.4z M42.5,392.5l-0.5-0.8l3.3-1.9l0.5,0.8L42.5,392.5z M49.1,388.7l-0.5-0.8l3.4-1.9l0.5,0.8L49.1,388.7z M37.8,387h-1
			v-3.9h1V387z M55.8,384.8l-0.5-0.8l3.3-1.9l0.5,0.8L55.8,384.8z M62.4,381l-0.5-0.8l3.3-1.9l0.5,0.8L62.4,381z M37.8,379.3h-1
			v-3.8h1V379.3z M69.1,377.2l-0.5-0.8l3.3-1.9l0.5,0.8L69.1,377.2z M75.8,373.3l-0.5-0.9l3.3-1.9l0.5,0.8L75.8,373.3z M37.8,371.7
			h-1v-3.9h1V371.7z M82.4,369.5l-0.5-0.8l3.3-1.9l0.5,0.8L82.4,369.5z M88.9,365.1l-0.8-0.5c0.4-0.6,0.7-1.3,0.7-2.1v-1.4h1v1.4
			C89.7,363.4,89.4,364.3,88.9,365.1L88.9,365.1z M37.8,364h-1v-3.8h1V364z M89.8,357.3h-1v-3.8h1V357.3z M37.8,356.3h-1v-3.8h1
			V356.3z M89.8,349.6h-1v-3.8h1V349.6z M37.8,348.6h-1v-3.8h1V348.6z M89.8,342h-1v-3.8h1V342z M37.8,341h-1v-3.8h1V341z
			 M89.8,334.3h-1v-3.8h1V334.3z M37.8,333.3h-1v-3.8h1V333.3z M89.8,326.6h-1v-3.9h1V326.6z M37.8,325.6h-1v-3.9h1V325.6z
			 M89.8,318.9h-1V315h1V318.9z M37.8,317.9h-1v-1.3c0-1,0.3-1.9,0.9-2.7l0.8,0.5c-0.4,0.6-0.7,1.4-0.7,2.1L37.8,317.9z M41.4,312.4
			l-0.5-0.9l3.3-1.9l0.5,0.9L41.4,312.4z M89.8,311.2h-1v-3.8h1V311.2z M48.1,308.5l-0.5-0.9l3.3-1.9l0.5,0.9L48.1,308.5z
			 M54.8,304.6l-0.5-0.9l3.3-1.9l0.5,0.9L54.8,304.6z M89.8,303.5h-1v-3.9h1V303.5z M61.4,300.8l-0.5-0.9l3.3-2l0.5,0.9L61.4,300.8z
			 M68.1,297l-0.5-0.9l3.3-1.9l0.5,0.9L68.1,297z M89.8,295.8h-1V292h1V295.8z M74.8,293.2l-0.5-0.9l3.3-1.9l0.5,0.9L74.8,293.2z
			 M81.4,289.3l-0.5-0.9l3.3-1.9l0.5,0.9L81.4,289.3z"/>
	</g>
</g>
<g id="freepik--magnifying-glass--inject-73_00000029023198273687821580000003459195835619533452_">
	<g id="freepik--magnifying-glass--inject-73">
		<path class="st1" d="M78.3,398.9c0,0,0-0.1,0-0.1l3.1-81.6l0,0c0.1-1.4,1-2.6,2.3-3.2c3.5-1.7,7.6-1.7,11.1,0.1
			c1.3,0.6,2.2,1.8,2.3,3.2l0,0l3.1,81.7c0,0,0,0.1,0,0.1c0,0.1,0,0.1,0,0.2c0,5.9-4.8,10.8-10.7,10.8c-0.1,0-0.1,0-0.2,0
			c-6.1-0.1-10.9-5-10.9-11.1C78.3,399.1,78.3,399,78.3,398.9z"/>
		<path class="st2" d="M94.8,314.2c3.1,1.8,3.1,4.7,0,6.4c-3.5,1.7-7.6,1.7-11.1-0.1c-3.1-1.8-3.1-4.7,0-6.4
			C87.2,312.3,91.3,312.4,94.8,314.2z"/>
		<path class="st3" d="M93.3,396.2l-1.8-74.5c1.1-0.2,2.2-0.5,3.2-1.1c1.3-0.6,2.2-1.8,2.3-3.1l3.1,81.7c0,0,0,0.1,0,0.1
			c0,0.1,0,0.1,0,0.2c0,5.9-4.8,10.8-10.7,10.8c-0.1,0-0.1,0-0.2,0C92.7,409.4,93.5,403.5,93.3,396.2z"/>
		<path class="st4" d="M85.9,293.7c2.1-1,4.6-1,6.7,0.1c0.8,0.4,1.3,1.1,1.4,2l0,0v21.6l0,0c-0.1,0.8-0.6,1.6-1.4,1.9
			c-2.1,1-4.6,1-6.7-0.1c-0.8-0.4-1.3-1.1-1.4-2v-21.6l0,0C84.6,294.8,85.1,294,85.9,293.7z"/>
		<path class="st5" d="M94,307.6v-8c-3.2,0.7-6.3,1.3-9.5,1.7v7.9C87.7,308.8,90.8,308.3,94,307.6z"/>
		<path class="st0" d="M138.8,179.6l-16-9.2c-9-5.2-21.3-4.4-35,3.5c-27.4,15.8-49.5,54.2-49.5,85.8c0,15.8,5.5,26.9,14.5,32.1
			l16,9.2c3.9,2.2,8.4,3.4,12.9,3.3c6.7,0,14.2-2.2,22.1-6.8c27.4-15.8,49.5-54.2,49.5-85.8C153.3,195.9,147.8,184.8,138.8,179.6z
			 M116,247.3c-8.7,15-20.1,27.1-32.1,34.1c-6.3,3.6-12.4,5.6-17.8,5.7c-2.6-4.6-4-10.8-4-18.3c0-13.9,4.8-29.9,13.4-44.9
			s20.1-27.1,32.1-34.1c6.3-3.6,12.5-5.6,17.8-5.7c2.6,4.6,4,10.8,4,18.3C129.5,216.3,124.7,232.3,116,247.3z"/>
		<path class="st6" d="M51.2,213.6L74,226.7c0.5-0.9,1-1.9,1.6-2.8c2.7-4.6,5.7-9.1,9-13.3l-22.8-13.2
			C57.8,202.6,54.3,207.9,51.2,213.6z M73.8,184.3c-2.3,2.1-4.5,4.4-6.7,6.8L90,204.3c2.2-2.3,4.5-4.6,6.9-6.6L73.8,184.3z"/>
		<path class="st5" d="M68.7,300.8l-15.9-9.2c-9-5.2-14.5-16.3-14.5-32.1c0-0.6,0-1.2,0-1.8l16,9.2c0,0.6,0,1.2,0,1.8
			C54.3,284.6,59.8,295.6,68.7,300.8z"/>
		<path class="st0" d="M125.9,184.1h-0.4c2.6,4.6,4,10.8,4,18.3c0,13.9-4.8,29.9-13.4,44.9c-8.7,15-20.1,27.1-32.1,34.1
			c-6.4,3.6-12.5,5.6-17.8,5.7c3,5.8,9,9.4,15.6,9.2c5.4,0,11.7-2,18.2-5.7c12-7,23.5-19.1,32.1-34.1s13.4-31,13.4-44.9
			C145.4,194.4,138.1,184.1,125.9,184.1z"/>
		<path class="st5" d="M125.9,184.1h-0.4c2.6,4.6,4,10.8,4,18.3c0,13.9-4.8,29.9-13.4,44.9c-8.7,15-20.1,27.1-32.1,34.1
			c-6.4,3.6-12.5,5.6-17.8,5.7c3,5.8,9,9.4,15.6,9.2c5.4,0,11.7-2,18.2-5.7c12-7,23.5-19.1,32.1-34.1s13.4-31,13.4-44.9
			C145.4,194.4,138.1,184.1,125.9,184.1z"/>
		<path class="st7" d="M138,207.4c0,13.9-4.8,29.9-13.4,44.9s-20.1,27.1-32.2,34.1c-6.4,3.7-12.7,5.7-18.2,5.7
			c-1.6,0-3.3-0.2-4.9-0.6l0,0c-1.3-1.3-2.4-2.8-3.2-4.4c-2.6-4.6-4-10.8-4-18.3c0-13.9,4.8-29.9,13.4-44.9s20.1-27.1,32.1-34.1
			c6.3-3.6,12.5-5.6,17.8-5.7h0.4c1.7,0,3.3,0.2,4.9,0.6C135.4,189.4,138,197.1,138,207.4z"/>
		<path class="st0" d="M103.8,183c-27.3,15.8-49.5,54.2-49.5,85.8s22.2,44.4,49.5,28.6s49.5-54.2,49.5-85.8S131.1,167.2,103.8,183z
			 M99.9,290.6c-6.5,3.7-12.8,5.7-18.2,5.7c-6.5,0.2-12.6-3.4-15.6-9.2c-2.6-4.6-4-10.8-4-18.3c0-13.9,4.8-29.9,13.4-44.9
			s20.1-27.1,32.1-34.1c6.3-3.6,12.5-5.6,17.8-5.7h0.4c12.2,0,19.5,10.3,19.5,27.5c0,13.9-4.8,29.9-13.4,44.9
			S111.9,283.6,99.9,290.6z"/>
		<g class="st8">
			<path class="st9" d="M103.8,183c-27.3,15.8-49.5,54.2-49.5,85.8s22.2,44.4,49.5,28.6s49.5-54.2,49.5-85.8S131.1,167.2,103.8,183z
				 M99.9,290.6c-6.5,3.7-12.8,5.7-18.2,5.7c-6.5,0.2-12.6-3.4-15.6-9.2c-2.6-4.6-4-10.8-4-18.3c0-13.9,4.8-29.9,13.4-44.9
				s20.1-27.1,32.1-34.1c6.3-3.6,12.5-5.6,17.8-5.7h0.4c12.2,0,19.5,10.3,19.5,27.5c0,13.9-4.8,29.9-13.4,44.9
				S111.9,283.6,99.9,290.6z"/>
		</g>
		<g class="st8">
			<path class="st9" d="M66.3,224.5c-4.6,8.9-7.9,18.4-10.1,28.1c-1,4.9-1.6,9.9-1.7,14.9c-0.1,5,0.4,10,1.6,14.8
				c1.2,4.8,3.4,9.4,6.6,13.2c3.2,3.8,7.6,6.5,12.4,7.7c4.9,1.1,9.9,1.1,14.8-0.2c4.9-1.2,9.5-3.1,13.8-5.6
				c-4.3,2.6-8.9,4.5-13.8,5.8c-4.9,1.3-10,1.4-14.9,0.3c-4.9-1.2-9.4-3.9-12.7-7.7c-3.2-3.9-5.6-8.5-6.8-13.4
				c-1.2-4.9-1.7-10-1.5-15c0.1-5,0.7-10,1.8-14.9c1.1-4.9,2.5-9.7,4.2-14.4C61.9,233.5,63.9,228.9,66.3,224.5z"/>
		</g>
		<g class="st8">
			<path class="st9" d="M125.9,184.1c2.5,0,5,0.4,7.3,1.3c2.3,1,4.3,2.4,6,4.3c1.6,1.9,3,4,3.9,6.4c0.9,2.3,1.6,4.7,2.1,7.2
				c0.8,4.9,0.9,9.9,0.4,14.9c-0.5,5-1.4,9.9-2.8,14.6c-1.3,4.8-3,9.5-5.1,14c-2,4.5-4.4,8.9-7,13.2c-5.2,8.5-11.6,16.2-19,22.9
				c-3.8,3.3-7.8,6.2-12.2,8.7c-4.4,2.5-9.1,4.3-14.1,5.1c-2.5,0.4-5.1,0.4-7.6-0.1c-2.5-0.5-4.9-1.5-7-3.1c-1-0.8-1.9-1.6-2.7-2.6
				c-0.8-1-1.6-2-2.2-3.1c-1.3-2.2-2.2-4.5-2.8-7c-1.2-4.9-1.6-9.9-1.3-14.9c0.3-5,1.1-9.9,2.3-14.7c1.2-4.8,2.9-9.5,4.8-14
				c1.9-4.6,4.2-9,6.8-13.2c-4.9,8.6-8.5,17.8-10.8,27.4c-1.2,4.8-1.8,9.7-2,14.6c-0.3,4.9,0.2,9.8,1.4,14.5
				c0.6,2.3,1.5,4.6,2.8,6.7c1.2,2.1,2.8,3.9,4.7,5.3c1.9,1.4,4.1,2.4,6.5,2.8c2.4,0.4,4.8,0.4,7.1,0c4.8-0.8,9.4-2.5,13.6-5
				c4.2-2.4,8.2-5.3,11.9-8.5c7.3-6.5,13.7-14.1,18.8-22.5c5.2-8.3,9.3-17.3,12.2-26.8c1.4-4.7,2.4-9.5,2.9-14.4
				c0.6-4.9,0.5-9.8-0.2-14.7c-0.3-2.4-1-4.8-1.9-7.1c-0.9-2.3-2.1-4.4-3.7-6.3c-1.6-1.9-3.6-3.4-5.8-4.4
				C130.8,184.7,128.4,184.2,125.9,184.1z"/>
		</g>
	</g>
</g>
<g id="freepik--Device--inject-73">
	<g id="freepik--Mobile--inject-73">
		<path class="st1" d="M275.4,347.7V59.8c0-7.4-3.7-9.5-7-11.3s-8.6-3-13.3-0.3l-118.9,68.7c-4.6,2.7-8.4,9.2-8.4,14.6v287.9
			c0,5.4,3.4,8.5,6.6,10.4s9,4,13.6,1.3L267,362.2C272.4,359.4,275.6,353.7,275.4,347.7z"/>
		<path class="st2" d="M267.9,350.4L145.6,421V131.8l-15.3-8.8c-1.5,2.5-2.4,5.4-2.5,8.3v287.9c0,5.4,3.4,8.5,6.6,10.4s9,4,13.6,1.3
			L267,362.2c3.3-1.8,5.9-4.7,7.3-8.1l-0.5-0.3L267.9,350.4z"/>
		<path class="st3" d="M266.8,57.3l-119.2,68.9c-3.5,2.3-5.7,6.1-5.9,10.2v285.6c0,5.8,4.1,8.1,9.1,5.2l116.1-67
			c3.9-2.6,6.4-6.9,6.7-11.6V61.1C273.5,56.9,270.5,55.1,266.8,57.3z"/>
		<path d="M267.7,74.8v267c-0.2,4.5-2.6,8.6-6.4,11l-107.5,62.1c-3.5,2-6.4,0.4-6.4-3.7V142.2c0.2-3.6,1.8-7.1,4.5-9.6
			c0.2-0.2,0.4-0.4,0.6-0.5c0.4-0.3,0.8-0.6,1.3-0.9l30.2-17.4c0,0,0.9-0.5,2-1.1s2-0.1,2,1.1s0.9,1.7,2.1,1l35.2-20.3
			c1.2-0.8,1.9-2,2.1-3.4c0.1-1.3,0.7-2.5,1.8-3.3l0.2-0.1L259,70.5l0.6-0.4C264,67.6,267.7,69.7,267.7,74.8z"/>
		<path class="st2" d="M252.1,345.6c3.7-2.4,6.1-6.5,6.3-11V70.8l-29,16.8l-0.2,0.1c-1,0.8-1.7,2-1.8,3.3c-0.1,1.4-0.9,2.7-2.1,3.5
			l-35.2,20.3c-1.2,0.7-2.1,0.2-2.1-1s-0.9-1.8-2-1.1s-2,1.1-2,1.1l-30.2,17.5c-0.4,0.3-0.9,0.6-1.3,0.9c-0.2,0.2-0.4,0.4-0.6,0.5
			c-2.7,2.5-4.3,5.9-4.5,9.6V406L252.1,345.6z"/>
		<path class="st2" d="M195.4,104.1l16.1-9.3c1-0.6,1.8-0.2,1.8,0.9c-0.1,1.2-0.7,2.3-1.8,2.9l-16.1,9.3c-1,0.6-1.8,0.2-1.8-0.9
			C193.8,105.8,194.4,104.7,195.4,104.1z"/>
		<path class="st2" d="M219.9,89.2c1.1-0.6,2-0.1,2,1.1c-0.1,1.4-0.8,2.7-2,3.4c-1.1,0.6-2,0.1-2-1.1
			C218,91.2,218.7,89.9,219.9,89.2z"/>
		<path class="st3" d="M138.9,165.8c-0.1-2.3-1.2-4.4-3.1-5.6c-0.6-0.5-1.4-0.5-2.1-0.2c-0.4,0.2-1.9,1.1-2.3,1.3
			c-0.7,0.5-1.1,1.3-1,2.2V187c0.1,2.3,1.2,4.3,3.1,5.6c0.6,0.4,1.4,0.5,2.1,0.2l2.4-1.4c0.7-0.5,1.1-1.3,1-2.2L138.9,165.8z"/>
		<path class="st1" d="M136.6,167.1v23.5c0,2.1-1.4,3-3.1,2c-1.9-1.3-3-3.4-3.1-5.6v-23.4c0-2.1,1.4-3,3.1-2
			C135.3,162.8,136.5,164.9,136.6,167.1z"/>
		<path class="st3" d="M138.9,206.9c-0.1-2.3-1.2-4.3-3.1-5.6c-0.6-0.5-1.4-0.5-2.1-0.2c-0.4,0.2-1.9,1.1-2.3,1.3
			c-0.7,0.5-1.1,1.3-1,2.2v23.5c0.1,2.3,1.2,4.3,3.1,5.6c0.6,0.4,1.4,0.5,2.1,0.2c0.4-0.2,2-1.1,2.4-1.4c0.7-0.5,1.1-1.3,1-2.2
			L138.9,206.9z"/>
		<path class="st1" d="M136.6,208.2v23.5c0,2.1-1.4,3-3.1,2c-1.9-1.3-3-3.4-3.1-5.6v-23.4c0-2.1,1.4-3,3.1-2
			C135.3,203.9,136.5,206,136.6,208.2z"/>
	</g>
</g>
<g id="freepik--Screen--inject-73">
	<g id="freepik--Window--inject-73">
		<g id="freepik--window--inject-73">
			<path class="st0" d="M285.5,81.1c-1.5-0.8-3.5-0.7-5.8,0.6l-0.6,0.4L249,99.4l-0.2,0.1c-1.1,0.8-1.7,2-1.8,3.4
				c-0.1,1.5-0.9,2.8-2.1,3.5l-35.8,20.7c0,0-0.1,0-0.1,0c0-0.5-0.2-0.9-0.6-1.2l-2.1-1.2c-0.5-0.2-1-0.2-1.4,0.2L203,126
				l-30.7,17.7c-0.5,0.3-0.9,0.6-1.3,0.9c-0.2,0.2-0.4,0.4-0.6,0.6c-2.7,2.5-4.3,6-4.5,9.7v273c0,2.1,0.7,3.5,1.9,4.2l2.1,1.2
				c1.2,0.7,2.8,0.6,4.6-0.5l109.1-63c3.8-2.5,6.2-6.6,6.4-11.2v-271c0-2.6-0.9-4.4-2.4-5.3L285.5,81.1z"/>
			<path class="st10" d="M175,431.9v0.5l-0.6,0.4c-1.8,1-3.4,1.1-4.5,0.5l-2.1-1.2c-1.2-0.7-1.9-2.1-1.9-4.2v-273
				c0.1-2.5,0.9-4.8,2.2-6.9l2.5,1.4c-1.3,2-2.1,4.3-2.2,6.7v273c-0.1,1.1,0.3,2.2,0.9,3.1c0.5,0.7,1.4,1,2.2,1
				c0.9,0,1.9-0.3,2.7-0.8L175,431.9z"/>
			<path class="st10" d="M250.3,102c-0.5,0.6-0.7,1.3-0.8,2.1c0,0.9-0.3,1.7-0.8,2.4l-2.5-1.5c0.5-0.6,0.7-1.4,0.8-2.2
				c0-0.8,0.3-1.6,0.8-2.3L250.3,102z"/>
			<path class="st11" d="M171.5,433.2c-0.9,0-1.7-0.3-2.2-1c-0.6-0.9-0.9-2-0.9-3.1v-273c0.2-3.6,1.8-6.9,4.4-9.4l0.2-0.2l0.4-0.4
				c0.4-0.3,0.8-0.6,1.2-0.9l30.7-17.7l2-1.2c0.2-0.1,0.4-0.2,0.7-0.2c0.6,0,0.6,0.7,0.6,1c-0.1,0.9,0.5,1.7,1.4,1.8
				c0.1,0,0.1,0,0.2,0c0.4,0,0.9-0.1,1.2-0.4l35.8-20.7c1.4-0.8,2.3-2.3,2.4-3.9c0.1-1.2,0.6-2.3,1.6-3l0.2-0.1l30-17.3l0.6-0.4
				c1-0.6,2.2-1,3.4-1c2.5,0,4.1,2,4.1,5.4v271c-0.2,4.4-2.5,8.4-6.2,10.8l-109.1,63C173.3,432.9,172.4,433.2,171.5,433.2z"/>
			<path class="st0" d="M285.4,82.2c-1.2,0-2.4,0.4-3.4,1l-0.6,0.4l-30,17.3l-0.2,0.1c-1,0.7-1.5,1.8-1.6,3c-0.1,1.6-1,3.1-2.4,4
				l-35.8,20.6c-0.4,0.2-0.8,0.4-1.2,0.4c-0.9,0-1.6-0.8-1.6-1.7c0-0.1,0-0.1,0-0.2c0-0.3-0.1-1-0.6-1c-0.2,0-0.5,0.1-0.7,0.2
				l-2,1.2l-30.7,17.7c-0.4,0.3-0.8,0.5-1.2,0.9c-0.1,0.1-0.3,0.2-0.4,0.4l-0.2,0.2c-2.6,2.5-4.2,5.8-4.4,9.4v28.8L289.5,115V87.6
				C289.5,84.3,287.9,82.2,285.4,82.2z"/>
			<g class="st8">
				<path class="st9" d="M285.4,82.2c-1.2,0-2.4,0.4-3.4,1l-0.6,0.4l-30,17.3l-0.2,0.1c-1,0.7-1.5,1.8-1.6,3c-0.1,1.6-1,3.1-2.4,4
					l-35.8,20.6c-0.4,0.2-0.8,0.4-1.2,0.4c-0.9,0-1.6-0.8-1.6-1.7c0-0.1,0-0.1,0-0.2c0-0.3-0.1-1-0.6-1c-0.2,0-0.5,0.1-0.7,0.2
					l-2,1.2l-30.7,17.7c-0.4,0.3-0.8,0.5-1.2,0.9c-0.1,0.1-0.3,0.2-0.4,0.4l-0.2,0.2c-2.6,2.5-4.2,5.8-4.4,9.4v28.8L289.5,115V87.6
					C289.5,84.3,287.9,82.2,285.4,82.2z"/>
			</g>
			<path class="st11" d="M177.1,156.1c0,0.1,0,0.1,0,0.2c0,0.1-0.1,0.1-0.1,0.1l-0.2,0.1c-0.1,0-0.1,0-0.1,0c0,0-0.1-0.1-0.1-0.1
				v-4.4l-1,1.5c0,0.1-0.1,0.1-0.1,0.1c0,0-0.1,0-0.1,0l-0.1-0.2c0,0,0-0.1,0-0.1c0-0.1,0-0.1,0.1-0.2l1.3-2.1l0.1-0.1l0.1-0.1
				l0.2-0.1c0,0,0.1,0,0.1,0c0,0,0,0.1,0,0.1L177.1,156.1z"/>
			<path class="st11" d="M179.6,154.7c0,0.1,0,0.1,0,0.2c0,0.1-0.1,0.1-0.1,0.1l-0.2,0.1c0,0-0.1,0-0.1,0c0,0,0-0.1,0-0.1v-4.4
				l-1,1.6c0,0-0.1,0.1-0.1,0.1c0,0-0.1,0-0.1,0l-0.1-0.2c0,0,0-0.1,0-0.1c0-0.1,0-0.1,0.1-0.2l1.3-2.1c0,0,0.1-0.1,0.1-0.1l0.1-0.1
				l0.2-0.1c0,0,0.1,0,0.1,0c0,0,0,0.1,0,0.1L179.6,154.7z"/>
			<path class="st11" d="M181.1,150.3c0,0,0.1,0,0.1,0c0,0,0.1,0.1,0.1,0.1v0.5c0,0.1,0,0.1-0.1,0.2c0,0.1-0.1,0.1-0.1,0.1l-0.4,0.2
				c0,0-0.1,0-0.1,0c0,0,0-0.1,0-0.1v-0.5c0-0.1,0-0.1,0-0.2c0-0.1,0.1-0.1,0.1-0.1L181.1,150.3z M181.1,153.1c0,0,0.1,0,0.1,0
				c0,0,0.1,0.1,0.1,0.1v0.5c0,0.1,0,0.1-0.1,0.2c0,0.1-0.1,0.1-0.1,0.1l-0.4,0.2c0,0-0.1,0-0.1,0c0,0,0-0.1,0-0.1v-0.5
				c0-0.1,0-0.1,0-0.2c0-0.1,0.1-0.1,0.1-0.1L181.1,153.1z"/>
			<path class="st11" d="M182.4,151.8c0,0.2,0.2,0.3,0.3,0.4c0.2,0,0.4,0,0.6-0.1c0.1-0.1,0.3-0.2,0.4-0.3c0.1-0.1,0.2-0.2,0.3-0.4
				c0.1-0.2,0.1-0.3,0.2-0.5c0.1-0.2,0.1-0.4,0.1-0.6c0-0.2,0-0.3-0.1-0.5c0-0.1-0.1-0.2-0.2-0.2c-0.1,0-0.2-0.1-0.3-0.1
				c-0.1,0-0.3,0.1-0.4,0.1c-0.1,0.1-0.3,0.2-0.4,0.3c-0.1,0.1-0.2,0.2-0.2,0.3l-0.2,0.2c0,0.1-0.1,0.1-0.2,0.2l-0.3,0.2
				c0,0-0.1,0-0.1,0c0,0,0-0.1,0-0.1l0.2-2.8c0-0.1,0-0.1,0-0.2c0-0.1,0.1-0.1,0.1-0.1l2.1-1.2c0,0,0.1,0,0.1,0c0,0,0,0.1,0,0.1v0.3
				c0,0.1,0,0.1,0,0.2c0,0.1-0.1,0.1-0.1,0.1l-1.7,1l-0.1,1.4c0.1-0.1,0.2-0.2,0.3-0.3c0.1-0.1,0.3-0.2,0.4-0.3
				c0.2-0.1,0.4-0.2,0.6-0.2c0.2,0,0.3,0,0.5,0.1c0.1,0.1,0.3,0.2,0.3,0.4c0.1,0.2,0.1,0.5,0.1,0.7c0,0.3,0,0.6-0.1,0.9
				c-0.1,0.3-0.2,0.5-0.3,0.8c-0.1,0.2-0.3,0.5-0.5,0.7c-0.2,0.2-0.4,0.3-0.6,0.5c-0.2,0.1-0.4,0.2-0.6,0.2c-0.2,0-0.3,0-0.5,0
				c-0.1-0.1-0.3-0.2-0.3-0.3c-0.1-0.2-0.1-0.4-0.1-0.6c0,0,0-0.1,0-0.1c0,0,0-0.1,0.1-0.1l0.3-0.2c0,0,0.1,0,0.1,0
				C182.4,151.8,182.4,151.8,182.4,151.8z"/>
			<path class="st11" d="M186,149.9c0,0.1,0,0.1,0.1,0.2c0,0.1,0.1,0.1,0.2,0.1c0.1,0,0.2,0,0.3,0c0.2-0.1,0.3-0.1,0.5-0.2
				c0.1-0.1,0.2-0.2,0.4-0.3c0.1-0.1,0.2-0.2,0.3-0.4c0.1-0.1,0.2-0.3,0.2-0.4c0.1-0.2,0.1-0.3,0.1-0.5c0-0.1,0-0.3-0.1-0.4
				c0-0.1-0.1-0.1-0.2-0.2c-0.1,0-0.2,0-0.3,0c-0.1,0-0.2,0.1-0.4,0.2l-0.5,0.3c0,0-0.1,0-0.1,0c0,0,0-0.1,0-0.1V148
				c0,0,0-0.1,0-0.1l0.1-0.1l1.1-2.2l-1.7,1c0,0-0.1,0-0.1,0c0,0-0.1-0.1-0.1-0.1v-0.3c0-0.1,0-0.1,0.1-0.2c0-0.1,0.1-0.1,0.1-0.1
				l2.4-1.4c0,0,0.1,0,0.1,0c0,0,0,0.1,0,0.1v0.3c0,0,0,0.1,0,0.1c0,0.1,0,0.1-0.1,0.2l-1.1,2.1c0.2-0.1,0.4-0.2,0.6-0.2
				c0.1,0,0.3,0,0.4,0.1c0.1,0.1,0.2,0.2,0.3,0.4c0.1,0.2,0.1,0.4,0.1,0.6c0,0.3,0,0.5-0.1,0.8c-0.1,0.3-0.2,0.5-0.3,0.7
				c-0.1,0.2-0.3,0.4-0.5,0.6c-0.2,0.2-0.4,0.3-0.6,0.4c-0.2,0.1-0.5,0.2-0.7,0.3c-0.2,0-0.3,0-0.5-0.1c-0.1-0.1-0.2-0.2-0.3-0.3
				c-0.1-0.1-0.1-0.3-0.1-0.5c0,0,0-0.1,0-0.1c0,0,0.1-0.1,0.1-0.1l0.3-0.2C185.8,149.8,185.9,149.8,186,149.9
				C185.9,149.9,186,149.9,186,149.9z"/>
			<path class="st11" d="M195.3,140.5L195.3,140.5 M195.3,140.5l-1.9,6.3V144l-2.1,1.2L195.3,140.5 M195.3,140L195.3,140
				c-0.1,0-0.2,0-0.2,0.1l-0.1,0.1l0,0l-3.9,4.7c-0.1,0.2-0.1,0.4,0,0.6c0.1,0.1,0.2,0.2,0.4,0.2c0.1,0,0.2,0,0.2-0.1l1.4-0.8v1.9
				c0,0.2,0.2,0.4,0.4,0.5h0.1c0.2,0,0.4-0.1,0.4-0.3l1.8-6.3c0-0.1,0-0.1,0-0.2C195.8,140.2,195.6,140,195.3,140L195.3,140z"/>
			<polygon class="st11" points="259.4,108.8 258.4,109.4 258.4,107.4 259.4,106.8 			"/>
			<polygon class="st11" points="261,107.9 260,108.5 260,105.7 261,105.1 			"/>
			<polygon class="st11" points="262.6,107 261.6,107.5 261.6,103.7 262.6,103.1 			"/>
			<polygon class="st0" points="264.2,106 263.2,106.6 263.2,101.7 264.2,101.2 			"/>
			<path class="st11" d="M271.2,97c-1.1,0.7-2.1,1.8-2.6,3l0.7,0.5c0.4-0.9,1.1-1.7,2-2.2c0.6-0.4,1.4-0.5,2-0.1l0.7-1.3
				C273,96.4,272,96.4,271.2,97z M269.4,100.7l0.6,0.5c0.3-0.5,0.6-0.9,1.1-1.3c0.3-0.2,0.8-0.2,1.1,0l0.6-1.2
				c-0.5-0.3-1.2-0.3-1.8,0.1C270.4,99.3,269.8,99.9,269.4,100.7L269.4,100.7z M270.3,101.4l0.8,0.7l0.9-1.7c-0.3-0.2-0.6-0.2-0.9,0
				C270.8,100.7,270.5,101,270.3,101.4L270.3,101.4z"/>
			<path class="st0" d="M283.3,90.1c0.4-0.2,0.6,0,0.6,0.5v3.2c0,0.5-0.2,1-0.6,1.2l-5.6,3.2c-0.4,0.2-0.6,0-0.6-0.5v-3.2
				c0-0.5,0.2-1,0.6-1.2L283.3,90.1 M283.3,89.9l-5.6,3.3c-0.5,0.4-0.8,1-0.9,1.6v3.2c0,0.6,0.4,0.9,0.9,0.6l5.6-3.2
				c0.5-0.4,0.8-1,0.9-1.6v-3.2C284.1,89.9,283.7,89.6,283.3,89.9z"/>
			<path class="st11" d="M281,95.6l-3.2,1.8c-0.1,0.1-0.3,0-0.3-0.2v-2.6c0-0.2,0.1-0.4,0.3-0.5l3.2-1.8c0.1-0.1,0.3,0,0.3,0.2v2.6
				C281.3,95.2,281.2,95.4,281,95.6z"/>
			<path class="st0" d="M284.7,92.6l-0.2,0.1V91l0.2-0.1c0.1-0.1,0.2,0.2,0.2,0.7C285,91.9,284.9,92.3,284.7,92.6z"/>
			<path class="st11" d="M274.7,110.2c-0.6,0.5-1,1.2-1.1,2c0,0.8,0.5,1.2,1.1,0.8c0.6-0.5,1-1.2,1.1-2
				C275.8,110.2,275.3,109.9,274.7,110.2z M282.9,105.5c-0.7,0.5-1,1.2-1.1,2c0,0.8,0.5,1.2,1.1,0.8c0.7-0.5,1.1-1.2,1.1-2.1
				C283.9,105.5,283.4,105.2,282.9,105.5z M278.8,107.9c-0.6,0.5-1,1.2-1.1,2c0,0.8,0.5,1.2,1.1,0.8c0.7-0.5,1.1-1.2,1.1-2
				C279.8,107.9,279.4,107.5,278.8,107.9z"/>
			<path class="st0" d="M285.4,82.7L285.4,82.7c2.3,0,3.6,1.8,3.6,4.9v271c-0.3,4.2-2.5,8.1-6,10.4l-109.1,63
				c-0.7,0.5-1.6,0.7-2.4,0.8c-1.6,0-2.6-1.4-2.6-3.7v-273c0.2-3.4,1.7-6.6,4.2-9l0.2-0.2l0.4-0.3c0.4-0.3,0.8-0.6,1.2-0.8
				l30.7-17.7l2-1.2c0.1-0.1,0.3-0.1,0.4-0.2c0.2,0,0.2,0.5,0.2,0.5c-0.1,1.2,0.7,2.2,1.9,2.3c0.1,0,0.1,0,0.2,0
				c0.5,0,1-0.2,1.5-0.4l35.8-20.7c1.5-0.9,2.5-2.6,2.6-4.3c0.1-1,0.6-2,1.4-2.6l0.1-0.1l30-17.4l0.6-0.4
				C283.2,83,284.3,82.7,285.4,82.7 M285.4,81.7c-1.3,0-2.5,0.4-3.6,1.1l-0.6,0.4l-30,17.3l-0.2,0.1c-1.1,0.8-1.7,2-1.8,3.3
				c-0.1,1.5-0.9,2.8-2.1,3.6l-35.8,20.6c-0.3,0.2-0.6,0.3-1,0.3c-0.7,0-1.1-0.5-1.1-1.4s-0.4-1.4-1.1-1.4c-0.3,0-0.6,0.1-0.9,0.3
				l-2,1.2l-30.7,17.7c-0.5,0.3-0.9,0.6-1.3,0.9l-0.6,0.6c-2.7,2.5-4.3,6-4.5,9.7v273c0,2.9,1.4,4.6,3.6,4.6c1,0,2-0.3,2.9-0.9
				l109.1-63c3.8-2.5,6.2-6.6,6.4-11.2v-271C289.9,83.9,288.1,81.8,285.4,81.7L285.4,81.7z"/>
		</g>
	</g>
</g>
<g id="freepik--Gears--inject-73">
	<g id="freepik--Gear--inject-73">
		<path class="st0" d="M268.5,424.9c-0.7-0.2-1.2-1-1.1-1.7l0.4-2.9c0.1-0.7-0.4-1.4-1.1-1.5c0,0,0,0,0,0L259,418
			c-0.8-0.1-1.6,0.4-2,1.1l-1.5,2.9c-0.4,0.7-1.2,1.2-2,1.3c-1.3,0.1-2.6,0.3-3.9,0.5c-0.9,0.1-1.7-0.1-2.5-0.5l-4.1-2.7
			c-0.7-0.4-1.6-0.5-2.4-0.2l-6.1,2.4c-0.3,0.1-0.6,0.4-0.6,0.8l0,0v0.1l0,0v6.2l0,0c0,0.3,0.1,0.5,0.3,0.7l0.4,0.4
			c-0.5,0.3-1.1,0.5-1.7,0.5l-6.9-0.3c-0.8,0-1.5,0.5-1.8,1.2l-1.1,3.4c0,0.1,0,0.3,0,0.4l0,0v6.3l0,0c0,0.6,0.4,1,1,1.1l5.4,0.9
			l-2.1,1.1c-0.3,0.1-0.5,0.4-0.5,0.8l0,0v6.3l0,0c0,0.3,0.2,0.5,0.4,0.7l3.9,3.2c0.7,0.5,1.5,0.7,2.3,0.5l5.9-1.9
			c0.8-0.2,1.7-0.2,2.5,0.2c1,0.4,2.1,0.8,3.2,1.2c0.3,0.1,0.6,0.3,0.8,0.5v4.2l0,0c0,0.7,0.5,1.2,1.2,1.3l7.6,0.8
			c0.8,0.1,1.6-0.4,2-1.1l1.5-3c0.4-0.7,1.2-1.2,2-1.3c1.3-0.1,2.6-0.3,3.9-0.5c0.8-0.1,1.7,0.1,2.5,0.5l4.1,2.7
			c0.7,0.4,1.6,0.5,2.4,0.2l6.1-2.4c0.4-0.1,0.6-0.4,0.6-0.8l0,0v-6.3l0,0c0-0.3-0.1-0.5-0.3-0.7l-0.4-0.4c0.5-0.3,1.1-0.5,1.7-0.5
			l6.9,0.3c0.8,0,1.5-0.5,1.8-1.2l1-3.4c0-0.1,0.1-0.3,0-0.4l0,0v-6.2l0,0c0-0.6-0.4-1.1-1-1.2l-5.4-0.9l2.1-1
			c0.3-0.1,0.5-0.4,0.5-0.8l0,0v-6.2l0,0c0-0.3-0.2-0.6-0.4-0.7l-3.9-3.2c-0.7-0.5-1.5-0.7-2.3-0.5l-5.9,1.9
			c-0.8,0.2-1.7,0.1-2.5-0.2C270.8,425.6,269.7,425.2,268.5,424.9z M243.3,440.6c1.3-1.7,3.1-3,5.2-3.8c6.6-2.6,15.6-1.7,20.2,2.1
			c0.6,0.5,1.1,1,1.5,1.6c-1.3,1.7-3.1,3-5.2,3.8c-6.6,2.6-15.6,1.7-20.2-2.1C244.3,441.8,243.8,441.2,243.3,440.6L243.3,440.6z"/>
		<path class="st12" d="M268.5,424.9c-0.7-0.2-1.2-1-1.1-1.7l0.4-2.9c0.1-0.7-0.4-1.4-1.1-1.5c0,0,0,0,0,0L259,418
			c-0.8-0.1-1.6,0.4-2,1.1l-1.5,2.9c-0.4,0.7-1.2,1.2-2,1.3c-1.3,0.1-2.6,0.3-3.9,0.5c-0.9,0.1-1.7-0.1-2.5-0.5l-4.1-2.7
			c-0.7-0.4-1.6-0.5-2.4-0.2l-6.1,2.4c-0.3,0.1-0.6,0.4-0.6,0.8l0,0v0.1l0,0v6.2l0,0c0,0.3,0.1,0.5,0.3,0.7l0.4,0.4
			c-0.5,0.3-1.1,0.5-1.7,0.5l-6.9-0.3c-0.8,0-1.5,0.5-1.8,1.2l-1.1,3.4c0,0.1,0,0.3,0,0.4l0,0v6.3l0,0c0,0.6,0.4,1,1,1.1l5.4,0.9
			l-2.1,1.1c-0.3,0.1-0.5,0.4-0.5,0.8l0,0v6.3l0,0c0,0.3,0.2,0.5,0.4,0.7l3.9,3.2c0.7,0.5,1.5,0.7,2.3,0.5l5.9-1.9
			c0.8-0.2,1.7-0.2,2.5,0.2c1,0.4,2.1,0.8,3.2,1.2c0.3,0.1,0.6,0.3,0.8,0.5v4.2l0,0c0,0.7,0.5,1.2,1.2,1.3l7.6,0.8
			c0.8,0.1,1.6-0.4,2-1.1l1.5-3c0.4-0.7,1.2-1.2,2-1.3c1.3-0.1,2.6-0.3,3.9-0.5c0.8-0.1,1.7,0.1,2.5,0.5l4.1,2.7
			c0.7,0.4,1.6,0.5,2.4,0.2l6.1-2.4c0.4-0.1,0.6-0.4,0.6-0.8l0,0v-6.3l0,0c0-0.3-0.1-0.5-0.3-0.7l-0.4-0.4c0.5-0.3,1.1-0.5,1.7-0.5
			l6.9,0.3c0.8,0,1.5-0.5,1.8-1.2l1-3.4c0-0.1,0.1-0.3,0-0.4l0,0v-6.2l0,0c0-0.6-0.4-1.1-1-1.2l-5.4-0.9l2.1-1
			c0.3-0.1,0.5-0.4,0.5-0.8l0,0v-6.2l0,0c0-0.3-0.2-0.6-0.4-0.7l-3.9-3.2c-0.7-0.5-1.5-0.7-2.3-0.5l-5.9,1.9
			c-0.8,0.2-1.7,0.1-2.5-0.2C270.8,425.6,269.7,425.2,268.5,424.9z M243.3,440.6c1.3-1.7,3.1-3,5.2-3.8c6.6-2.6,15.6-1.7,20.2,2.1
			c0.6,0.5,1.1,1,1.5,1.6c-1.3,1.7-3.1,3-5.2,3.8c-6.6,2.6-15.6,1.7-20.2-2.1C244.3,441.8,243.8,441.2,243.3,440.6L243.3,440.6z"/>
		<path class="st13" d="M232.4,439.9c-0.2-0.8-0.8-1.3-1.6-1.5l-6.6-1.1c-0.5-0.1-0.9-0.5-1-1v6.2c0,0.6,0.4,1,1,1.1l5.4,0.9
			l2.8-1.4c0.6-0.3,0.9-1.1,0.6-1.8c0,0,0,0,0,0C232.7,440.8,232.5,440.4,232.4,439.9z M234,429.8L234,429.8c0,0.3,0.1,0.5,0.3,0.7
			l0.4,0.4c0.2-0.1,0.4-0.3,0.6-0.4c0.5-0.5,1.1-1,1.7-1.5c0.5-0.4,0.7-1.1,0.3-1.6c0-0.1-0.1-0.1-0.1-0.2l-2.8-2.9
			c-0.2-0.2-0.3-0.4-0.3-0.7L234,429.8z"/>
		<path class="st13" d="M248.5,430.6c-5.7,2.3-7.7,6.5-5.2,10c1.3-1.7,3.1-3,5.2-3.8c6.6-2.6,15.6-1.7,20.2,2.1
			c0.6,0.5,1.1,1,1.5,1.6c1.8-2.5,1.4-5.5-1.5-7.9C264.2,428.9,255.1,428,248.5,430.6z"/>
		<path class="st0" d="M258.7,452.2c-0.3,0.2-0.5,0.4-0.6,0.7l-1.5,3c-0.2,0.4-0.6,0.8-1.1,0.9v6.3c0.5-0.2,0.9-0.5,1.1-0.9l1.5-3
			c0.2-0.3,0.4-0.5,0.6-0.7L258.7,452.2z M279.6,451.4L279.6,451.4c0,0.4-0.3,0.7-0.6,0.8l-6.1,2.4c-0.5,0.2-1.1,0.2-1.6,0.1v6.3
			c0.5,0.1,1.1,0.1,1.6-0.1l6.1-2.4c0.4-0.1,0.6-0.4,0.6-0.8L279.6,451.4z M239.3,448.8l-5.8,1.8c-0.5,0.1-1,0.1-1.5,0v6.2
			c0.5,0.2,1,0.2,1.5,0l5.8-1.8L239.3,448.8z M290.5,438.9c0,0.1,0,0.2-0.1,0.4l-1,3.4c-0.3,0.7-1,1.2-1.8,1.2l-6.9-0.3
			c-0.4,0-0.7,0.1-1.1,0.2v6.2c0.3-0.2,0.7-0.2,1.1-0.2l6.9,0.3c0.8,0,1.5-0.5,1.8-1.2l1-3.4c0-0.1,0.1-0.3,0.1-0.4L290.5,438.9z
			 M286.7,428.8c0,0.1,0,0.2,0,0.2c0,0.1-0.1,0.2-0.2,0.3c-0.1,0.1-0.2,0.2-0.3,0.2l-4.9,2.5c-0.1,0.1-0.2,0.1-0.3,0.2
			c-0.2,0.1-0.3,0.3-0.3,0.5c-0.1,0.2-0.1,0.3-0.1,0.5v0.2c0,0.1,0.1,0.2,0.1,0.3c0.2,0.4,0.4,0.9,0.5,1.3c0.2,0.8,0.8,1.4,1.6,1.6
			l1.2,0.2l2.1-1c0.3-0.1,0.5-0.4,0.5-0.8l0,0L286.7,428.8z"/>
		<path class="st14" d="M258.7,452.2c-0.3,0.2-0.5,0.4-0.6,0.7l-1.5,3c-0.2,0.4-0.6,0.8-1.1,0.9v6.3c0.5-0.2,0.9-0.5,1.1-0.9l1.5-3
			c0.2-0.3,0.4-0.5,0.6-0.7L258.7,452.2z M279.6,451.4L279.6,451.4c0,0.4-0.3,0.7-0.6,0.8l-6.1,2.4c-0.5,0.2-1.1,0.2-1.6,0.1v6.3
			c0.5,0.1,1.1,0.1,1.6-0.1l6.1-2.4c0.4-0.1,0.6-0.4,0.6-0.8L279.6,451.4z M239.3,448.8l-5.8,1.8c-0.5,0.1-1,0.1-1.5,0v6.2
			c0.5,0.2,1,0.2,1.5,0l5.8-1.8L239.3,448.8z M290.5,438.9c0,0.1,0,0.2-0.1,0.4l-1,3.4c-0.3,0.7-1,1.2-1.8,1.2l-6.9-0.3
			c-0.4,0-0.7,0.1-1.1,0.2v6.2c0.3-0.2,0.7-0.2,1.1-0.2l6.9,0.3c0.8,0,1.5-0.5,1.8-1.2l1-3.4c0-0.1,0.1-0.3,0.1-0.4L290.5,438.9z
			 M286.7,428.8c0,0.1,0,0.2,0,0.2c0,0.1-0.1,0.2-0.2,0.3c-0.1,0.1-0.2,0.2-0.3,0.2l-4.9,2.5c-0.1,0.1-0.2,0.1-0.3,0.2
			c-0.2,0.1-0.3,0.3-0.3,0.5c-0.1,0.2-0.1,0.3-0.1,0.5v0.2c0,0.1,0.1,0.2,0.1,0.3c0.2,0.4,0.4,0.9,0.5,1.3c0.2,0.8,0.8,1.4,1.6,1.6
			l1.2,0.2l2.1-1c0.3-0.1,0.5-0.4,0.5-0.8l0,0L286.7,428.8z"/>
		<path class="st0" d="M280.1,424.4l-5.9,1.9c-0.8,0.2-1.7,0.1-2.5-0.2c-1-0.4-2.1-0.8-3.2-1.2c-0.7-0.2-1.2-1-1.1-1.7l0.4-2.9
			c0.1-0.7-0.4-1.4-1.1-1.5c0,0,0,0,0,0L259,418c-0.8-0.1-1.6,0.4-2,1.1l-1.5,2.9c-0.4,0.7-1.2,1.2-2,1.3c-1.3,0.1-2.6,0.3-3.9,0.5
			c-0.9,0.1-1.7-0.1-2.5-0.5l-4.1-2.7c-0.7-0.4-1.6-0.5-2.4-0.2l-6.1,2.4c-0.5,0.1-0.7,0.6-0.6,1c0,0.2,0.1,0.3,0.3,0.4l2.8,2.9
			c0.5,0.5,0.4,1.2,0,1.7c0,0-0.1,0.1-0.2,0.1c-0.6,0.5-1.1,1-1.7,1.5c-0.6,0.6-1.4,1-2.2,1l-6.9-0.3c-0.8,0-1.5,0.5-1.8,1.2
			l-1.1,3.4c-0.2,0.6,0.1,1.3,0.7,1.5c0.1,0,0.1,0,0.2,0l6.6,1.1c0.8,0.2,1.4,0.8,1.6,1.5c0.1,0.4,0.3,0.9,0.5,1.3
			c0.3,0.6,0.1,1.4-0.6,1.8l-4.9,2.5c-0.4,0.2-0.7,0.6-0.5,1c0.1,0.2,0.2,0.3,0.3,0.4l3.9,3.2c0.7,0.5,1.5,0.7,2.3,0.5l5.9-1.9
			c0.8-0.2,1.7-0.1,2.5,0.2c1,0.4,2.1,0.8,3.2,1.2c0.7,0.2,1.2,1,1.1,1.7l-0.4,2.9c-0.1,0.7,0.4,1.4,1.1,1.5c0,0,0,0,0,0l7.6,0.8
			c0.8,0.1,1.6-0.4,2-1.1l1.5-2.9c0.4-0.7,1.2-1.2,2-1.3c1.3-0.1,2.6-0.3,3.9-0.5c0.8-0.1,1.7,0.1,2.5,0.5l4.1,2.7
			c0.7,0.4,1.6,0.5,2.4,0.2l6.1-2.4c0.5-0.1,0.7-0.6,0.6-1c0-0.2-0.1-0.3-0.3-0.4l-2.8-2.9c-0.5-0.5-0.4-1.2,0-1.7
			c0,0,0.1-0.1,0.2-0.1c0.6-0.5,1.1-0.9,1.7-1.5c0.6-0.6,1.4-1,2.2-1l6.9,0.3c0.8,0,1.5-0.5,1.8-1.2l1-3.4c0.2-0.6-0.1-1.3-0.7-1.5
			c-0.1,0-0.1,0-0.2-0.1l-6.6-1.1c-0.8-0.2-1.4-0.8-1.6-1.5c-0.1-0.4-0.3-0.9-0.5-1.3c-0.3-0.6-0.1-1.4,0.5-1.8c0,0,0,0,0,0l4.9-2.5
			c0.4-0.1,0.7-0.6,0.5-1c-0.1-0.2-0.2-0.3-0.3-0.4l-3.9-3.2C281.8,424.3,281,424.1,280.1,424.4z M268.7,432.7
			c4.6,3.8,2.9,9-3.6,11.7s-15.6,1.7-20.2-2.1s-2.9-9,3.6-11.7S264.2,428.9,268.7,432.7z"/>
		<path class="st15" d="M280.1,424.4l-5.9,1.9c-0.8,0.2-1.7,0.1-2.5-0.2c-1-0.4-2.1-0.8-3.2-1.2c-0.7-0.2-1.2-1-1.1-1.7l0.4-2.9
			c0.1-0.7-0.4-1.4-1.1-1.5c0,0,0,0,0,0L259,418c-0.8-0.1-1.6,0.4-2,1.1l-1.5,2.9c-0.4,0.7-1.2,1.2-2,1.3c-1.3,0.1-2.6,0.3-3.9,0.5
			c-0.9,0.1-1.7-0.1-2.5-0.5l-4.1-2.7c-0.7-0.4-1.6-0.5-2.4-0.2l-6.1,2.4c-0.5,0.1-0.7,0.6-0.6,1c0,0.2,0.1,0.3,0.3,0.4l2.8,2.9
			c0.5,0.5,0.4,1.2,0,1.7c0,0-0.1,0.1-0.2,0.1c-0.6,0.5-1.1,1-1.7,1.5c-0.6,0.6-1.4,1-2.2,1l-6.9-0.3c-0.8,0-1.5,0.5-1.8,1.2
			l-1.1,3.4c-0.2,0.6,0.1,1.3,0.7,1.5c0.1,0,0.1,0,0.2,0l6.6,1.1c0.8,0.2,1.4,0.8,1.6,1.5c0.1,0.4,0.3,0.9,0.5,1.3
			c0.3,0.6,0.1,1.4-0.6,1.8l-4.9,2.5c-0.4,0.2-0.7,0.6-0.5,1c0.1,0.2,0.2,0.3,0.3,0.4l3.9,3.2c0.7,0.5,1.5,0.7,2.3,0.5l5.9-1.9
			c0.8-0.2,1.7-0.1,2.5,0.2c1,0.4,2.1,0.8,3.2,1.2c0.7,0.2,1.2,1,1.1,1.7l-0.4,2.9c-0.1,0.7,0.4,1.4,1.1,1.5c0,0,0,0,0,0l7.6,0.8
			c0.8,0.1,1.6-0.4,2-1.1l1.5-2.9c0.4-0.7,1.2-1.2,2-1.3c1.3-0.1,2.6-0.3,3.9-0.5c0.8-0.1,1.7,0.1,2.5,0.5l4.1,2.7
			c0.7,0.4,1.6,0.5,2.4,0.2l6.1-2.4c0.5-0.1,0.7-0.6,0.6-1c0-0.2-0.1-0.3-0.3-0.4l-2.8-2.9c-0.5-0.5-0.4-1.2,0-1.7
			c0,0,0.1-0.1,0.2-0.1c0.6-0.5,1.1-0.9,1.7-1.5c0.6-0.6,1.4-1,2.2-1l6.9,0.3c0.8,0,1.5-0.5,1.8-1.2l1-3.4c0.2-0.6-0.1-1.3-0.7-1.5
			c-0.1,0-0.1,0-0.2-0.1l-6.6-1.1c-0.8-0.2-1.4-0.8-1.6-1.5c-0.1-0.4-0.3-0.9-0.5-1.3c-0.3-0.6-0.1-1.4,0.5-1.8c0,0,0,0,0,0l4.9-2.5
			c0.4-0.1,0.7-0.6,0.5-1c-0.1-0.2-0.2-0.3-0.3-0.4l-3.9-3.2C281.8,424.3,281,424.1,280.1,424.4z M268.7,432.7
			c4.6,3.8,2.9,9-3.6,11.7s-15.6,1.7-20.2-2.1s-2.9-9,3.6-11.7S264.2,428.9,268.7,432.7z"/>
		<g class="st16">
			<path class="st9" d="M258.8,418.7L258.8,418.7l7.7,0.8c0.2,0,0.3,0.1,0.4,0.2c0.1,0.1,0.1,0.3,0.1,0.4l-0.4,2.9
				c-0.1,1.1,0.6,2.2,1.7,2.5c1.1,0.3,2.1,0.7,3.1,1.1c0.6,0.2,1.2,0.4,1.9,0.4c0.4,0,0.8-0.1,1.2-0.2l5.9-1.9
				c0.1,0,0.3-0.1,0.4-0.1c0.4,0,0.9,0.1,1.2,0.4l3.9,3.2c0.1,0.1,0.1,0.1,0.1,0.1c0,0-0.1,0.1-0.1,0.1l-4.8,2.5
				c-1,0.5-1.4,1.8-0.9,2.8c0.2,0.4,0.3,0.8,0.5,1.2c0.3,1,1.2,1.8,2.2,2.1l6.6,1.1c0.1,0,0.2,0.1,0.3,0.2c0.1,0.1,0.1,0.2,0,0.4
				l-1,3.4c-0.2,0.4-0.6,0.7-1,0.7l0,0l-6.9-0.3h-0.1c-1,0.1-2,0.5-2.7,1.2c-0.5,0.5-1,1-1.6,1.4c-0.5,0.3-0.7,0.9-0.8,1.4
				c0,0.5,0.2,1.1,0.5,1.5l2.8,2.9c0,0,0.1,0.1,0.1,0.2c0,0,0,0.1-0.2,0.1l-6.1,2.4c-0.2,0.1-0.4,0.1-0.6,0.1
				c-0.4,0-0.8-0.1-1.1-0.3l-4.1-2.8c-0.7-0.4-1.6-0.7-2.4-0.7c-0.2,0-0.4,0-0.6,0c-1.3,0.2-2.6,0.4-3.9,0.5c-1.1,0.1-2,0.7-2.6,1.7
				l-1.5,3c-0.2,0.4-0.7,0.6-1.1,0.7h-0.1l-7.6-0.8c-0.2,0-0.3-0.1-0.4-0.2c-0.1-0.1-0.1-0.3-0.1-0.4l0.4-2.9
				c0.1-1.1-0.6-2.2-1.7-2.5c-1.1-0.3-2.1-0.7-3.1-1.1c-0.6-0.2-1.2-0.4-1.9-0.4c-0.4,0-0.8,0.1-1.2,0.2l-5.9,1.9
				c-0.1,0-0.3,0.1-0.4,0.1c-0.4,0-0.9-0.1-1.2-0.4l-3.9-3.2c-0.1-0.1-0.1-0.1-0.1-0.1c0,0,0.1-0.1,0.1-0.1l4.9-2.5
				c1-0.5,1.4-1.8,0.9-2.8c-0.2-0.4-0.3-0.8-0.5-1.2c-0.3-1-1.2-1.8-2.2-2.1l-6.6-1.1c-0.1,0-0.2-0.1-0.3-0.2
				c-0.1-0.1-0.1-0.2,0-0.4l1.1-3.4c0.2-0.4,0.6-0.7,1-0.7l0,0l6.9,0.3h0.1c1,0,2-0.5,2.7-1.2c0.5-0.5,1-1,1.6-1.4
				c0.5-0.3,0.7-0.9,0.8-1.4c0-0.5-0.2-1.1-0.5-1.5l-2.8-2.9c0,0-0.1-0.1-0.1-0.2c0,0,0.1-0.1,0.2-0.1l6.1-2.4
				c0.2-0.1,0.4-0.1,0.6-0.1c0.4,0,0.7,0.1,1.1,0.3l4.1,2.7c0.7,0.4,1.5,0.7,2.4,0.7c0.2,0,0.4,0,0.6,0c1.2-0.2,2.6-0.4,3.9-0.5
				c1.1-0.1,2-0.8,2.6-1.7l1.5-3C258,418.9,258.4,418.7,258.8,418.7L258.8,418.7 M256.9,446.5c2.9,0,5.8-0.5,8.5-1.5
				c3.8-1.5,6.2-4,6.6-6.7c0.4-2.2-0.6-4.4-2.8-6.2c-2.8-2.4-7.5-3.8-12.4-3.8c-2.9,0-5.8,0.5-8.5,1.5c-3.8,1.5-6.2,4-6.6,6.7
				c-0.4,2.2,0.6,4.4,2.8,6.2C247.3,445.1,251.9,446.5,256.9,446.5 M258.9,417.9c-0.7,0-1.4,0.4-1.8,1.1l-1.5,3
				c-0.4,0.7-1.2,1.2-2,1.3c-1.3,0.1-2.6,0.3-3.9,0.5c-0.2,0-0.3,0-0.5,0c-0.7,0-1.4-0.2-2-0.5l-4.1-2.7c-0.4-0.3-1-0.4-1.5-0.4
				c-0.3,0-0.6,0-0.9,0.1l-6.1,2.4c-0.5,0.1-0.7,0.6-0.6,1c0,0.2,0.1,0.3,0.3,0.4l2.8,2.9c0.5,0.5,0.4,1.2,0,1.7
				c0,0-0.1,0.1-0.2,0.1c-0.6,0.5-1.1,1-1.7,1.5c-0.6,0.6-1.4,0.9-2.2,1h0l-6.9-0.3H226c-0.8,0-1.4,0.5-1.7,1.2l-1.1,3.4
				c-0.2,0.6,0.1,1.3,0.7,1.5c0.1,0,0.1,0,0.2,0l6.6,1.1c0.8,0.2,1.4,0.8,1.6,1.5c0.1,0.4,0.3,0.9,0.5,1.3c0.3,0.6,0.1,1.4-0.6,1.8
				l-4.9,2.5c-0.4,0.2-0.7,0.6-0.5,1c0.1,0.2,0.2,0.3,0.3,0.4l3.9,3.2c0.5,0.4,1.1,0.6,1.7,0.5c0.2,0,0.4,0,0.6-0.1l5.9-1.9
				c0.3-0.1,0.6-0.1,0.9-0.1c0.5,0,1.1,0.1,1.6,0.3c1,0.4,2.1,0.8,3.2,1.2c0.7,0.2,1.2,1,1.1,1.7l-0.4,2.9c-0.1,0.7,0.4,1.4,1.1,1.5
				c0,0,0,0,0,0l7.6,0.8h0.2c0.7,0,1.4-0.4,1.8-1.1l1.5-2.9c0.4-0.7,1.2-1.2,2-1.3c1.3-0.1,2.6-0.3,3.9-0.5c0.2,0,0.3,0,0.5,0
				c0.7,0,1.4,0.2,2,0.5l4.1,2.7c0.5,0.3,1,0.4,1.5,0.4c0.3,0,0.6,0,0.9-0.1l6.1-2.4c0.5-0.1,0.7-0.6,0.6-1c0-0.2-0.1-0.3-0.3-0.4
				l-2.8-2.9c-0.5-0.5-0.4-1.2,0-1.7c0,0,0.1-0.1,0.2-0.1c0.6-0.5,1.1-0.9,1.7-1.5c0.6-0.6,1.4-0.9,2.2-1h0.1l6.9,0.3h0.1
				c0.8,0,1.4-0.5,1.7-1.2l1-3.4c0.2-0.6-0.1-1.3-0.7-1.5c-0.1,0-0.1,0-0.2-0.1l-6.6-1.1c-0.8-0.2-1.4-0.8-1.6-1.5
				c-0.1-0.4-0.3-0.9-0.5-1.3c-0.3-0.6-0.1-1.4,0.5-1.8c0,0,0,0,0,0l4.9-2.5c0.4-0.1,0.7-0.6,0.5-1c-0.1-0.2-0.2-0.3-0.3-0.4
				l-3.9-3.2c-0.5-0.4-1.1-0.6-1.7-0.5c-0.2,0-0.4,0-0.6,0.1l-5.9,1.9c-0.3,0.1-0.6,0.1-0.9,0.1c-0.5,0-1.1-0.1-1.6-0.3
				c-1-0.4-2.1-0.8-3.2-1.2c-0.7-0.2-1.2-1-1.1-1.7l0.4-2.9c0.1-0.7-0.4-1.4-1.1-1.5c0,0,0,0,0,0L259,418L258.9,417.9z M256.9,445.8
				c-4.6,0-9.1-1.2-11.9-3.6c-4.6-3.8-2.9-9,3.6-11.7c2.6-1,5.4-1.5,8.3-1.5c4.6,0,9.1,1.2,11.9,3.6c4.6,3.8,2.9,9-3.6,11.7
				C262.5,445.3,259.7,445.8,256.9,445.8z"/>
		</g>
	</g>
	<g id="freepik--gear--inject-73">
		<path class="st0" d="M363.8,395.2l-7.4-4.3c-0.5-0.3-1.1-0.3-1.6-0.1l-7.5,3.5c-0.5,0.2-1.2,0.2-1.7,0.1c-1.9-0.6-3.9-1.1-5.8-1.4
			c-0.5-0.1-1-0.5-1.1-1.1l-0.9-5c-0.1-0.5-0.6-0.9-1.1-0.9h-10.9c-0.5,0-1,0.4-1.1,0.9l-1,5c-0.1,0.5-0.5,0.9-1.1,1.1
			c-2,0.3-3.9,0.8-5.8,1.4c-0.6,0.1-1.2,0.1-1.7-0.1l-7.5-3.5c-0.5-0.2-1.1-0.2-1.6,0.1l-7.4,4.3c-0.2,0.1-0.3,0.3-0.3,0.5l0,0v6.4
			l0,0c0,0.2,0.1,0.4,0.3,0.5l3.4,2.5c-0.2,0.2-0.5,0.3-0.8,0.4L291,406c-0.5,0-0.9,0.5-0.9,1v4.2l0,0v7.7c0,0.5,0.4,1,0.9,1
			l9.9,0.6c0.3,0,0.6,0.2,0.9,0.4l-3.4,2.5c-0.2,0.1-0.3,0.3-0.3,0.5l0,0v6.4l0,0c0,0.2,0.1,0.4,0.3,0.5l7.4,4.3
			c0.5,0.3,1.1,0.3,1.6,0.1l7.5-3.5c0.5-0.2,1.2-0.3,1.7-0.1c1.9,0.6,3.9,1.1,5.8,1.4c0.5,0.1,1,0.5,1.1,1l0.9,5
			c0.1,0.5,0.6,0.9,1.1,0.9h10.9c0.5,0,1-0.4,1.1-0.9l0.9-5c0.1-0.5,0.6-0.9,1.1-1c2-0.3,3.9-0.8,5.8-1.4c0.6-0.2,1.2-0.1,1.7,0.1
			l7.5,3.5c0.5,0.2,1.1,0.2,1.6-0.1l7.4-4.3c0.2-0.1,0.3-0.3,0.4-0.5l0,0v-6.5l0,0c0-0.2-0.1-0.4-0.3-0.5l-3.4-2.5
			c0.2-0.2,0.5-0.3,0.8-0.4l9.9-0.6c0.5,0,0.9-0.5,0.9-1V407c0-0.5-0.4-1-0.9-1l-9.9-0.6c-0.3,0-0.6-0.2-0.9-0.4l3.4-2.4
			c0.2-0.1,0.3-0.3,0.3-0.5l0,0v-6.5l0,0C364.2,395.4,364,395.2,363.8,395.2z M313.7,411.8c0.5-1.8,2.1-3.5,4.8-5.1
			c6.9-4,18.1-4,25.1,0c2.5,1.5,4.2,3.1,5,4.7c-0.6,2-2.2,4-5,5.5c-6.9,4-18.1,4-25.1,0C316.4,415.9,314.6,414.1,313.7,411.8z"/>
		<path class="st12" d="M363.8,395.2l-7.4-4.3c-0.5-0.3-1.1-0.3-1.6-0.1l-7.5,3.5c-0.5,0.2-1.2,0.2-1.7,0.1
			c-1.9-0.6-3.9-1.1-5.8-1.4c-0.5-0.1-1-0.5-1.1-1.1l-0.9-5c-0.1-0.5-0.6-0.9-1.1-0.9h-10.9c-0.5,0-1,0.4-1.1,0.9l-1,5
			c-0.1,0.5-0.5,0.9-1.1,1.1c-2,0.3-3.9,0.8-5.8,1.4c-0.6,0.1-1.2,0.1-1.7-0.1l-7.5-3.5c-0.5-0.2-1.1-0.2-1.6,0.1l-7.4,4.3
			c-0.2,0.1-0.3,0.3-0.3,0.5l0,0v6.4l0,0c0,0.2,0.1,0.4,0.3,0.5l3.4,2.5c-0.2,0.2-0.5,0.3-0.8,0.4L291,406c-0.5,0-0.9,0.5-0.9,1v4.2
			l0,0v7.7c0,0.5,0.4,1,0.9,1l9.9,0.6c0.3,0,0.6,0.2,0.9,0.4l-3.4,2.5c-0.2,0.1-0.3,0.3-0.3,0.5l0,0v6.4l0,0c0,0.2,0.1,0.4,0.3,0.5
			l7.4,4.3c0.5,0.3,1.1,0.3,1.6,0.1l7.5-3.5c0.5-0.2,1.2-0.3,1.7-0.1c1.9,0.6,3.9,1.1,5.8,1.4c0.5,0.1,1,0.5,1.1,1l0.9,5
			c0.1,0.5,0.6,0.9,1.1,0.9h10.9c0.5,0,1-0.4,1.1-0.9l0.9-5c0.1-0.5,0.6-0.9,1.1-1c2-0.3,3.9-0.8,5.8-1.4c0.6-0.2,1.2-0.1,1.7,0.1
			l7.5,3.5c0.5,0.2,1.1,0.2,1.6-0.1l7.4-4.3c0.2-0.1,0.3-0.3,0.4-0.5l0,0v-6.5l0,0c0-0.2-0.1-0.4-0.3-0.5l-3.4-2.5
			c0.2-0.2,0.5-0.3,0.8-0.4l9.9-0.6c0.5,0,0.9-0.5,0.9-1V407c0-0.5-0.4-1-0.9-1l-9.9-0.6c-0.3,0-0.6-0.2-0.9-0.4l3.4-2.4
			c0.2-0.1,0.3-0.3,0.3-0.5l0,0v-6.5l0,0C364.2,395.4,364,395.2,363.8,395.2z M313.7,411.8c0.5-1.8,2.1-3.5,4.8-5.1
			c6.9-4,18.1-4,25.1,0c2.5,1.5,4.2,3.1,5,4.7c-0.6,2-2.2,4-5,5.5c-6.9,4-18.1,4-25.1,0C316.4,415.9,314.6,414.1,313.7,411.8z"/>
		<path class="st13" d="M302.2,415c-0.3-0.5-0.8-0.8-1.3-0.9l-9.9-0.6c-0.5,0-0.9-0.5-0.9-1v-1.3v7.7c0,0.5,0.4,1,0.9,1l9.9,0.6
			c0.3,0,0.6,0.2,0.9,0.4l2.5-1.8c0.4-0.2,0.4-0.7,0.2-1.1c0,0-0.1-0.1-0.1-0.1C303.5,417,302.8,416.1,302.2,415z M298,402.1
			L298,402.1c0,0.2,0.1,0.4,0.3,0.5l3.4,2.5c0.2-0.1,0.4-0.3,0.5-0.5c0.6-1.1,1.3-2,2.1-2.9c0.3-0.3,0.3-0.8,0-1.1
			c0,0-0.1-0.1-0.1-0.1l-5.9-4.2c-0.1-0.1-0.3-0.3-0.3-0.4L298,402.1z"/>
		<path class="st13" d="M343.6,402.5c-6.9-4-18.1-4-25.1,0c-4.4,2.5-6,6-4.8,9.3c0.5-1.8,2.1-3.5,4.8-5.1c6.9-4,18.1-4,25.1,0
			c2.5,1.5,4.2,3.1,5,4.7C349.5,408.3,347.8,405,343.6,402.5z"/>
		<path class="st0" d="M372.1,412.7c-0.1,0.5-0.4,0.8-0.9,0.9l-9.9,0.6c-0.2,0-0.3,0.1-0.5,0.1v6.4c0.2-0.1,0.3-0.1,0.5-0.1l9.9-0.6
			c0.5,0,0.9-0.5,0.9-1L372.1,412.7z M364.1,395.7L364.1,395.7c0,0.1,0,0.1,0,0.2c0,0.1-0.1,0.1-0.1,0.2c0,0-0.1,0.1-0.1,0.1
			l-5.9,4.2c-0.1,0-0.1,0.1-0.1,0.1c-0.1,0.1-0.2,0.2-0.2,0.4c0,0.1,0,0.2,0,0.2v0.1c0,0.1,0.1,0.2,0.2,0.3l0.1,0.1
			c0.8,0.8,1.4,1.8,2,2.8c0.1,0.2,0.3,0.4,0.5,0.5l3.4-2.5c0.2-0.1,0.3-0.3,0.3-0.5l0,0L364.1,395.7z M364.1,423.9
			c0,0.2-0.2,0.4-0.4,0.5l-7.4,4.3c-0.4,0.2-0.8,0.3-1.1,0.2v6.4c0.4,0.1,0.8,0,1.1-0.2l7.4-4.3c0.2-0.1,0.3-0.3,0.4-0.5
			L364.1,423.9z M315.6,425.1c-0.3,0-0.5,0.1-0.7,0.2l-7.5,3.5c-0.2,0.1-0.4,0.1-0.7,0.1v6.4c0.2,0,0.5-0.1,0.7-0.1l7.5-3.5
			c0.2-0.1,0.5-0.2,0.7-0.2L315.6,425.1z M337.5,433c-0.2,0.3-0.6,0.5-0.9,0.5h-10.9c-0.2,0-0.5-0.1-0.7-0.2v6.4
			c0.2,0.2,0.4,0.2,0.7,0.2h10.9c0.4,0,0.7-0.2,1-0.5L337.5,433z"/>
		<path class="st14" d="M372.1,412.7c-0.1,0.5-0.4,0.8-0.9,0.9l-9.9,0.6c-0.2,0-0.3,0.1-0.5,0.1v6.4c0.2-0.1,0.3-0.1,0.5-0.1
			l9.9-0.6c0.5,0,0.9-0.5,0.9-1L372.1,412.7z M364.1,395.7L364.1,395.7c0,0.1,0,0.1,0,0.2c0,0.1-0.1,0.1-0.1,0.2
			c0,0-0.1,0.1-0.1,0.1l-5.9,4.2c-0.1,0-0.1,0.1-0.1,0.1c-0.1,0.1-0.2,0.2-0.2,0.4c0,0.1,0,0.2,0,0.2v0.1c0,0.1,0.1,0.2,0.2,0.3
			l0.1,0.1c0.8,0.8,1.4,1.8,2,2.8c0.1,0.2,0.3,0.4,0.5,0.5l3.4-2.5c0.2-0.1,0.3-0.3,0.3-0.5l0,0L364.1,395.7z M364.1,423.9
			c0,0.2-0.2,0.4-0.4,0.5l-7.4,4.3c-0.4,0.2-0.8,0.3-1.1,0.2v6.4c0.4,0.1,0.8,0,1.1-0.2l7.4-4.3c0.2-0.1,0.3-0.3,0.4-0.5
			L364.1,423.9z M315.6,425.1c-0.3,0-0.5,0.1-0.7,0.2l-7.5,3.5c-0.2,0.1-0.4,0.1-0.7,0.1v6.4c0.2,0,0.5-0.1,0.7-0.1l7.5-3.5
			c0.2-0.1,0.5-0.2,0.7-0.2L315.6,425.1z M337.5,433c-0.2,0.3-0.6,0.5-0.9,0.5h-10.9c-0.2,0-0.5-0.1-0.7-0.2v6.4
			c0.2,0.2,0.4,0.2,0.7,0.2h10.9c0.4,0,0.7-0.2,1-0.5L337.5,433z"/>
		<path class="st0" d="M354.8,390.8l-7.5,3.5c-0.5,0.2-1.2,0.2-1.7,0.1c-1.9-0.6-3.9-1.1-5.8-1.4c-0.5-0.1-1-0.5-1.1-1.1l-0.9-5
			c-0.1-0.5-0.6-0.9-1.1-0.9h-10.9c-0.5,0-1,0.4-1.1,0.9l-1,5c-0.1,0.5-0.5,0.9-1.1,1.1c-2,0.3-3.9,0.8-5.8,1.4
			c-0.6,0.1-1.2,0.1-1.7-0.1l-7.5-3.5c-0.5-0.2-1.1-0.2-1.6,0.1l-7.4,4.3c-0.3,0.1-0.4,0.4-0.3,0.7c0,0.1,0.1,0.2,0.3,0.3l5.9,4.2
			c0.4,0.2,0.4,0.7,0.2,1.1c0,0-0.1,0.1-0.1,0.1c-0.8,0.9-1.5,1.9-2.1,2.9c-0.3,0.5-0.8,0.8-1.3,0.9L291,406c-0.5,0-0.9,0.5-0.9,1
			v5.5c0,0.5,0.4,1,0.9,1l9.9,0.6c0.6,0.1,1,0.4,1.3,0.9c0.6,1.1,1.3,2,2.1,2.9c0.3,0.3,0.3,0.8,0,1.1c0,0-0.1,0.1-0.1,0.1l-5.9,4.2
			c-0.3,0.1-0.4,0.5-0.2,0.7c0.1,0.1,0.2,0.2,0.3,0.3l7.4,4.3c0.5,0.3,1.1,0.3,1.6,0.1l7.5-3.5c0.5-0.2,1.2-0.2,1.7-0.1
			c1.9,0.6,3.9,1.1,5.9,1.4c0.5,0.1,1,0.5,1.1,1.1l0.9,5c0.1,0.5,0.6,0.9,1.1,0.9h10.9c0.5,0,1-0.4,1.1-0.9l0.9-5
			c0.1-0.5,0.6-0.9,1.1-1.1c2-0.3,3.9-0.8,5.8-1.4c0.6-0.1,1.2-0.1,1.7,0.1l7.5,3.5c0.5,0.2,1.1,0.2,1.6-0.1l7.4-4.3
			c0.3-0.1,0.4-0.4,0.3-0.7c0-0.1-0.1-0.2-0.3-0.3l-5.9-4.2c-0.4-0.2-0.5-0.7-0.2-1.1c0,0,0.1-0.1,0.1-0.1c0.8-0.9,1.5-1.9,2.1-2.9
			c0.3-0.5,0.8-0.8,1.3-0.9l9.9-0.6c0.5,0,0.9-0.5,0.9-1V407c0-0.5-0.4-1-0.9-1l-9.9-0.6c-0.6-0.1-1.1-0.4-1.3-0.9
			c-0.6-1.1-1.3-2-2.1-2.9c-0.3-0.3-0.3-0.8,0-1.1c0,0,0.1-0.1,0.1-0.1l5.9-4.2c0.3-0.1,0.4-0.5,0.2-0.7c-0.1-0.1-0.2-0.2-0.3-0.3
			l-7.4-4.3C355.9,390.6,355.3,390.6,354.8,390.8z M343.6,402.5c6.9,4,6.9,10.5,0,14.5s-18.1,4-25.1,0s-6.9-10.5,0-14.5
			S336.7,398.5,343.6,402.5z"/>
		<path class="st15" d="M354.8,390.8l-7.5,3.5c-0.5,0.2-1.2,0.2-1.7,0.1c-1.9-0.6-3.9-1.1-5.8-1.4c-0.5-0.1-1-0.5-1.1-1.1l-0.9-5
			c-0.1-0.5-0.6-0.9-1.1-0.9h-10.9c-0.5,0-1,0.4-1.1,0.9l-1,5c-0.1,0.5-0.5,0.9-1.1,1.1c-2,0.3-3.9,0.8-5.8,1.4
			c-0.6,0.1-1.2,0.1-1.7-0.1l-7.5-3.5c-0.5-0.2-1.1-0.2-1.6,0.1l-7.4,4.3c-0.3,0.1-0.4,0.4-0.3,0.7c0,0.1,0.1,0.2,0.3,0.3l5.9,4.2
			c0.4,0.2,0.4,0.7,0.2,1.1c0,0-0.1,0.1-0.1,0.1c-0.8,0.9-1.5,1.9-2.1,2.9c-0.3,0.5-0.8,0.8-1.3,0.9L291,406c-0.5,0-0.9,0.5-0.9,1
			v5.5c0,0.5,0.4,1,0.9,1l9.9,0.6c0.6,0.1,1,0.4,1.3,0.9c0.6,1.1,1.3,2,2.1,2.9c0.3,0.3,0.3,0.8,0,1.1c0,0-0.1,0.1-0.1,0.1l-5.9,4.2
			c-0.3,0.1-0.4,0.5-0.2,0.7c0.1,0.1,0.2,0.2,0.3,0.3l7.4,4.3c0.5,0.3,1.1,0.3,1.6,0.1l7.5-3.5c0.5-0.2,1.2-0.2,1.7-0.1
			c1.9,0.6,3.9,1.1,5.9,1.4c0.5,0.1,1,0.5,1.1,1.1l0.9,5c0.1,0.5,0.6,0.9,1.1,0.9h10.9c0.5,0,1-0.4,1.1-0.9l0.9-5
			c0.1-0.5,0.6-0.9,1.1-1.1c2-0.3,3.9-0.8,5.8-1.4c0.6-0.1,1.2-0.1,1.7,0.1l7.5,3.5c0.5,0.2,1.1,0.2,1.6-0.1l7.4-4.3
			c0.3-0.1,0.4-0.4,0.3-0.7c0-0.1-0.1-0.2-0.3-0.3l-5.9-4.2c-0.4-0.2-0.5-0.7-0.2-1.1c0,0,0.1-0.1,0.1-0.1c0.8-0.9,1.5-1.9,2.1-2.9
			c0.3-0.5,0.8-0.8,1.3-0.9l9.9-0.6c0.5,0,0.9-0.5,0.9-1V407c0-0.5-0.4-1-0.9-1l-9.9-0.6c-0.6-0.1-1.1-0.4-1.3-0.9
			c-0.6-1.1-1.3-2-2.1-2.9c-0.3-0.3-0.3-0.8,0-1.1c0,0,0.1-0.1,0.1-0.1l5.9-4.2c0.3-0.1,0.4-0.5,0.2-0.7c-0.1-0.1-0.2-0.2-0.3-0.3
			l-7.4-4.3C355.9,390.6,355.3,390.6,354.8,390.8z M343.6,402.5c6.9,4,6.9,10.5,0,14.5s-18.1,4-25.1,0s-6.9-10.5,0-14.5
			S336.7,398.5,343.6,402.5z"/>
		<g class="st16">
			<path class="st9" d="M336.5,386.6L336.5,386.6c0.3,0,0.5,0.2,0.6,0.5l0.9,5c0.2,0.8,0.8,1.3,1.5,1.5c2,0.3,3.9,0.8,5.8,1.4
				c0.3,0.1,0.6,0.1,0.9,0.1c0.4,0,0.9-0.1,1.2-0.2l7.5-3.5c0.2-0.1,0.3-0.1,0.5-0.1c0.2,0,0.4,0,0.6,0.1l7.4,4.3h0.1l0,0
				c0,0,0,0.1-0.1,0.1l-5.9,4.3c-0.3,0.2-0.5,0.6-0.6,0.9c0,0.4,0.1,0.8,0.4,1.1c0.8,0.9,1.4,1.8,2,2.8c0.4,0.6,1,1.1,1.8,1.2
				l9.9,0.6c0.2,0,0.4,0.2,0.4,0.5v5.5c0,0.2-0.2,0.4-0.4,0.5l-9.9,0.6c-0.7,0.1-1.4,0.5-1.8,1.2c-0.6,1-1.2,2-2,2.8
				c-0.3,0.3-0.4,0.7-0.4,1.1c0,0.4,0.2,0.7,0.6,0.9l5.9,4.2l0.1,0l0,0l-0.1,0.1l-7.4,4.3c-0.2,0.1-0.4,0.1-0.6,0.1
				c-0.2,0-0.3,0-0.5-0.1l-7.5-3.5c-0.4-0.2-0.8-0.3-1.2-0.2c-0.3,0-0.6,0-0.9,0.1c-1.9,0.6-3.8,1-5.8,1.4c-0.8,0.1-1.4,0.7-1.5,1.5
				l-0.9,5c-0.1,0.3-0.3,0.5-0.6,0.5h-10.9c-0.3,0-0.5-0.2-0.6-0.5l-0.9-5c-0.2-0.8-0.8-1.3-1.5-1.5c-2-0.3-3.9-0.8-5.8-1.4
				c-0.3-0.1-0.6-0.1-0.8-0.1c-0.4,0-0.9,0.1-1.3,0.2l-7.5,3.5c-0.2,0.1-0.3,0.1-0.5,0.1c-0.2,0-0.4,0-0.6-0.1l-7.4-4.3h-0.1l0,0
				l0.1-0.1l5.9-4.2c0.3-0.2,0.5-0.6,0.6-0.9c0-0.4-0.1-0.8-0.4-1.1c-0.8-0.9-1.4-1.8-2-2.8c-0.4-0.6-1-1.1-1.8-1.2L291,413
				c-0.2,0-0.4-0.2-0.4-0.5V407c0-0.2,0.2-0.4,0.4-0.5l9.9-0.6c0.7-0.1,1.4-0.5,1.8-1.2c0.6-1,1.2-2,2-2.8c0.3-0.3,0.4-0.7,0.4-1.1
				c0-0.4-0.2-0.7-0.6-0.9l-5.9-4.2l-0.1,0l0,0c0,0,0,0,0.1-0.1l7.4-4.3c0.2-0.1,0.4-0.1,0.6-0.1c0.2,0,0.3,0,0.5,0.1l7.5,3.5
				c0.4,0.2,0.9,0.3,1.3,0.3c0.3,0,0.6,0,0.8-0.1c1.9-0.6,3.8-1,5.8-1.4c0.8-0.1,1.4-0.7,1.5-1.5l0.9-5c0.1-0.3,0.3-0.5,0.6-0.5
				L336.5,386.6 M331.1,420.5c4.5,0.1,8.9-1,12.8-3.1c3.5-2,5.5-4.8,5.5-7.7s-1.9-5.7-5.5-7.7c-8-4.1-17.6-4.1-25.6,0
				c-3.5,2-5.5,4.8-5.5,7.7s1.9,5.7,5.5,7.7C322.2,419.5,326.7,420.6,331.1,420.5 M336.6,386h-11c-0.5,0-1,0.4-1.1,0.9l-1,5
				c-0.1,0.5-0.5,0.9-1.1,1.1c-2,0.3-3.9,0.8-5.8,1.4c-0.2,0.1-0.5,0.1-0.7,0.1c-0.3,0-0.7-0.1-1-0.2l-7.5-3.5
				c-0.2-0.1-0.5-0.1-0.7-0.1c-0.3,0-0.6,0.1-0.9,0.2l-7.4,4.3c-0.3,0.1-0.4,0.4-0.3,0.7c0,0.1,0.1,0.2,0.3,0.3l5.9,4.2
				c0.4,0.2,0.4,0.7,0.2,1.1c0,0-0.1,0.1-0.1,0.1c-0.8,0.9-1.5,1.9-2.1,2.9c-0.3,0.5-0.8,0.8-1.3,0.9L291,406c-0.5,0-0.9,0.5-0.9,1
				v5.5c0,0.5,0.4,1,0.9,1l9.9,0.6c0.6,0.1,1,0.4,1.3,0.9c0.6,1.1,1.3,2,2.1,2.9c0.3,0.3,0.3,0.8,0,1.1c0,0-0.1,0.1-0.1,0.1
				l-5.9,4.2c-0.3,0.1-0.4,0.5-0.2,0.7c0.1,0.1,0.2,0.2,0.3,0.3l7.4,4.3c0.3,0.1,0.6,0.2,0.9,0.2c0.3,0,0.5,0,0.7-0.1l7.5-3.5
				c0.3-0.1,0.7-0.2,1-0.2c0.2,0,0.5,0,0.7,0.1c1.9,0.6,3.9,1.1,5.9,1.4c0.5,0.1,1,0.5,1.1,1.1l0.9,5c0.1,0.5,0.6,0.9,1.1,0.9h10.9
				c0.5,0,1-0.4,1.1-0.9l0.9-5c0.1-0.5,0.6-0.9,1.1-1.1c2-0.3,3.9-0.8,5.8-1.4c0.2-0.1,0.5-0.1,0.7-0.1c0.3,0,0.7,0.1,1,0.2l7.5,3.5
				c0.2,0.1,0.5,0.1,0.7,0.1c0.3,0,0.6-0.1,0.9-0.2l7.4-4.3c0.3-0.1,0.4-0.4,0.3-0.7c0-0.1-0.1-0.2-0.3-0.3l-5.8-4.2
				c-0.4-0.2-0.5-0.7-0.2-1.1c0,0,0.1-0.1,0.1-0.1c0.8-0.9,1.5-1.9,2.1-2.9c0.3-0.5,0.8-0.8,1.3-0.9l9.9-0.6c0.5,0,0.9-0.5,0.9-1
				V407c0-0.5-0.4-1-0.9-1l-9.9-0.6c-0.6-0.1-1.1-0.4-1.3-0.9c-0.6-1.1-1.3-2-2.1-2.9c-0.3-0.3-0.3-0.8,0-1.1c0,0,0.1-0.1,0.1-0.1
				l5.9-4.2c0.3-0.1,0.4-0.5,0.2-0.7c-0.1-0.1-0.2-0.2-0.3-0.3l-7.4-4.3c-0.3-0.1-0.6-0.2-0.9-0.2c-0.2,0-0.5,0-0.7,0.1l-7.5,3.5
				c-0.3,0.1-0.7,0.2-1,0.2c-0.2,0-0.5,0-0.7-0.1c-1.9-0.6-3.9-1.1-5.8-1.4c-0.5-0.1-1-0.5-1.1-1.1l-0.9-5
				C337.6,386.4,337.1,386,336.6,386L336.6,386z M331.1,420c-4.4,0.1-8.7-0.9-12.5-3c-6.9-4-6.9-10.5,0-14.5c7.9-4,17.2-4,25.1,0
				c6.9,4,6.9,10.5,0,14.5C339.8,419,335.4,420.1,331.1,420L331.1,420z"/>
		</g>
	</g>
</g>
<g id="freepik--frames-1--inject-73">
	<g id="freepik--frame--inject-73_00000031898538870294762170000007492775835453974154_">
		<path class="st0" d="M236.1,174.6h-1v-1.5c0-0.1,0-0.2,0-0.2l-0.1-0.2v-0.1v-0.1l-0.1-0.1l-0.2-0.2h-0.1c-0.1,0-0.3,0-0.5,0
			l-0.2-1c0.3-0.1,0.7,0,1,0.1c0.1,0,0.2,0.1,0.3,0.1l0.1,0.1c0.1,0,0.1,0.1,0.1,0.1l0.1,0.1c0,0.1,0.1,0.1,0.1,0.2
			c0.1,0.1,0.1,0.2,0.2,0.4c0,0.1,0,0.1,0,0.2l0.1,0.1v0.1c0,0,0,0.1,0,0.1c0,0.1,0,0.2,0,0.3L236.1,174.6z"/>
		<path class="st0" d="M185.1,280.9c-0.1,0-0.3,0-0.4,0c-0.1,0-0.2-0.1-0.3-0.1c-0.1,0-0.1-0.1-0.2-0.1c-0.3-0.2-0.6-0.5-0.8-0.9
			c-0.2-0.4-0.3-0.8-0.3-1.3v-1.1h1v1.1c0,0.3,0.1,0.6,0.2,0.9c0.1,0.2,0.2,0.4,0.4,0.5l0.1,0.1v0.5l0.1-0.5c0.1,0,0.1,0,0.2,0
			l0.1,1L185.1,280.9z M188.8,279.1l-0.5-0.9l3.3-1.9l0.5,0.8L188.8,279.1z M195.5,275.2l-0.5-0.8l3.3-1.9l0.5,0.8L195.5,275.2z
			 M184.2,273.6h-1v-3.8h1V273.6z M202.1,271.4l-0.5-0.8l3.3-1.9l0.5,0.9L202.1,271.4z M208.8,267.5l-0.5-0.8l3.3-1.9l0.5,0.8
			L208.8,267.5z M184.2,265.9h-1V262h1V265.9z M215.4,263.7l-0.5-0.8l3.3-1.9l0.5,0.8L215.4,263.7z M222.1,259.8l-0.5-0.9l3.3-1.9
			l0.5,0.8L222.1,259.8z M184.2,258.2h-1v-3.8h1V258.2z M228.7,256l-0.5-0.8l3.3-1.9l0.5,0.8L228.7,256z M235.2,251.6l-0.8-0.5
			c0.4-0.6,0.6-1.3,0.7-2.1v-1.4h1v1.3C236.1,249.9,235.8,250.8,235.2,251.6L235.2,251.6z M184.2,250.5h-1v-3.8h1V250.5z
			 M236.1,243.8h-1V240h1V243.8z M184.2,242.8h-1V239h1V242.8z M236.1,236.1h-1v-3.8h1V236.1z M184.2,235.1h-1v-3.8h1V235.1z
			 M236.1,228.5h-1v-3.8h1V228.5z M184.2,227.5h-1v-3.8h1V227.5z M236.1,220.8h-1v-3.8h1V220.8z M184.2,219.8h-1v-3.8h1V219.8z
			 M236.1,213.1h-1v-3.8h1V213.1z M184.2,212.1h-1v-3.9h1V212.1z M236.1,205.4h-1v-3.8h1V205.4z M184.2,204.4h-1v-1.3
			c0-1,0.3-1.9,0.9-2.7l0.8,0.5c-0.4,0.6-0.7,1.4-0.7,2.1L184.2,204.4z M187.8,198.9l-0.5-0.9l3.3-1.9l0.5,0.9L187.8,198.9z
			 M236.1,197.7h-1v-3.8h1V197.7z M194.4,195l-0.5-0.9l3.3-1.9l0.5,0.9L194.4,195z M201.1,191.2l-0.5-0.9l3.3-1.9l0.5,0.9
			L201.1,191.2z M236.1,190h-1v-3.9h1V190z M207.8,187.3l-0.5-0.9l3.3-1.9l0.5,0.8L207.8,187.3z M214.4,183.5l-0.5-0.8l3.3-1.9
			l0.5,0.8L214.4,183.5z M236.1,182.3h-1v-3.8h1V182.3z M221.1,179.6l-0.5-0.9l3.3-1.9l0.5,0.9L221.1,179.6z M227.7,175.8l-0.5-0.9
			l3.3-1.9l0.5,0.8L227.7,175.8z"/>
	</g>
	<g id="freepik--frame--inject-73_00000144313949185013310780000008956862760741627314_">
		<path class="st0" d="M236.1,285.6h-1v-1.5c0-0.1,0-0.2,0-0.2l-0.1-0.2v-0.1v-0.1l-0.1-0.1l-0.2-0.2h-0.1c-0.1-0.1-0.3-0.1-0.5,0
			l-0.2-1c0.3-0.1,0.7,0,1,0.1l0.3,0.1l0.1,0.1c0.1,0,0.1,0.1,0.1,0.1l0,0l0.1,0.1c0,0.1,0.1,0.1,0.1,0.2c0.1,0.1,0.1,0.2,0.2,0.4
			c0,0.1,0,0.1,0.1,0.2l0.1,0.1v0.1c0,0,0,0.1,0,0.1s0,0.2,0,0.3L236.1,285.6z"/>
		<path class="st0" d="M185.1,391.8c-0.1,0-0.2,0-0.4,0c-0.1,0-0.2-0.1-0.3-0.1l-0.2-0.1c-0.3-0.2-0.6-0.5-0.8-0.9
			c-0.2-0.4-0.3-0.8-0.3-1.3v-1.1h1v1.1c0,0.3,0.1,0.6,0.2,0.9c0.1,0.2,0.2,0.4,0.4,0.5l0.2,0.1h0.1l0.1,1L185.1,391.8z M188.8,390
			l-0.5-0.8l3.3-1.9l0.5,0.8L188.8,390z M195.5,386.1l-0.5-0.8l3.3-1.9l0.5,0.8L195.5,386.1z M184.2,384.5h-1v-3.8h1V384.5z
			 M202.1,382.3l-0.5-0.8l3.3-1.9l0.5,0.8L202.1,382.3z M208.8,378.4l-0.5-0.8l3.3-1.9l0.5,0.8L208.8,378.4z M184.2,376.8h-1v-3.8h1
			V376.8z M215.4,374.6l-0.5-0.8l3.3-1.9l0.5,0.8L215.4,374.6z M222.1,370.8l-0.5-0.9l3.3-1.9l0.5,0.8L222.1,370.8z M184.2,369.1h-1
			v-3.8h1V369.1z M228.7,366.9l-0.5-0.8l3.3-1.9l0.5,0.8L228.7,366.9z M235.2,362.5l-0.8-0.5c0.4-0.6,0.6-1.3,0.7-2.1v-1.4h1v1.4
			C236.1,360.9,235.8,361.8,235.2,362.5L235.2,362.5z M184.2,361.4h-1v-3.8h1V361.4z M236.1,354.7h-1v-3.8h1V354.7z M184.2,353.7h-1
			v-3.9h1V353.7z M236.1,347h-1v-3.8h1V347z M184.2,346h-1v-3.8h1V346z M236.1,339.4h-1v-3.8h1V339.4z M184.2,338.4h-1v-3.8h1V338.4
			z M236.1,331.7h-1v-3.9h1V331.7z M184.2,330.7h-1v-3.8h1V330.7z M236.1,324h-1v-3.8h1V324z M184.2,323h-1v-3.8h1V323z
			 M236.1,316.3h-1v-3.8h1V316.3z M184.2,315.3h-1V314c0-1,0.3-1.9,0.9-2.7l0.8,0.5c-0.4,0.6-0.7,1.4-0.7,2.1L184.2,315.3z
			 M187.8,309.8l-0.5-0.9l3.3-1.9l0.5,0.9L187.8,309.8z M236.1,308.6h-1v-3.8h1V308.6z M194.4,305.9l-0.5-0.9l3.3-1.9l0.5,0.9
			L194.4,305.9z M201.1,302.1l-0.5-0.9l3.3-1.9l0.5,0.9L201.1,302.1z M236.1,300.9h-1v-3.8h1V300.9z M207.8,298.3l-0.5-0.9l3.3-1.9
			l0.5,0.9L207.8,298.3z M214.4,294.4l-0.5-0.9l3.3-1.9l0.5,0.9L214.4,294.4z M236.1,293.3h-1v-3.8h1V293.3z M221.1,290.6l-0.5-0.9
			l3.3-1.9l0.5,0.9L221.1,290.6z M227.7,286.7l-0.5-0.9l3.3-1.9l0.5,0.9L227.7,286.7z"/>
	</g>
</g>
<g id="freepik--Code--inject-73">
	<g id="freepik--code-icon--inject-73">
		<g id="freepik--speech-bubble--inject-73">
			<path class="st0" d="M372.9,36.1L324.5,64c-1.1,0.7-1.7,1.8-1.8,3.1v44.8c0.1,1.3,0.7,2.4,1.8,3.1l3.4,1.9c1.1,0.6,2.5,0.6,3.6,0
				L379.9,89c1.1-0.7,1.7-1.8,1.8-3.1V41.1c-0.1-1.3-0.7-2.4-1.8-3.1l-3.4-1.9C375.3,35.5,374,35.5,372.9,36.1z"/>
			<path class="st17" d="M331.5,116.9c-1.1,0.5-2.5,0.5-3.6,0l-3.4-1.9c-1.1-0.7-1.7-1.8-1.8-3.1V67.1c0-0.6,0.2-1.3,0.6-1.8l7,4
				c-0.3,0.5-0.5,1.1-0.5,1.8v44.8C329.7,116.9,330.5,117.5,331.5,116.9z"/>
			<g class="st18">
				<path class="st9" d="M381.6,40.7c-0.1-0.9-0.9-1.2-1.8-0.7l-48.4,27.9c-0.5,0.3-1,0.8-1.3,1.3l-7-4c0.3-0.5,0.7-1,1.3-1.3
					l48.4-27.9c1.1-0.6,2.5-0.6,3.6,0l3.4,1.9C380.8,38.6,381.5,39.6,381.6,40.7z"/>
			</g>
			<path class="st0" d="M379.9,40l-48.4,27.9c-1,0.7-1.7,1.8-1.8,3.1v44.8c0,1.1,0.8,1.6,1.8,1L379.9,89c1.1-0.7,1.7-1.8,1.8-3.1
				V41.1C381.7,39.9,380.9,39.5,379.9,40z"/>
		</g>
		<g id="freepik----inject-73">
			<path class="st9" d="M334.5,90.2c0-0.4,0.1-0.8,0.2-1.1c0.2-0.3,0.3-0.7,0.6-1l10.5-17c0-0.1,0.1-0.1,0.2-0.2
				c0,0,0.1-0.1,0.1-0.1c0.1-0.1,0.3-0.1,0.4,0c0.1,0.1,0.2,0.3,0.2,0.5V78c0,0.5-0.1,1-0.3,1.4c-0.2,0.3-0.3,0.6-0.5,0.9l-4.6,7.1
				l4.6,1.8c0.2,0.1,0.4,0.1,0.5,0.3c0.2,0.1,0.3,0.5,0.3,1v6.6c0,0.2-0.1,0.5-0.2,0.7c-0.1,0.2-0.2,0.4-0.4,0.5H346
				c-0.1,0-0.1,0-0.2,0l-10.5-4.9c-0.2-0.1-0.4-0.2-0.6-0.4c-0.2-0.3-0.2-0.6-0.2-0.9V90.2z"/>
			<path class="st9" d="M357.5,61.4c0.1-0.4,0.2-0.7,0.4-1.1c0.2-0.3,0.4-0.6,0.8-0.8l3.5-2c0.1-0.1,0.3-0.1,0.4,0
				c0.1,0.1,0.2,0.3,0.2,0.5c0,0.1,0,0.3,0,0.4l-8.9,38c-0.1,0.3-0.2,0.7-0.4,1c-0.2,0.4-0.4,0.7-0.8,0.9l-3.5,2
				c-0.1,0.1-0.3,0.1-0.4,0c-0.1-0.1-0.2-0.3-0.2-0.5c0-0.1,0-0.3,0-0.4L357.5,61.4z"/>
			<path class="st9" d="M376.9,67.5c0,0.4-0.1,0.8-0.2,1.1c-0.2,0.3-0.3,0.7-0.6,1l-10.5,17c0,0.1-0.1,0.1-0.2,0.2
				c0,0-0.1,0.1-0.1,0.1c-0.1,0.1-0.3,0.1-0.4,0c-0.1-0.1-0.2-0.3-0.2-0.5v-6.5c0-0.5,0.1-0.9,0.3-1.3c0.2-0.4,0.4-0.7,0.5-0.9
				l4.6-7.1l-4.6-1.8c-0.2-0.1-0.4-0.2-0.5-0.3c-0.2-0.1-0.3-0.5-0.3-1v-6.6c0-0.2,0.1-0.5,0.2-0.7c0.1-0.2,0.2-0.4,0.4-0.5h0.1
				c0.1,0,0.1,0,0.2,0l10.5,4.9c0.2,0.1,0.4,0.2,0.6,0.4c0.2,0.3,0.2,0.6,0.2,0.9V67.5z"/>
		</g>
	</g>
</g>
<g id="freepik--Image--inject-73">
	<g id="freepik--image--inject-73">
		<path id="freepik--shadow--inject-73_00000129181298639707704360000005197576159635437206_" class="st19" d="M307.7,129.4
			c-0.3,0-0.7,0.1-0.9,0.3l-47.6,27.5c-1.3,0.8-2,2.2-2.1,3.7v75.3c0,0.4,0.1,0.7,0.2,1.1c0.1,0.3,0.3,0.5,0.6,0.7l0.2,0.1
			c0.1,0,0.1,0.1,0.2,0.1c0.1,0,0.2,0,0.3,0l0,0c0.2,0,0.5-0.1,0.7-0.2l47.6-27.5c1.3-0.8,2-2.2,2.1-3.7v-75.8c0-0.1,0-0.2,0-0.3
			c0-0.1,0-0.1,0-0.2l0,0c0-0.1,0-0.1,0-0.2c0-0.1-0.1-0.2-0.1-0.3l-0.1-0.1l-0.1-0.1l-0.1-0.1l0,0c-0.1,0-0.1-0.1-0.2-0.1
			C308.1,129.4,307.9,129.4,307.7,129.4L307.7,129.4z"/>
		<g id="freepik--window--inject-73_00000128483861740227265540000004103946289248850098_">
			<path class="st3" d="M318.4,133.7c-0.3,0-0.7,0.1-0.9,0.3l-47.6,27.5c-1.3,0.8-2,2.2-2.1,3.7v75.3c0,0.4,0.1,0.7,0.2,1.1
				c0.1,0.3,0.3,0.5,0.6,0.7c0.1,0,0.1,0.1,0.2,0.1c0.1,0,0.1,0,0.2,0.1h0.3l0,0c0.2,0,0.5-0.1,0.7-0.2l47.6-27.5
				c1.3-0.8,2-2.2,2.1-3.7v-75.8c0-0.1,0-0.2,0-0.3c0-0.1,0-0.1,0-0.2l0,0c0-0.1,0-0.1,0-0.2c0-0.1-0.1-0.2-0.1-0.3
				c0,0,0-0.1-0.1-0.1c0,0,0-0.1-0.1-0.1l-0.1-0.1l0,0l-0.2-0.1C318.7,133.8,318.6,133.7,318.4,133.7L318.4,133.7z"/>
			<path class="st1" d="M318.9,133.8c-0.5-0.2-1-0.1-1.4,0.2l-47.6,27.5c-0.6,0.4-1.1,0.9-1.5,1.6l0,0l-5.5-3.1
				c0.3-0.6,0.9-1.2,1.5-1.6l47.7-27.5c0.4-0.3,1-0.4,1.5-0.1C313.9,131,318.4,133.6,318.9,133.8z"/>
			<path class="st11" d="M307.5,142.6c-0.8,0.6-1.2,1.6-1.2,2.6c0,1,0.5,1.5,1.2,1.1c0.8-0.6,1.2-1.6,1.2-2.5
				C308.7,142.8,308.1,142.3,307.5,142.6z"/>
			<path class="st11" d="M311.8,140.1c-0.8,0.6-1.2,1.6-1.2,2.6c0,1,0.5,1.5,1.2,1.1c0.8-0.6,1.2-1.6,1.2-2.5
				C313,140.3,312.5,139.8,311.8,140.1z"/>
			<path class="st11" d="M316.1,137.6c-0.8,0.6-1.2,1.6-1.2,2.6c0,1,0.5,1.5,1.2,1.1c0.8-0.6,1.2-1.6,1.2-2.5
				C317.3,137.8,316.8,137.3,316.1,137.6z"/>
			<path class="st2" d="M267.9,241.6c-0.1-0.3-0.2-0.7-0.2-1.1v-68.4l0,0v-7c0-0.7,0.2-1.5,0.6-2.1l-5.5-3.1
				c-0.4,0.6-0.6,1.4-0.6,2.1v7l0,0v68.4c0,0.4,0.1,0.8,0.2,1.1c0.1,0.3,0.4,0.5,0.6,0.7c0,0,4.9,2.8,5.1,2.9l0.3,0.1
				C268.2,242.1,268,241.8,267.9,241.6z"/>
		</g>
		<path class="st0" d="M311.4,204.4L275.8,225c-1.6,0.9-2.8-0.1-2.8-2.1v-45.7c0-2.1,1.1-4.2,2.8-5.4l35.6-20.6
			c1.6-0.9,2.8,0.1,2.8,2.1V199C314.2,201.1,313.1,203.1,311.4,204.4z"/>
		<polygon class="st11" points="277.4,214 309.8,195.2 301.7,183.4 297.6,194.2 288.6,174.4 		"/>
		<ellipse transform="matrix(0.3915 -0.9202 0.9202 0.3915 26.545 382.2766)" class="st11" cx="302.3" cy="171.1" rx="5.2" ry="3"/>
	</g>
</g>
<g id="freepik--Typography--inject-73">
	<g id="freepik--Type--inject-73">
		<path id="freepik--shadow--inject-73_00000099625125468026588950000010150561347748719498_" class="st19" d="M307.7,240.4
			c-0.3,0-0.7,0.1-0.9,0.3l-47.6,27.5c-1.3,0.8-2,2.2-2.1,3.7v75.3c0,0.4,0.1,0.7,0.2,1.1c0.1,0.3,0.3,0.5,0.6,0.7l0.2,0.1l0.2,0.1
			h0.3l0,0c0.2,0,0.5-0.1,0.7-0.2l47.6-27.5c1.3-0.8,2-2.2,2.1-3.7v-75.8c0-0.1,0-0.2,0-0.3c0-0.1,0-0.1,0-0.2l0,0
			c0-0.1,0-0.1,0-0.2c0-0.1-0.1-0.2-0.1-0.3c0,0,0-0.1-0.1-0.1l-0.1-0.1l-0.1-0.1l0,0l-0.2-0.1C308.1,240.5,307.9,240.4,307.7,240.4
			L307.7,240.4z"/>
		<g id="freepik--window--inject-73_00000094609530143179967810000014147539141454268851_">
			<path class="st3" d="M318.4,244.7c-0.3,0-0.7,0.1-0.9,0.3l-47.6,27.5c-1.3,0.8-2,2.2-2.1,3.7v75.3c0,0.4,0.1,0.7,0.2,1.1
				c0.1,0.3,0.3,0.5,0.6,0.7l0.2,0.1l0.2,0.1c0.1,0,0.2,0,0.3,0l0,0c0.2,0,0.5-0.1,0.7-0.2l47.6-27.5c1.3-0.8,2-2.2,2.1-3.7v-75.8
				c0-0.1,0-0.2,0-0.3c0-0.1,0-0.1,0-0.2l0,0c0-0.1,0-0.1,0-0.2c0-0.1-0.1-0.2-0.1-0.3c0,0,0-0.1-0.1-0.1c0,0,0-0.1-0.1-0.1
				c0-0.1-0.1-0.1-0.1-0.1l0,0l-0.2-0.1C318.7,244.8,318.6,244.8,318.4,244.7L318.4,244.7z"/>
			<path class="st1" d="M318.9,244.8c-0.5-0.2-1-0.1-1.4,0.2l-47.6,27.5c-0.6,0.4-1.1,0.9-1.5,1.6l0,0l-5.5-3.1
				c0.3-0.6,0.9-1.2,1.5-1.5l47.7-27.5c0.4-0.3,1-0.4,1.5-0.1C313.9,242,318.4,244.6,318.9,244.8z"/>
			<path class="st11" d="M307.5,253.7c-0.8,0.6-1.2,1.6-1.2,2.5c0,1,0.5,1.5,1.2,1.1c0.8-0.6,1.2-1.6,1.2-2.5
				C308.7,253.8,308.1,253.3,307.5,253.7z"/>
			<path class="st11" d="M311.8,251.2c-0.8,0.6-1.2,1.6-1.2,2.5c0,1,0.5,1.5,1.2,1.2c0.8-0.6,1.2-1.6,1.2-2.5
				C313,251.3,312.5,250.8,311.8,251.2z"/>
			<path class="st11" d="M316.1,248.7c-0.8,0.6-1.2,1.6-1.2,2.5c0,1,0.5,1.5,1.2,1.2c0.8-0.6,1.2-1.6,1.2-2.5
				C317.3,248.8,316.8,248.3,316.1,248.7z"/>
			<path class="st2" d="M267.9,352.6c-0.1-0.3-0.2-0.7-0.2-1.1v-68.4l0,0v-7c0-0.7,0.2-1.5,0.6-2.1l-5.4-3.1
				c-0.4,0.6-0.6,1.4-0.6,2.1v6.9l0,0v68.4c0,0.4,0.1,0.8,0.2,1.1c0.1,0.3,0.4,0.5,0.6,0.7c0,0,4.9,2.8,5.1,2.9l0.3,0.2
				C268.2,353.1,268,352.9,267.9,352.6z"/>
		</g>
		<path class="st0" d="M311.4,315.4L275.8,336c-1.6,0.9-2.8-0.1-2.8-2.1v-45.7c0-2.1,1.1-4.2,2.8-5.4l35.6-20.6
			c1.6-0.9,2.8,0.1,2.8,2.1V310C314.2,312.2,313.2,314.2,311.4,315.4z"/>
		<path class="st11" d="M309.2,297.5v-7.2c0-3.9-1.1-7.2-5.8-4.6c-2,1.2-3.7,2.7-5,4.6l0.6,2c1.1-1.5,2.4-2.8,4-3.7
			c3.1-1.8,3.5,0.9,3.5,2.5v0.4c-5.9,3.4-9.1,7.8-9.1,12.5c0,2.8,1.6,4.6,4.6,2.9c2.1-1.3,3.7-3.3,4.6-5.6l0.1,0l0.2,2.3l2.5-1.5
			C309.3,300.5,309.2,299,309.2,297.5z M306.6,297.1c0,0.4-0.1,0.8-0.2,1.2c-0.5,2.2-1.8,4.1-3.7,5.4c-1.4,0.8-2.6,0.4-2.6-1.9
			c0-3.8,3.4-6.4,6.4-8.1V297.1z M284.9,289.2l-7.2,31.1l2.8-1.6l2.2-9.7l7.5-4.3l2.3,7.2l2.9-1.7l-7.2-22.8L284.9,289.2z
			 M283.3,305.9l2.1-9c0.4-1.9,0.8-3.7,1.1-5.5h0.1c0.3,1.4,0.6,2.8,1.1,4.3l2.1,6.5L283.3,305.9z"/>
	</g>
</g>
<g id="freepik--Tool--inject-73">
	<g id="freepik--Design--inject-73">
		<path id="freepik--shadow--inject-73_00000114796069551129815440000012061765283904217265_" class="st19" d="M203.8,337.9
			c-0.3,0-0.7,0.1-0.9,0.3l-47.6,27.5c-1.3,0.8-2.1,2.2-2.1,3.7v75.3c0,0.4,0.1,0.7,0.2,1.1c0.1,0.3,0.3,0.5,0.6,0.7l0.2,0.1
			c0.1,0,0.1,0.1,0.2,0.1c0.1,0,0.2,0,0.3,0l0,0c0.2,0,0.5-0.1,0.7-0.2l47.7-27.4c1.3-0.8,2-2.2,2.1-3.7v-75.9c0-0.1,0-0.2,0-0.3
			c0-0.1,0-0.1,0-0.2l0,0c0-0.1,0-0.1,0-0.2c0-0.1-0.1-0.2-0.1-0.3l-0.1-0.1l-0.1-0.1c0-0.1-0.1-0.1-0.1-0.1l0,0
			c-0.1,0-0.1-0.1-0.2-0.1c-0.2-0.1-0.3-0.1-0.5-0.1L203.8,337.9z"/>
		<g id="freepik--window--inject-73_00000165915967045355725040000011714434938819249303_">
			<path class="st3" d="M214.5,342.2c-0.3,0-0.7,0.1-0.9,0.3L165.9,370c-1.3,0.8-2,2.2-2.1,3.7V449c0,0.4,0.1,0.7,0.2,1.1
				c0.1,0.3,0.3,0.5,0.6,0.7l0.2,0.1l0.2,0.1c0.1,0,0.2,0,0.3,0l0,0c0.2,0,0.5-0.1,0.7-0.2l47.7-27.5c1.3-0.8,2-2.2,2.1-3.7v-75.8
				c0-0.1,0-0.2,0-0.3c0-0.1,0-0.1,0-0.2l0,0c0-0.1,0-0.1-0.1-0.2c0-0.1-0.1-0.2-0.1-0.3c0,0,0-0.1-0.1-0.1c0,0,0-0.1-0.1-0.1
				l-0.1-0.1l0,0c-0.1,0-0.1-0.1-0.2-0.1C214.8,342.3,214.7,342.3,214.5,342.2L214.5,342.2z"/>
			<path class="st1" d="M214.9,342.3c-0.5-0.2-1-0.1-1.4,0.2L165.9,370c-0.6,0.4-1.1,0.9-1.5,1.6l0,0l-5.4-3.1
				c0.3-0.6,0.9-1.2,1.5-1.5l47.6-27.5c0.5-0.3,1.1-0.4,1.6-0.1C210,339.5,214.5,342.1,214.9,342.3z"/>
			<path class="st11" d="M203.6,351.2c-0.8,0.6-1.2,1.6-1.2,2.5c0,1,0.5,1.5,1.2,1.1c0.8-0.6,1.2-1.6,1.2-2.5
				C204.8,351.3,204.2,350.8,203.6,351.2z"/>
			<path class="st11" d="M207.9,348.7c-0.8,0.6-1.2,1.6-1.2,2.5c0,1,0.5,1.5,1.2,1.1c0.8-0.6,1.2-1.6,1.2-2.5
				C209.1,348.8,208.6,348.3,207.9,348.7z"/>
			<path class="st11" d="M212.2,346.2c-0.8,0.6-1.2,1.6-1.2,2.5c0,1,0.5,1.5,1.2,1.1c0.8-0.6,1.2-1.6,1.2-2.5
				C213.4,346.3,212.9,345.8,212.2,346.2z"/>
			<path class="st2" d="M164,450.1c-0.2-0.3-0.2-0.7-0.2-1.1v-68.4l0,0v-7c0-0.7,0.2-1.5,0.6-2.1l-5.4-3.1c-0.4,0.6-0.6,1.4-0.6,2.1
				v6.9l0,0v68.4c0,0.4,0.1,0.8,0.2,1.1c0.1,0.3,0.4,0.5,0.6,0.7l5.1,2.9l0.3,0.1C164.3,450.6,164.1,450.4,164,450.1z"/>
		</g>
		<path class="st0" d="M207.5,413l-35.6,20.6c-1.6,0.9-2.8-0.1-2.8-2.1v-45.7c0-2.1,1.1-4.2,2.8-5.4l35.6-20.6
			c1.6-0.9,2.8,0,2.8,2.1v45.7C210.3,409.7,209.3,411.7,207.5,413z"/>
		<path class="st9" d="M184.4,385.2h0.1h0.1l10.1-5.9c0.2-0.2,0.4-0.4,0.4-0.7v-4.5c0-0.2-0.2-0.3-0.4-0.2l-10.1,5.9
			c-0.1,0.1-0.2,0.2-0.3,0.3c-0.1,0.1-0.1,0.3-0.1,0.4v4.5C184.2,385.1,184.3,385.2,184.4,385.2z M184.5,386.1L184.5,386.1z
			 M189.4,415.5v-18.8c-0.6,0.2-1.1-0.2-1.1-1.1c0-1,0.5-2,1.4-2.6c0.8-0.4,1.4,0,1.4,1c0,0.9-0.4,1.8-1.1,2.4v18.8l6.9-22.5
			c0.1-0.3,0-0.6-0.2-0.8c-2-2.6-3.1-5.7-3.3-9c0-0.2-0.1-0.3-0.3-0.3c-0.1,0-0.1,0-0.2,0.1l-6.4,3.7c-0.3,0.2-0.4,0.4-0.5,0.7
			c-0.5,4.5-1.6,9-3.4,13.1c-0.1,0.3-0.1,0.6,0,0.9L189.4,415.5z M202.4,409.1c-0.5,0-0.9,0.4-0.9,1c0,0.1,0,0.2,0,0.3l-8.9,5.1
			c5.4-4.6,9.6-12.4,9.9-19.3c0.5-0.1,0.9-0.6,0.8-1.2c-0.1-0.5-0.6-0.9-1.2-0.8s-0.9,0.6-0.8,1.2c0.1,0.4,0.4,0.7,0.8,0.8
			c-0.4,7.9-5.9,17.1-12.6,21c-3.3,1.9-6.5,2.2-8.8,0.9c-2.2-1.2-3.4-3.8-3.6-7.2c0.4-0.1,0.7-0.5,0.7-0.9c0-0.5-0.4-0.9-1-0.9
			c-0.5,0-0.9,0.4-0.9,0.9c0,0.5,0.3,0.9,0.8,0.9c0.2,3.5,1.5,6.1,3.8,7.5c1,0.6,2.2,0.9,3.4,0.9c1,0,2-0.2,2.9-0.5l-9.2,5.4
			c0,0-0.1-0.1-0.1-0.1l0,0c-0.2-0.1-0.4-0.2-0.6-0.2c-0.5,0-0.9,0.5-0.9,1c0,0.5,0.5,0.9,1,0.9c0.5,0,0.9-0.4,0.9-0.9
			c0-0.1,0-0.2-0.1-0.3l23.9-13.8l0.2,0.2l0,0c0.2,0.1,0.3,0.2,0.5,0.2c0.5,0,1-0.4,1-0.9C203.4,409.6,203,409.2,202.4,409.1
			C202.5,409.2,202.5,409.2,202.4,409.1L202.4,409.1z"/>
	</g>
</g>
<g id="freepik--speech-bubble--inject-73_00000121963026583254295510000008668385130327488164_">
	<g id="freepik--speech-bubble--inject-73_00000080175555834324795760000004509259203839624869_">
		<g id="freepik--speech-bubble--inject-73_00000081630980853101693140000005572252668392107680_">
			<path class="st0" d="M68.7,143l-4.2-7.9l3.4-9.8v-6l-10.4,6v6L62,139c0.1,0.1,0.2,0.2,0.3,0.3l0,0L68.7,143z"/>
			<path class="st17" d="M68.7,143l-4.2-7.9l3.4-9.8v-6l-10.4,6v6L62,139c0.1,0.1,0.2,0.2,0.3,0.3l0,0L68.7,143z"/>
			<path class="st0" d="M145.8,42c-0.1-2.2-1.3-4.2-3.1-5.4l-2.5-1.5c-2-1-4.3-1-6.2,0L40.5,89.4c-1.8,1.2-3,3.2-3.1,5.4v41.9
				c0.1,2.2,1.3,4.2,3.1,5.4l2.5,1.5c2,1,4.3,1,6.2,0l14.8-8.5l4.4,7.7c0.2,0.3,0.6,0.4,0.9,0.3c0.1-0.1,0.2-0.2,0.3-0.4l4.7-13.6
				l68.3-39.7c1.8-1.2,3-3.2,3.1-5.3V42z"/>
			<path class="st17" d="M37.4,136.8c0.1,2.2,1.3,4.2,3.1,5.4l2.5,1.5c1.8,0.9,3.8,1,5.7,0.2c-1.5,0.6-2.6-0.3-2.6-2v-42
				c0-1.1,0.3-2.1,0.9-3.1l-8.8-5c-0.6,0.9-0.9,2-0.9,3.1L37.4,136.8z"/>
			<path class="st7" d="M145.6,41.1c-0.4-1.3-1.6-1.7-3-0.9L49.2,94.5c-0.9,0.6-1.7,1.4-2.2,2.3l-8.7-5c0.5-0.9,1.3-1.7,2.2-2.3
				l93.4-54.3c2-1,4.3-1,6.2,0l2.5,1.5C144.2,37.7,145.3,39.3,145.6,41.1z"/>
		</g>
		<path class="st9" d="M70.5,93.6c0.2-0.1,0.4-0.1,0.6,0c0.2,0.1,0.3,0.4,0.2,0.6v15.9c0,1.6-0.2,3.1-0.5,4.7
			c-0.3,1.5-0.9,2.9-1.6,4.2c-0.7,1.3-1.6,2.6-2.6,3.7c-1.1,1.1-2.3,2.1-3.7,2.9c-1.1,0.7-2.4,1.2-3.7,1.3c-0.9,0.1-1.9-0.1-2.6-0.7
			c-0.8-0.6-1.3-1.5-1.6-2.4c-0.4-1.3-0.5-2.7-0.5-4.1v-15.9c0-0.3,0.1-0.6,0.2-0.9c0.1-0.3,0.3-0.5,0.5-0.6l2.4-1.3
			c0.2-0.1,0.4-0.1,0.5,0c0.2,0.2,0.3,0.4,0.2,0.6v15.7c0,0.9,0.1,1.7,0.3,2.5c0.1,0.5,0.5,1,0.9,1.3c0.4,0.3,0.9,0.3,1.4,0.2
			c0.6-0.1,1.2-0.4,1.8-0.7c0.7-0.4,1.3-0.8,1.8-1.4c0.6-0.5,1-1.2,1.4-1.9c0.4-0.7,0.7-1.5,0.9-2.4c0.2-1,0.3-1.9,0.3-2.9V96.5
			c0-0.3,0.1-0.6,0.2-0.9c0.1-0.3,0.3-0.5,0.6-0.6L70.5,93.6z"/>
		<path class="st9" d="M76.5,117.4c-0.2,0.1-0.4,0.1-0.6,0c-0.2-0.2-0.3-0.4-0.2-0.6V91.7c0-0.3,0.1-0.6,0.2-0.9
			c0.1-0.3,0.3-0.5,0.6-0.6l2.4-1.4c0.2-0.1,0.4-0.1,0.6,0c0.2,0.2,0.3,0.4,0.2,0.6v25.1c0,0.3-0.1,0.6-0.2,0.9
			c-0.1,0.3-0.3,0.5-0.6,0.6L76.5,117.4z"/>
		<path class="st9" d="M92.5,78.8c0.1-0.3,0.3-0.7,0.4-1c0.2-0.4,0.5-0.7,0.8-0.8l2.2-1.2c0.1-0.1,0.3-0.1,0.4,0
			c0.1,0.1,0.2,0.3,0.2,0.5c0,0.1,0,0.3-0.1,0.4l-9.8,37.1c-0.1,0.3-0.2,0.7-0.4,1c-0.2,0.4-0.5,0.7-0.9,0.9l-2.1,1.2
			c-0.1,0.1-0.3,0.1-0.4,0c-0.1-0.1-0.2-0.3-0.2-0.5c0-0.1,0-0.3,0.1-0.4L92.5,78.8z"/>
		<path class="st9" d="M115.3,67.8c0.2-0.1,0.4-0.1,0.6,0c0.2,0.2,0.3,0.4,0.2,0.6v15.9c0,1.6-0.2,3.1-0.5,4.7
			c-0.3,1.5-0.9,2.9-1.5,4.2c-0.7,1.3-1.6,2.6-2.6,3.7c-1.1,1.1-2.3,2.1-3.7,2.9c-1.1,0.7-2.4,1.2-3.7,1.3c-0.9,0.1-1.9-0.1-2.6-0.7
			c-0.8-0.6-1.3-1.5-1.6-2.4c-0.4-1.3-0.5-2.7-0.5-4.1V78c0-0.3,0.1-0.6,0.2-0.9c0.1-0.3,0.3-0.5,0.6-0.6l2.4-1.4
			c0.2-0.1,0.4-0.1,0.6,0c0.2,0.1,0.3,0.4,0.2,0.6v15.8c0,0.9,0.1,1.7,0.3,2.5c0.1,0.5,0.5,1,0.9,1.3c0.4,0.3,0.9,0.3,1.4,0.2
			c0.6-0.1,1.2-0.4,1.8-0.7c0.7-0.4,1.3-0.8,1.8-1.4c0.6-0.6,1-1.2,1.4-1.9c0.4-0.8,0.7-1.6,0.9-2.4c0.2-1,0.3-1.9,0.3-2.9V70.6
			c0-0.3,0.1-0.6,0.2-0.9c0.1-0.3,0.3-0.5,0.6-0.6L115.3,67.8z"/>
		<path class="st9" d="M133.7,84.4c-0.4,0.2-0.7,0.3-0.9,0.1c-0.1-0.1-0.3-0.2-0.4-0.4l-4.6-5.9l-4.6,11.2l-0.4,0.8
			c-0.2,0.4-0.5,0.7-0.8,0.9l-2.4,1.4c-0.2,0.1-0.4,0.1-0.6,0c-0.2-0.2-0.3-0.4-0.2-0.6c0-0.2,0-0.3,0.1-0.5l6.7-16.2l-6.4-8.2
			c-0.1-0.1-0.1-0.2-0.1-0.4c0-0.3,0.1-0.6,0.2-0.9c0.1-0.3,0.3-0.5,0.6-0.6l2.4-1.4c0.4-0.2,0.7-0.3,0.8-0.1l0.4,0.4l4.4,5.7
			l4.4-10.7c0.1-0.2,0.2-0.4,0.4-0.8c0.2-0.4,0.5-0.7,0.8-0.9l2.4-1.4c0.2-0.1,0.4-0.1,0.6,0c0.2,0.2,0.3,0.4,0.2,0.6
			c0,0.2,0,0.3-0.1,0.5l-6.4,15.7l6.6,8.4c0.1,0.1,0.1,0.2,0.1,0.4c0,0.3-0.1,0.6-0.2,0.9c-0.1,0.3-0.3,0.5-0.6,0.6L133.7,84.4z"/>
	</g>
</g>
<g id="freepik--Colors--inject-73">
	<g id="freepik--colors--inject-73">
		<path class="st0" d="M353.1,246.1c1.4,0.8,3.4,0.7,5.6-0.6c4.7-3,7.6-8.1,7.9-13.7c0-2.5-0.9-4.3-2.3-5.1l-5-2.9
			c-1.4-0.8-3.4-0.7-5.6,0.6c-4.7,3-7.6,8.1-7.9,13.7c0,2.5,0.9,4.3,2.3,5.1L353.1,246.1z"/>
		<path class="st10" d="M353.1,246.1c1.4,0.8,3.4,0.7,5.6-0.6c4.7-3,7.6-8.1,7.9-13.7c0-2.5-0.9-4.3-2.3-5.1l-5-2.9
			c-1.4-0.8-3.4-0.7-5.6,0.6c-4.7,3-7.6,8.1-7.9,13.7c0,2.5,0.9,4.3,2.3,5.1L353.1,246.1z"/>
		<path class="st0" d="M366.7,231.9c0-2.5-0.9-4.3-2.3-5.1s-3.4-0.7-5.6,0.6c-4.7,3-7.6,8.1-7.9,13.7c0,2.5,0.9,4.3,2.3,5.1
			s3.4,0.7,5.6-0.6C363.4,242.5,366.4,237.4,366.7,231.9z"/>
		<path class="st4" d="M353.1,276.4c1.4,0.8,3.4,0.7,5.6-0.5c4.7-3,7.6-8.1,7.9-13.7c0-2.5-0.9-4.3-2.3-5.1l-5-2.9
			c-1.4-0.8-3.4-0.7-5.6,0.6c-4.7,3-7.6,8.1-7.9,13.7c0,2.5,0.9,4.3,2.3,5.1L353.1,276.4z"/>
		<path class="st20" d="M366.7,262.1c0-2.5-0.9-4.3-2.3-5.1s-3.4-0.7-5.6,0.6c-4.7,3-7.6,8.1-7.9,13.7c0,2.5,0.9,4.3,2.3,5.1
			s3.4,0.7,5.6-0.5C363.4,272.8,366.4,267.7,366.7,262.1z"/>
		<path class="st2" d="M353.1,306.6c1.4,0.8,3.4,0.7,5.6-0.6c4.7-3,7.6-8.1,7.9-13.7c0-2.5-0.9-4.3-2.3-5.1l-5-2.9
			c-1.4-0.8-3.4-0.7-5.6,0.5c-4.7,3-7.6,8.1-7.9,13.7c0,2.5,0.9,4.3,2.3,5.1L353.1,306.6z"/>
		<path class="st3" d="M366.7,292.3c0-2.5-0.9-4.3-2.3-5.1s-3.4-0.7-5.6,0.5c-4.7,3-7.6,8.1-7.9,13.7c0,2.5,0.9,4.3,2.3,5.1
			s3.4,0.7,5.6-0.6C363.4,303,366.4,297.9,366.7,292.3z"/>
		<path class="st0" d="M353.1,215.9c1.4,0.8,3.4,0.7,5.6-0.6c4.7-3,7.6-8.1,7.9-13.7c0-2.5-0.9-4.3-2.3-5.1l-5-2.9
			c-1.4-0.8-3.4-0.7-5.6,0.6c-4.7,3-7.6,8.1-7.9,13.7c0,2.5,0.9,4.3,2.3,5.1L353.1,215.9z"/>
		<path class="st0" d="M366.7,201.7c0-2.5-0.9-4.3-2.3-5.1s-3.4-0.7-5.6,0.6c-4.7,3-7.6,8.1-7.9,13.7c0,2.5,0.9,4.3,2.3,5.1
			s3.4,0.7,5.6-0.6C363.4,212.3,366.4,207.2,366.7,201.7z"/>
		<path class="st7" d="M366.7,201.7c0-2.5-0.9-4.3-2.3-5.1s-3.4-0.7-5.6,0.6c-4.7,3-7.6,8.1-7.9,13.7c0,2.5,0.9,4.3,2.3,5.1
			s3.4,0.7,5.6-0.6C363.4,212.3,366.4,207.2,366.7,201.7z"/>
	</g>
</g>
<g id="freepik--Character--inject-73">
	<g id="freepik--character--inject-73">
		<g id="freepik--Arm--inject-73">
			<path class="st21" d="M459.2,232.4c-0.4,4.1,0.1,7.7-0.2,9.7c-0.2,1.6-0.5,3.2-0.8,4.7c-0.4,1.2-1,2.3-1.7,3.4
				c-0.5,1.4-1.1,2.7-1.8,3.9c-0.9,1.3-2,2.4-3.2,3.4c-0.8,1.9-0.8,2.1-1.1,2.9c-0.1,0.3-0.3,0.6-0.5,0.8c-0.2,0.1-0.5,0.1-0.7-0.1
				c-0.4-0.3-0.6-0.8-0.6-1.3c-0.1-1.3,0.1-2.5,0.6-3.7c0.5-1.6,0.9-3.3,1.1-5c-0.1,0.3-0.2,0.6-0.4,0.9c-0.2,0.4-0.3,0.9-0.5,1.4
				c-1,2.2-1.9,4.3-2.8,6.5c-0.1,0.2-0.2,0.4-0.4,0.5c-0.2,0.1-0.5,0.1-0.7,0c-0.2-0.1-0.4-0.4-0.5-0.6c-0.3-0.9-0.3-1.9,0-2.8
				c0.3-1.2,0.6-2.4,1-3.6c0.5-1.3,0.8-2.6,1.1-3.9c0.4-1.7,0.6-3.5,0.6-5.2c-0.2-1.3-1.5,0.4-1.8,0.8c-0.4,0.7-0.9,1.3-1.5,1.9
				c-0.7,0.8-1.7,1.2-2.8,1.1c-0.2,0-0.3,0-0.5-0.1c-0.3-0.2-0.4-0.6-0.3-0.9c0.1-0.3,0.3-0.6,0.5-0.9c0-0.1,0.1-0.1,0.1-0.2
				c1.6-2.8,1.9-5.8,3.4-8.3c0.5-0.8,1.3-2.4,1.8-3.5c0.8-1.3,1.4-2.7,1.6-4.3c0.3-2.2-0.4-25.5-0.4-25.5l-8.2-22.7
				c-2-9.1-0.9-16.7,1.8-20.4c6.5-0.7,9.3,2.6,11.8,8.8c1.8,4.2,3.4,8.4,4.7,12.7c1.9,5.2,3.3,10.6,4.4,16c0.8,3.6,0,6.7-0.9,15
				C460.5,221.2,459.6,228.3,459.2,232.4z"/>
			<path class="st22" d="M453.1,237.7c0.1-0.4,0.2-0.8,0.3-1.2c0.1-0.3,0.1-0.7,0-1.1c-0.2,0.2-0.2,0.4-0.3,0.7
				c-0.1,0.4-0.2,0.8-0.3,1.1c-0.2,0.7-0.5,1.3-0.9,1.9c-0.3,0.5-0.6,0.9-1,1.2c-0.5,0.5-1.2,0.8-1.7,1.4c-0.1,0.1-0.1,0.2-0.1,0.2
				c0.2,0.1,0.4,0.1,0.5,0c1.1-0.4,2-1.2,2.6-2.2C452.5,239.2,452.9,238.4,453.1,237.7z M452.8,246.2c-0.2,2.5-0.9,4.9-1.9,7.2
				c-0.6,0.9-0.9,1.9-1.1,2.9c0,0.6,0.3,1.5,1,1.6c0.1,0,0.1-0.2,0-0.2c-1.1-0.9-0.6-2-0.1-3.1c0.4-0.8,0.8-1.7,1.1-2.6
				C452.5,250.1,452.8,248.2,452.8,246.2C453,246.1,452.9,246.1,452.8,246.2z M456.2,250.3c0,0-1.3,1.3-1.4,1.4
				c-0.2,0.2-0.4,0.4-0.6,0.5c-0.6,0.2-0.9-0.3-1-0.8c0-0.4,0.1-0.9,0.2-1.2c0.2-0.4,0.5-0.8,0.7-1.1c1.1-1.9,1.7-4.1,1.7-6.4l0,0
				c-0.3,1.4-0.6,2.8-1,4.2c-0.3,0.8-0.6,1.6-1.1,2.3c-0.4,0.5-0.6,1.1-0.7,1.7c0,0.4,0,0.8,0.2,1.2c0.1,0.2,0.2,0.3,0.4,0.4
				c0.6,0.3,1.1-0.4,1.5-0.7s0.8-0.9,1.1-1.3C456.2,250.4,456.2,250.3,456.2,250.3L456.2,250.3z"/>
			<path class="st0" d="M440,159.1c8.7-0.8,12.3,2.6,15.6,13.7c3,10.2,5,16.9,5,16.9c-1.9,2.4-4.4,4.3-7.1,5.6
				c-5.9,2.7-8.5,2.4-8.5,2.4s-4.8-12.5-5.8-16S435.2,163.1,440,159.1z"/>
		</g>
		<g id="freepik--Bottom--inject-73">
			<path class="st2" d="M408.4,357.1c-0.6-0.1-0.7,1.5-0.3,2.2c1.1,2.2,4.2,4.5,8.8,5.6s13.6,0.1,16.4,0s7.4,1.4,10.1,1.9
				c5,0.9,8.4-0.4,10-2c0.6-0.6,0.8-1.5,0.7-2.3c0-1.9-0.2-2.3-0.4-2.3L408.4,357.1z"/>
			<path class="st1" d="M453.4,354.8c0.4,2.2,0.5,4.5,0.3,6.8c-0.7,1.3-1.9,2.2-3.4,2.5c-3.3,0.8-6.7,0.8-10-0.1
				c-2.3-0.6-4.6-0.9-7-0.9c-2.8,0.1-9.1,0.6-11.9,0.6c-2.6,0-5.3-0.6-7.7-1.6c-1.9-0.9-4.7-2.9-5.3-4.4c-0.5-3.4-0.2-5.4,1.8-6.5
				s5-1.4,9.1-1.6c1.2-0.1,2.8-0.1,3.4-0.2c2.5-0.2,4.8-0.4,6.7-0.4c1.6,0,3.2-0.3,4.6-0.9c0.7-0.3,1.2-0.8,1.5-1.4
				c0.4-0.9-0.1-2.1,0.6-2.2c0,0,14.5,2.6,15.6,2.8C453.1,347.4,452.2,349.2,453.4,354.8z"/>
			<path class="st11" d="M421.7,349.2c-0.4,0.3-0.8,0.7-1,1.2c-0.3,0.5-0.5,1-0.7,1.6c-0.2,0.7,0.7,0.9,1,0c0.3-0.7,0.6-1.3,1-1.9
				c0.3-0.4,0.7-0.7,1.2-0.8l0.7-0.1C423.8,348.8,422.2,348.9,421.7,349.2z"/>
			<path class="st11" d="M428,348.6c-0.5-0.1-1,0.1-1.3,0.4c-0.5,0.4-0.8,0.9-1,1.5c-0.3,0.7-0.5,1.4-0.6,2.1c-0.1,0.5,1,0.5,1.1,0
				c0.2-0.6,0.4-1.3,0.6-1.9c0.1-0.3,0.7-1.5,1.5-1.6h0.3c0-0.2-0.2-0.3-0.4-0.3L428,348.6z"/>
			<path class="st11" d="M431.7,348.6c-0.3,0.1-0.6,0.2-0.8,0.5c-0.3,0.3-0.5,0.7-0.6,1.1c-0.2,0.7-0.4,1.5-0.4,2.2
				c0,0.6,1,0.5,1.1,0.1c0-1.1,0.2-2.1,0.8-3c0.2-0.4,0.6-0.7,1-1c0-0.1-0.2-0.1-0.3-0.1C432.2,348.4,431.9,348.5,431.7,348.6z"/>
			<path class="st21" d="M451.8,331.3c0,0,0,12.9-0.1,15.9c0,1-1.8,1.5-2.6,2c-1.1,0.5-2.1,1.2-3,2.1c-2.1,2.5-3.8,3.2-5.6-0.7
				c-0.3-0.7-1.1-1.2-1.8-0.9c-0.1,0-0.1,0-0.2,0.1c-0.8,0.3-1.6,0.5-2.4,0.6c-0.1-0.1-0.1-0.3,0-0.4c0.7-1,0.9-2.2,0.6-3.3
				c-0.9-5.2-1.6-10.4-2.4-15.6L451.8,331.3z"/>
			<path class="st2" d="M374.6,373.4c-0.6-0.1-0.6,1.5-0.2,2.2c1.1,2.1,4.3,4.4,8.9,5.5s13.6-0.2,16.4-0.3s7.5,1.3,10.2,1.7
				c5,0.8,8.4-0.6,10-2.2c0.5-0.6,0.8-1.5,0.7-2.3c0-1.9-0.2-2.3-0.4-2.2L374.6,373.4z"/>
			<path class="st1" d="M419.5,370.2c0.5,2.2,0.6,4.5,0.5,6.8c-0.7,1.3-1.9,2.2-3.4,2.6c-3.3,0.9-6.7,0.9-10,0.1
				c-2.3-0.6-4.7-0.9-7-0.8c-2.8,0.2-9.1,0.8-11.9,0.8c-2.6,0-5.3-0.5-7.7-1.5c-1.9-0.9-4.7-2.8-5.3-4.2c-0.6-3.4-0.3-5.4,1.7-6.6
				s5-1.5,9.1-1.8c1.2-0.1,2.8-0.2,3.4-0.2c2.5-0.3,4.8-0.5,6.6-0.6c1.6,0,3.2-0.3,4.6-1c0.7-0.3,1.2-0.8,1.5-1.5
				c0.4-0.9,0.4-2.1,1.1-2.2c0,0,14,2.4,15.1,2.5C419.2,362.7,418.3,364.6,419.5,370.2z"/>
			<path class="st11" d="M387.7,365.2c-0.4,0.3-0.8,0.8-1,1.2c-0.3,0.5-0.5,1.1-0.6,1.6c-0.2,0.7,0.7,0.9,1,0c0.3-0.7,0.6-1.3,1-1.9
				c0.3-0.4,0.7-0.7,1.2-0.9l0.7-0.1C389.8,364.7,388.3,364.9,387.7,365.2z"/>
			<path class="st11" d="M394,364.5c-0.5-0.1-0.9,0.1-1.3,0.4c-0.5,0.4-0.8,0.9-1,1.5c-0.2,0.7-0.4,1.4-0.6,2.1c0,0.5,1,0.5,1.1,0
				c0.1-0.7,0.3-1.3,0.5-1.9c0.1-0.3,0.7-1.5,1.4-1.6h0.3c0-0.2-0.2-0.3-0.4-0.3L394,364.5z"/>
			<path class="st11" d="M397.7,364.4c-0.3,0.1-0.6,0.2-0.8,0.5c-0.2,0.3-0.4,0.7-0.6,1.1c-0.2,0.7-0.3,1.5-0.3,2.3
				c0,0.6,1.1,0.4,1.1,0c0-1,0.2-2.1,0.7-3c0.2-0.4,0.5-0.7,0.9-1c0-0.1-0.2-0.1-0.3-0.1C398.2,364.2,398,364.3,397.7,364.4z"/>
			<path class="st21" d="M419.3,347.6c0,0-1.2,12.9-1.5,15.8c-0.1,1-1.9,1.3-2.8,1.7c-1.2,0.4-2.2,1.1-3.2,1.8
				c-2.4,2.3-4.1,2.9-5.5-1.2c-0.2-0.8-1-1.2-1.7-1.1c-0.1,0-0.1,0-0.2,0.1c-0.8,0.3-1.6,0.4-2.4,0.3c-0.1-0.1,0-0.3,0-0.4
				c0.7-0.9,1-2.1,0.9-3.2c-0.4-5.3-0.6-10.5-0.9-15.8L419.3,347.6z"/>
			<path class="st3" d="M452.5,295.9c-0.5-3.7-1.4-7.3-2.6-10.8c0,0,1.6-22.5,2.2-39.5c0.3-8.6-0.3-17.2-1.8-25.6l-52.6,0.8
				c0,0-0.4,29.5-0.2,47.5c0.1,17.4,0.4,22.1,1.1,33.1c0.4,5.9,1.2,16.9,1.7,26.6c0.5,10.5,1.8,25.6,1.8,25.6c2.3,1.2,4.8,1.8,7.3,2
				c7.2,0.1,8.4-0.9,9.5-1.7c0,0,0.9-7.7,2.9-22.3c1.1-7,1.7-14,1.9-21.1c0-3.5,0.3-6.1-0.4-10.1l1.9-20.7c0.4,2.9,0.9,5.8,1.5,9.4
				c1,5.8,2.8,16.7,4.2,26.3c1.5,10.4,4.2,25.4,4.2,25.4s4.8,1.5,8.3,1.3c7.1-0.6,8-2.3,8.9-3.1c0,0,0.3-7.4,0.9-22
				C453.6,309.9,453.3,302.9,452.5,295.9z"/>
			<path class="st17" d="M431.5,254.6c11.3-4.1,12.3-10,12.3-10c-8,6.6-14.6,7.1-14.6,7.1l-4,28l2.8,17.4l-0.6-17.4L431.5,254.6z"/>
		</g>
		<g id="freepik--Top--inject-73">
			<path class="st1" d="M445,160.2c4.5,2.2,7.9,8.9,7.3,18c-0.6,8.4-1.1,13.6-2.2,22.4c-0.5,4.3-0.6,8.6-0.2,12.8
				c0.4,7.1,1.6,14.8,1.6,14.8s-5.8,9.1-21.7,10.6c-19.2,1.7-32.2-3.1-32.2-3.1s-0.4-26.3-0.4-32.5c0-15.7-0.3-21.5,1.4-26.6
				c1.2-2.8,7.2-15.4,10.5-14.5c4,1.2,8.9-0.1,12.9-0.6C436.2,159.7,440.3,157.9,445,160.2z"/>
			<path class="st21" d="M416.9,155.6l0.4,6.9c4.3,0.7,14.2,0.9,16.5-0.8l-0.3-7.5L416.9,155.6z"/>
			<path class="st22" d="M409.4,133.4c-1.6,2.3-3.1,4.6-4.4,7.1l2.8,1.8L409.4,133.4z"/>
			<path class="st21" d="M418.2,120c-5.4-0.3-7.7,4.8-9.7,16.4c-2,11.2-1.1,15.7,0.2,17.4c3.1,2.3,6.4,3,11.2,2.4
				c3.6-0.5,12.9-2,17.4-7.1c5.3-6.1,7.9-16,3.7-20.4C435.1,122.5,421,120.2,418.2,120z"/>
			<path class="st23" d="M411.1,146.3c-0.1,0-0.1,0-0.2,0.1c0,0-0.1,0.1-0.1,0.1c-0.1,0.1-0.2,0.2-0.2,0.2c-0.2,0.1-0.4,0.3-0.6,0.4
				c-0.4,0.2-0.8,0.3-1.2,0.3c0,0-0.1,0-0.1,0.1c0,0,0,0.1,0,0.1s0.2,0.1,0.3,0.1c0.1,0,0.2,0,0.3,0c0.2,0,0.5-0.1,0.7-0.2
				c0.2-0.1,0.4-0.2,0.6-0.3c0.1-0.1,0.2-0.1,0.3-0.2l0.1-0.1c0.1-0.1,0.1-0.2,0.1-0.3C411.2,146.4,411.2,146.2,411.1,146.3z"/>
			<path class="st22" d="M408.6,153.8c0.7,1,5.4,3.1,8.4,3.2l-0.1-2.3C414.1,154.7,411.3,154.4,408.6,153.8z"/>
			<path class="st2" d="M416.8,127.9c-0.2,0.9-0.1,1.8,0.3,2.7c0.5,1.1,1.5,2,2.6,2.5c-1,1.3-1.6,2.9-1.8,4.5
				c-0.1,0.5-0.1,1,0.1,1.5c0.2,0.5,0.8,0.8,1.3,0.5c0.2-0.1,0.3-0.2,0.4-0.3c0.5-0.8,1.1-1.6,1.8-2.3c0.9-0.8,2-1.2,3.1-1.2
				c4.3,0.1,3.4,6.9,1.4,9c-3.3,3.4-5.3,0.7-5.3,0.7s-2.2,5.6,1.5,8.7c0,0,6.4,2.4,11.2,0.7c3.5-4.1,7.5-7.6,9.8-11.2
				c5.5-8.4,4.7-15.8,0.8-17.9c0-3.7-3-6.4-6.1-8c-4.1-2.2-8.6-1.3-13-2c-2.3-0.3-4.5-1.2-6.4-2.5c-0.9-0.6-1.9-1.3-2.8-0.8
				c-0.4,0.2-0.6,0.5-0.8,0.9c-0.7,1.3-0.8,2.8-0.2,4.2c-1.1-1-3.2-0.9-4.5-0.1c-1.9,1.1-2.4,2.7-2.1,5
				C408.4,124.1,410.6,128.9,416.8,127.9z"/>
			<path class="st2" d="M443.8,126.8l4.4-1.8c-0.5-1.2-1.9-1.8-3.1-1.3S443.3,125.6,443.8,126.8z"/>
			<g id="freepik--arm--inject-73">
				<path class="st22" d="M364.1,113.6c-0.6-3.4-1-5-1.7-6.1s-2.6-5.7-3.6-7.2c-0.6-1-2.1,0-2,1.8c0.4,1.9,1,3.8,1.8,5.6
					c0.2,1.7,0.3,3.4,0.1,5.2L364.1,113.6z"/>
				<path class="st21" d="M405.8,162.1l-27.6-14.5c0,0-12.1-16.9-13-18.9s-0.4-9.6-0.5-11.9c-0.1-3.2-1.2-3.8-2.1-4.4
					c-3.2-2.2-4-2.6-4.9-2.8c-0.6-0.1-1.2,0.1-1.6,0.6c-0.8-0.6-1.9-1.7-3.2-0.6c-0.4,0.3-0.7,0.6-1,0.9c-0.2-0.1-0.5-0.2-0.7-0.2
					c-1.3,0.1-2.6,3.6-2.5,4.8c0.2,1,0.8,1.8,1.7,2.3c0.8,0.6,1.2-0.5,1.2-0.5l1,1.1c0.7,3.8-2.2,7,0.1,10.6c1.1,1.3,2.1,2.7,3,4.2
					c3.8,9.1,8,18,12.7,26.7c1.2,2,3.1,3.4,9.9,8.2l15.3,11L405.8,162.1z"/>
				<path class="st22" d="M356,109.8l3.9,2.5l-3.4-2.9C356.3,109.5,356.1,109.6,356,109.8z"/>
				<path class="st22" d="M351.9,110.1l4.2,3.1l-3.8-3.6C352.1,109.7,352,109.9,351.9,110.1z"/>
				<path class="st22" d="M350.8,112.2c-0.1,0.3,0,0.6,0.1,0.9c0.1,0.3,0.2,0.6,0.4,0.8v-0.1c-0.1,0.3-0.2,0.6-0.2,0.9h0.2
					c-0.2-0.2-0.4-0.4-0.7-0.4c-0.3,0-0.6,0-0.8,0.2c0.3-0.1,0.5-0.1,0.8,0c0.2,0.1,0.5,0.2,0.6,0.4l0.1,0.2l0.1-0.2
					c0.1-0.3,0.2-0.6,0.2-0.9l0,0l0,0c-0.2-0.2-0.3-0.5-0.5-0.8C350.8,112.9,350.8,112.6,350.8,112.2z"/>
				<path class="st22" d="M351.3,113.7c0.4,0.5,0.8,1,1.3,1.4c-0.2,0.4-0.3,0.8-0.2,1.2c0,0.4,0.1,0.9,0.1,1.3l-1-1.1
					c0.1-0.7-0.1-1.3-0.6-1.8L351.3,113.7z"/>
				<path class="st0" d="M409.2,162.1c-2.1-1.6-6.9-2.8-10.9-4.6c-1.5-0.7-7.5-3.2-12.4-5.9c-3.9,4-6.9,7.4-8.6,13.2
					c-0.2,0.8-0.4,1.7-0.6,2.6c5.3,4,12,8.9,15.1,12.4c5.7,6.4,5.3,7.1,5.8,8.4s6.7,2.7,10.2-5.9S410.9,165.8,409.2,162.1z"/>
			</g>
		</g>
	</g>
</g>
</svg>
